<?xml version="1.0" encoding="UTF-8" standalone="no"?>
<svg
   xmlns:dc="http://purl.org/dc/elements/1.1/"
   xmlns:cc="http://creativecommons.org/ns#"
   xmlns:rdf="http://www.w3.org/1999/02/22-rdf-syntax-ns#"
   xmlns:svg="http://www.w3.org/2000/svg"
   xmlns="http://www.w3.org/2000/svg"
   xmlns:sodipodi="http://sodipodi.sourceforge.net/DTD/sodipodi-0.dtd"
   xmlns:inkscape="http://www.inkscape.org/namespaces/inkscape"
   width="100%"
   height="100%"
   viewBox="0 0 1024 1024"
   version="1.1"
   id="bg_delete"
   inkscape:version="1.0 (4035a4f, 2020-05-01)"
   sodipodi:docname="bg_delete.svg">
  <defs
     id="defs2">
    <clipPath
       clipPathUnits="userSpaceOnUse"
       id="clipPath942">
      <path
         inkscape:connector-curvature="0"
         id="path944"
         d="m 23.70493,29.953132 c 13.664981,6.855641 1.143893,22.437606 -17.834851,17.162808 -10.136601,-2.817284 -0.98336,1.733669 -0.98336,1.733669 0,0 4.73523,4.253357 13.356547,4.17353 8.621318,-0.07983 19.262593,-4.17353 19.262593,-4.17353 L 32.300781,29.9375 Z"
         style="fill:#ffc938;fill-opacity:1;stroke:none;stroke-width:1px;stroke-linecap:butt;stroke-linejoin:miter;stroke-opacity:1"
         sodipodi:nodetypes="cscsccc" />
    </clipPath>
    <clipPath
       clipPathUnits="userSpaceOnUse"
       id="clipPath942-5">
      <path
         inkscape:connector-curvature="0"
         id="path944-6"
         d="m 23.70493,29.953132 c 13.664981,6.855641 1.143893,22.437606 -17.834851,17.162808 -10.136601,-2.817284 -0.98336,1.733669 -0.98336,1.733669 0,0 4.73523,4.253357 13.356547,4.17353 8.621318,-0.07983 19.262593,-4.17353 19.262593,-4.17353 L 32.300781,29.9375 Z"
         style="fill:#ffc938;fill-opacity:1;stroke:none;stroke-width:1px;stroke-linecap:butt;stroke-linejoin:miter;stroke-opacity:1"
         sodipodi:nodetypes="cscsccc" />
    </clipPath>
  </defs>
  <sodipodi:namedview
     id="base"
     pagecolor="#ffffff"
     bordercolor="#666666"
     borderopacity="1.0"
     inkscape:pageopacity="0.0"
     inkscape:pageshadow="2"
     inkscape:zoom="0.23303873"
     inkscape:cx="1685.6007"
     inkscape:cy="-479.06336"
     inkscape:document-units="px"
     inkscape:current-layer="layer1"
     showgrid="false"
     units="px"
     inkscape:window-width="1920"
     inkscape:window-height="1027"
     inkscape:window-x="0"
     inkscape:window-y="25"
     inkscape:window-maximized="1"
     inkscape:document-rotation="0" />
  <metadata
     id="metadata5">
    <rdf:RDF>
      <cc:Work
         rdf:about="">
        <dc:format>image/svg+xml</dc:format>
        <dc:type
           rdf:resource="http://purl.org/dc/dcmitype/StillImage" />
        <dc:title />
      </cc:Work>
    </rdf:RDF>
  </metadata>
  <g
     inkscape:groupmode="layer"
     id="layer1"
     inkscape:label="Layer 1">
    <path
       d="M 512 0 C 376.21899 -1.1166202e-06 245.97261 53.949264 149.96094 149.96094 C 53.949264 245.97261 -1.1166203e-06 376.21899 0 512 C 2.9915422e-14 647.78101 53.949264 778.02739 149.96094 874.03906 C 245.97261 970.05073 376.21899 1024 512 1024 C 647.78101 1024 778.02739 970.05073 874.03906 874.03906 C 970.05073 778.02739 1024 647.78101 1024 512 C 1024 376.21899 970.05073 245.97261 874.03906 149.96094 C 778.02739 53.949264 647.78101 3.7895613e-14 512 0 z M 512 51.199219 C 634.22159 51.199219 751.41027 99.742295 837.83398 186.16602 C 924.2577 272.58973 972.80078 389.77841 972.80078 512 C 972.80078 634.22159 924.2577 751.41027 837.83398 837.83398 C 751.41027 924.2577 634.22159 972.80078 512 972.80078 C 389.77841 972.80078 272.58973 924.2577 186.16602 837.83398 C 99.742295 751.41027 51.199219 634.22159 51.199219 512 C 51.199218 389.77841 99.742295 272.58973 186.16602 186.16602 C 272.58973 99.742295 389.77841 51.199218 512 51.199219 z M 699.14844 138.46289 C 688.68286 138.6878 678.60819 144.22386 672.9707 153.98828 L 607.24219 267.83594 L 584.125 307.875 C 584.12236 307.87957 584.11982 307.8841 584.11719 307.88867 L 568.61914 334.73242 L 595.47656 350.23828 L 624.51172 367.00195 L 651.36914 382.50977 L 666.875 355.65039 L 689.99219 315.61133 L 755.7207 201.76367 C 764.31116 186.88456 759.2502 167.99085 744.37109 159.40039 L 715.33398 142.63672 C 710.21929 139.68375 704.63041 138.34508 699.14844 138.46289 z M 696.57617 148.24023 C 709.04495 147.82191 724.9707 165.48242 724.9707 165.48242 C 686.24907 143.63596 681.30951 186.76939 661.54688 204.24023 C 661.54688 204.24023 682.60902 151.46465 694.13477 148.57617 C 694.92955 148.37699 695.74492 148.26812 696.57617 148.24023 z M 456.03906 304.73828 C 445.57349 304.96319 435.49881 310.49926 429.86133 320.26367 L 408.90625 356.55664 C 400.31579 371.43574 405.37872 390.3314 420.25781 398.92188 L 669.96094 543.08789 C 684.84004 551.67835 703.73376 546.61543 712.32422 531.73633 L 733.2793 495.44141 C 741.86975 480.5623 736.80684 461.6686 721.92773 453.07812 L 472.22461 308.91211 C 467.10992 305.95914 461.52103 304.62047 456.03906 304.73828 z M 382.25781 402.71484 C 314.8001 514.46637 237.62158 562.43645 161.91797 620.04688 C 193.35174 657.50617 227.22526 689.8563 263.02539 718.13086 L 380.16016 604.18164 L 301.66406 746.48828 C 394.25847 809.8754 498.23292 849.29769 607.61523 877.37109 C 598.58497 769.51729 635.91751 672.29008 685.6875 577.90039 L 382.25781 402.71484 z "
       style="vector-effect:none;fill:currentColor;fill-opacity:1;fill-rule:evenodd;stroke:none;stroke-width:126.22;stroke-linecap:butt;stroke-linejoin:miter;stroke-miterlimit:4;stroke-dasharray:none;stroke-dashoffset:0;stroke-opacity:1"
       id="rect243" />
  </g>
</svg>
