<?xml version="1.0" encoding="UTF-8" standalone="no"?>
<svg
   version="1.1"
   width="26"
   height="26"
   viewBox="0 0 512 512"
   style="enable-background:new 0 0 512 512;"
   xml:space="preserve"
   id="bucket"
   sodipodi:docname="bucket.svg"
   inkscape:version="1.2.2 (b0a84865, 2022-12-01)"
   xmlns:inkscape="http://www.inkscape.org/namespaces/inkscape"
   xmlns:sodipodi="http://sodipodi.sourceforge.net/DTD/sodipodi-0.dtd"
   xmlns="http://www.w3.org/2000/svg"
   xmlns:svg="http://www.w3.org/2000/svg">
<g
   id="g184"
   transform="matrix(0.88590504,0,0,0.88590504,29.12285,29.129325)">
	<path
   fill="currentColor"
   d="M 215.37,85.03 C 198.16,59.59 180.53,38.13 164.63,23.28 156.74,15.54 147.75,9.02 137.95,3.92 129.79,0.01 116.9,-3.78 104.8,3.17 91.01,11.18 88.75,26.85 88.64,36.84 c -0.11,11.43 2.41,24.96 6.5,39.24 7.37,25.82 20.9,57.43 38.9,90.27 L 10.92,289.48 c -10.41,10.41 -10.11,24.65 -8.19,34.5 2.07,10.64 7.03,22.29 13.53,33.94 13.08,23.56 34.58,51.15 61.11,77.72 26.57,26.57 54.16,48.03 77.72,61.11 11.65,6.5 23.3,11.46 33.94,13.53 9.85,1.88 24.05,2.22 34.5,-8.19 L 434.56,291.06 c 4.43,9.66 3.46,19.24 1.88,35.29 -1.13,10.97 -2.56,24.99 -2.74,44.2 v 4.62 h 0.11 c 1.74,20.68 19.91,36.04 40.59,34.31 18.28,-1.53 32.78,-16.03 34.31,-34.31 h 0.11 v -2.14 l -0.15,-4.4 c -2.07,-46.98 -26.31,-102.9 -69.9,-131.31 -2.34,-5.58 -4.98,-11.03 -7.93,-16.31 -13.12,-23.53 -34.58,-51.11 -61.15,-77.68 -26.57,-26.57 -54.16,-48.07 -77.72,-61.15 -11.65,-6.46 -23.3,-11.43 -33.94,-13.53 -9.85,-1.88 -24.05,-2.18 -34.5,8.23 L 215.37,85 Z M 139.01,50.72 c 14.32,13.38 31.72,34.65 49.27,61.34 l -26.46,26.5 c -14.36,-27.32 -24.8,-52.69 -30.55,-72.84 -2.52,-8.24 -4.17,-16.71 -4.92,-25.29 3.41,2.28 7.66,5.63 12.66,10.29 z m 14.8,149.01 c 20.29,32.02 41.6,58.89 60.4,76.41 7.6,7.08 19.49,6.66 26.57,-0.94 7.08,-7.6 6.66,-19.49 -0.94,-26.57 -17.03,-15.86 -38.22,-42.69 -58.78,-76.18 l 40.89,-40.89 c 2.03,4.51 4.32,9.13 6.88,13.72 13.12,23.56 34.58,51.15 61.15,77.72 26.53,26.57 54.12,48.03 77.72,61.11 4.59,2.56 9.17,4.89 13.72,6.88 l -182.69,182.72 -2.56,-0.38 c -5.15,-1.01 -12.85,-3.91 -22.85,-9.47 -19.69,-10.97 -44.57,-30.07 -69.38,-54.87 -24.81,-24.8 -43.9,-49.61 -54.87,-69.38 -5.52,-9.96 -8.46,-17.66 -9.43,-22.81 l -0.38,-2.56 z m 107.87,-72.72 c -3.89,-6.62 -6.93,-13.7 -9.06,-21.08 5.07,1.24 12.18,4.13 21.12,9.06 19.69,10.97 44.57,30.07 69.38,54.87 16.91,16.91 31.19,33.86 42.02,49.23 -13.45,-0.92 -26.96,0.23 -40.06,3.42 -9.91,-8.25 -19.44,-16.96 -28.56,-26.08 -24.8,-24.8 -43.86,-49.68 -54.8,-69.42 z"
   id="path182" />
</g>
</svg>
