<?xml version="1.0" encoding="UTF-8" standalone="no"?>
<svg
   xmlns:dc="http://purl.org/dc/elements/1.1/"
   xmlns:cc="http://creativecommons.org/ns#"
   xmlns:rdf="http://www.w3.org/1999/02/22-rdf-syntax-ns#"
   xmlns:svg="http://www.w3.org/2000/svg"
   xmlns="http://www.w3.org/2000/svg"
   xmlns:sodipodi="http://sodipodi.sourceforge.net/DTD/sodipodi-0.dtd"
   xmlns:inkscape="http://www.inkscape.org/namespaces/inkscape"
   inkscape:version="1.0 (4035a4f, 2020-05-01)"
   sodipodi:docname="camera.svg"
   version="1.1"
   viewBox="0 0 120 120"
   height="26"
   width="26"
   data-name="camera (2)"
   id="camera">
  <metadata
     id="metadata13">
    <rdf:RDF>
      <cc:Work
         rdf:about="">
        <dc:format>image/svg+xml</dc:format>
        <dc:type
           rdf:resource="http://purl.org/dc/dcmitype/StillImage" />
      </cc:Work>
    </rdf:RDF>
  </metadata>
  <defs
     id="defs190" />
  <sodipodi:namedview
     inkscape:document-rotation="0"
     inkscape:current-layer="camera"
     inkscape:window-maximized="0"
     inkscape:window-y="25"
     inkscape:window-x="124"
     inkscape:window-height="1027"
     inkscape:window-width="1652"
     inkscape:cy="14.41567"
     inkscape:cx="19.936914"
     inkscape:zoom="29.391818"
     showgrid="false"
     inkscape:deskcolor="currentColor"
     inkscape:pagecheckerboard="0"
     inkscape:pageopacity="0.0"
     inkscape:showpageshadow="2"
     borderopacity="0.25"
     bordercolor="currentColor"
     pagecolor="#ffffff"
     id="namedview188" />
  <g
     style="fill:currentColor"
     id="g888">
    <path
       id="path842"
       style="color:currentColor;font-style:normal;font-variant:normal;font-weight:normal;font-stretch:normal;font-size:medium;line-height:normal;font-family:sans-serif;font-variant-ligatures:normal;font-variant-position:normal;font-variant-caps:normal;font-variant-numeric:normal;font-variant-alternates:normal;font-variant-east-asian:normal;font-feature-settings:normal;font-variation-settings:normal;text-indent:0;text-align:start;text-decoration:none;text-decoration-line:none;text-decoration-style:solid;text-decoration-color:currentColor;letter-spacing:normal;word-spacing:normal;text-transform:none;writing-mode:lr-tb;direction:ltr;text-orientation:mixed;dominant-baseline:auto;baseline-shift:baseline;text-anchor:start;white-space:normal;shape-padding:0;shape-margin:0;inline-size:0;clip-rule:nonzero;display:inline;overflow:visible;visibility:visible;isolation:auto;mix-blend-mode:normal;color-interpolation:sRGB;color-interpolation-filters:linearRGB;solid-color:currentColor;solid-opacity:1;vector-effect:none;fill:currentColor;fill-opacity:1;fill-rule:nonzero;stroke:none;stroke-width:0.422717;stroke-linecap:butt;stroke-linejoin:miter;stroke-miterlimit:4;stroke-dasharray:none;stroke-dashoffset:0;stroke-opacity:1;color-rendering:auto;image-rendering:auto;shape-rendering:auto;text-rendering:auto;enable-background:accumulate;stop-color:currentColor"
       d="M 10.021484 4.5214844 C 8.9310017 4.5119337 8.0529956 5.3588093 7.9589844 6.4257812 L 4.7949219 6.4257812 C 4.1030079 6.4185381 3.4392001 6.6973164 2.9609375 7.1972656 C 2.4752055 7.6818595 2.1986652 8.339232 2.1914062 9.0253906 L 2.1914062 9.0273438 L 2.1914062 19.113281 C 2.1841631 19.805195 2.4648941 20.469003 2.9648438 20.947266 C 3.4494374 21.432998 4.104857 21.709539 4.7910156 21.716797 L 4.7929688 21.716797 L 21.320312 21.716797 C 22.012225 21.724034 22.676033 21.443309 23.154297 20.943359 C 23.640029 20.458766 23.91657 19.803346 23.923828 19.117188 L 23.923828 19.115234 L 23.923828 9.0292969 C 23.931043 8.3381098 23.651297 7.6754256 23.152344 7.1972656 C 22.674191 6.6982942 22.011506 6.4185461 21.320312 6.4257812 L 18.138672 6.4257812 C 18.100099 5.9392411 17.913977 5.4751158 17.5625 5.1308594 C 17.174616 4.741135 16.64754 4.5209696 16.097656 4.5214844 L 10.021484 4.5214844 z M 10.03125 5.9980469 L 10.035156 5.9980469 L 16.101562 5.9980469 L 16.103516 5.9980469 C 16.426382 5.9864292 16.687398 6.2454933 16.675781 6.5683594 L 16.673828 6.5722656 L 16.673828 7.1621094 L 16.673828 7.1640625 C 16.672571 7.5810936 17.016461 7.923606 17.433594 7.921875 L 21.341797 7.921875 L 21.34375 7.921875 C 21.957028 7.9206183 22.448514 8.4140674 22.447266 9.0273438 L 22.447266 18.904297 L 22.427734 18.904297 L 22.427734 19.115234 C 22.429034 19.728511 21.935544 20.221954 21.322266 20.220703 L 4.7929688 20.220703 C 4.1796918 20.22196 3.6862488 19.728511 3.6875 19.115234 L 3.6875 9.0273438 C 3.6862433 8.414067 4.1796918 7.9206237 4.7929688 7.921875 L 8.703125 7.921875 C 9.1198682 7.9231317 9.4621918 7.5808057 9.4609375 7.1640625 L 9.4609375 7.1621094 L 9.4609375 6.5722656 L 9.4609375 6.5683594 C 9.4493198 6.2454933 9.7083839 5.9864296 10.03125 5.9980469 z "
       transform="scale(4.6153846)" />
    <path
       id="path846"
       style="color:currentColor;font-style:normal;font-variant:normal;font-weight:normal;font-stretch:normal;font-size:medium;line-height:normal;font-family:sans-serif;font-variant-ligatures:normal;font-variant-position:normal;font-variant-caps:normal;font-variant-numeric:normal;font-variant-alternates:normal;font-variant-east-asian:normal;font-feature-settings:normal;font-variation-settings:normal;text-indent:0;text-align:start;text-decoration:none;text-decoration-line:none;text-decoration-style:solid;text-decoration-color:currentColor;letter-spacing:normal;word-spacing:normal;text-transform:none;writing-mode:lr-tb;direction:ltr;text-orientation:mixed;dominant-baseline:auto;baseline-shift:baseline;text-anchor:start;white-space:normal;shape-padding:0;shape-margin:0;inline-size:0;clip-rule:nonzero;display:inline;overflow:visible;visibility:visible;isolation:auto;mix-blend-mode:normal;color-interpolation:sRGB;color-interpolation-filters:linearRGB;solid-color:currentColor;solid-opacity:1;vector-effect:none;fill:currentColor;fill-opacity:1;fill-rule:nonzero;stroke:none;stroke-width:0.422717;stroke-linecap:butt;stroke-linejoin:miter;stroke-miterlimit:4;stroke-dasharray:none;stroke-dashoffset:0;stroke-opacity:1;color-rendering:auto;image-rendering:auto;shape-rendering:auto;text-rendering:auto;enable-background:accumulate;stop-color:currentColor"
       d="M 13.058594 8.8769531 C 10.583743 8.8783831 8.4503593 10.6294 7.96875 13.056641 C 7.4871466 15.483852 8.7895529 17.916895 11.076172 18.863281 C 13.362791 19.809667 16.002372 19.008798 17.376953 16.951172 C 18.751551 14.893521 18.482388 12.146487 16.732422 10.396484 C 15.757561 9.4235869 14.435867 8.8775568 13.058594 8.8769531 z M 13.056641 10.414062 C 14.032644 10.418723 14.969683 10.802424 15.666016 11.486328 C 16.355769 12.176697 16.740501 13.113909 16.736328 14.089844 L 16.736328 14.091797 L 16.736328 14.09375 C 16.749283 15.070824 16.361347 16.010743 15.664062 16.695312 L 15.662109 16.697266 C 14.217433 18.12736 11.89683 18.127 10.453125 16.695312 C 9.7629849 16.004885 9.3766849 15.068023 9.3808594 14.091797 C 9.3855155 13.116394 9.7700094 12.182527 10.453125 11.486328 C 10.453125 11.486328 10.455078 11.484375 10.455078 11.484375 C 11.145447 10.794622 12.080706 10.409889 13.056641 10.414062 z "
       transform="scale(4.6153846)" />
    <path
       id="path853"
       style="color:currentColor;font-style:normal;font-variant:normal;font-weight:normal;font-stretch:normal;font-size:medium;line-height:normal;font-family:sans-serif;font-variant-ligatures:normal;font-variant-position:normal;font-variant-caps:normal;font-variant-numeric:normal;font-variant-alternates:normal;font-variant-east-asian:normal;font-feature-settings:normal;font-variation-settings:normal;text-indent:0;text-align:start;text-decoration:none;text-decoration-line:none;text-decoration-style:solid;text-decoration-color:currentColor;letter-spacing:normal;word-spacing:normal;text-transform:none;writing-mode:lr-tb;direction:ltr;text-orientation:mixed;dominant-baseline:auto;baseline-shift:baseline;text-anchor:start;white-space:normal;shape-padding:0;shape-margin:0;inline-size:0;clip-rule:nonzero;display:inline;overflow:visible;visibility:visible;isolation:auto;mix-blend-mode:normal;color-interpolation:sRGB;color-interpolation-filters:linearRGB;solid-color:currentColor;solid-opacity:1;vector-effect:none;fill:currentColor;fill-opacity:1;fill-rule:nonzero;stroke:none;stroke-width:0.422717;stroke-linecap:butt;stroke-linejoin:miter;stroke-miterlimit:4;stroke-dasharray:none;stroke-dashoffset:0;stroke-opacity:1;color-rendering:auto;image-rendering:auto;shape-rendering:auto;text-rendering:auto;enable-background:accumulate;stop-color:currentColor"
       d="M 20.269531 8.8554688 C 19.607165 8.8554688 19.064453 9.3981806 19.064453 10.060547 C 19.064453 10.722913 19.607165 11.263672 20.269531 11.263672 C 20.931897 11.263672 21.472656 10.722913 21.472656 10.060547 C 21.472656 9.3981806 20.931897 8.8554688 20.269531 8.8554688 z "
       transform="scale(4.6153846)" />
  </g>
</svg>
