<?xml version="1.0" encoding="UTF-8" standalone="no"?>
<svg
   xmlns:dc="http://purl.org/dc/elements/1.1/"
   xmlns:cc="http://creativecommons.org/ns#"
   xmlns:rdf="http://www.w3.org/1999/02/22-rdf-syntax-ns#"
   xmlns:svg="http://www.w3.org/2000/svg"
   xmlns="http://www.w3.org/2000/svg"
   xmlns:sodipodi="http://sodipodi.sourceforge.net/DTD/sodipodi-0.dtd"
   xmlns:inkscape="http://www.inkscape.org/namespaces/inkscape"
   sodipodi:docname="capture_.svg"
   inkscape:version="1.0 (4035a4f, 2020-05-01)"
   id="capture"
   version="1.1"
   viewBox="0 0 31.749999 31.750001"
   height="100%"
   width="100%">
  <g
     id="layer1"
     inkscape:groupmode="layer"
     inkscape:label="レイヤー 1">
    <g
       transform="translate(68.986481,80.282494)"
       id="g2759">
      <rect
         ry="0.08534947"
         y="-80.282494"
         x="-68.986481"
         height="31.75"
         width="31.75"
         id="rect2729"
         style="fill:none;stroke:none;stroke-width:0.532206;stroke-linecap:round;stroke-linejoin:round;stroke-miterlimit:4;stroke-dasharray:none;stroke-opacity:1" />
      <g
         id="g2120"
         style="opacity:1;fill:currentColor"
         transform="matrix(0.04524607,0,0,0.04524607,-64.694475,-75.990488)">
        <path
           id="path2112"
           style="fill:currentColor"
           d="M 78.01,78.01 V 512 H 512 V 78.01 Z M 472.987,472.987 H 117.022 V 117.022 h 355.965 z"
           class="st0" />
        <path
           id="path2114"
           style="fill:currentColor"
           d="m 142.17,404.714 h 305.67 c 3.055,0 5.859,-1.676 7.306,-4.366 1.448,-2.681 1.303,-5.95 -0.381,-8.494 L 359.911,248.138 c -3.84,-5.82 -10.346,-9.316 -17.324,-9.316 -6.971,0.015 -13.476,3.519 -17.308,9.355 L 258.46,349.863 221.581,308.062 c -4.281,-4.845 -10.574,-7.427 -17.019,-6.962 -6.452,0.457 -12.319,3.901 -15.861,9.301 l -53.464,81.469 c -1.676,2.552 -1.813,5.805 -0.365,8.487 1.447,2.688 4.251,4.357 7.298,4.357 z"
           class="st0" />
        <path
           id="path2116"
           style="fill:currentColor"
           d="m 220.065,269.4 c 23.228,0 42.053,-18.824 42.053,-42.052 0,-23.228 -18.825,-42.052 -42.053,-42.052 -23.228,0 -42.06,18.824 -42.06,42.052 0,23.228 18.832,42.052 42.06,42.052 z"
           class="st0" />
        <polygon
           id="polygon2118"
           style="fill:currentColor"
           points="39.013,433.99 39.013,394.978 39.013,39.013 394.978,39.013 433.99,39.013 433.99,0 0,0 0,433.99 "
           class="st0" />
      </g>
    </g>
  </g>
</svg>
