<?xml version="1.0" encoding="UTF-8" standalone="no"?>
<!-- Svg Vector Icons : http://www.onlinewebfonts.com/icon -->

<svg
   version="1.1"
   x="0px"
   y="0px"
   viewBox="0 0 256 256"
   enable-background="new 0 0 256 256"
   xml:space="preserve"
   id="svg433"
   sodipodi:docname="crop.svg"
   inkscape:version="1.2.2 (b0a84865, 2022-12-01)"
   xmlns:inkscape="http://www.inkscape.org/namespaces/inkscape"
   xmlns:sodipodi="http://sodipodi.sourceforge.net/DTD/sodipodi-0.dtd"
   xmlns="http://www.w3.org/2000/svg"
   xmlns:svg="http://www.w3.org/2000/svg"><defs
   id="defs437" /><sodipodi:namedview
   id="namedview435"
   pagecolor="#ffffff"
   bordercolor="#000000"
   borderopacity="0.25"
   inkscape:showpageshadow="2"
   inkscape:pageopacity="0.0"
   inkscape:pagecheckerboard="0"
   inkscape:deskcolor="#d1d1d1"
   showgrid="false"
   inkscape:zoom="0.87988281"
   inkscape:cx="123.31188"
   inkscape:cy="341.52275"
   inkscape:window-width="1652"
   inkscape:window-height="1051"
   inkscape:window-x="0"
   inkscape:window-y="38"
   inkscape:window-maximized="0"
   inkscape:current-layer="svg433" />
<metadata
   id="metadata421"> Svg Vector Icons : http://www.onlinewebfonts.com/icon </metadata>
<g
   id="g431"
   transform="matrix(0.87479072,0,0,0.87479072,16.026788,16.026788)"><g
     id="g429"><g
       id="g427"><path
         fill="#000000"
         d="M 52.9,31.3 52.7,52.7 31.4,52.9 10,53 v 10.7 10.8 h 85.7 85.7 V 128 181.5 H 128 74.5 V 138.8 96 H 63.8 53 l 0.1,45.7 0.2,45.8 1.7,3.5 c 2,4.2 6.3,8.3 10.5,10.3 l 3,1.4 88.8,0.2 88.7,0.1 V 192.2 181.4 H 224.5 203 l -0.1,-56.5 -0.2,-56.5 -1.8,-3.5 c -2.2,-4.3 -6.2,-8.3 -10.4,-10.3 l -3,-1.4 L 131,53.1 74.5,53 V 31.5 10 H 63.8 53 Z"
         id="path423" /><path
         fill="#000000"
         d="m 181.9,224.9 c -0.2,0.2 -0.4,5 -0.4,10.8 V 246 h 10.8 10.7 v -10.8 -10.8 h -10.4 c -5.7,0.1 -10.6,0.3 -10.7,0.5 z"
         id="path425" /></g></g></g>
</svg>
