<?xml version="1.0" encoding="UTF-8" standalone="no"?>
<!-- Uploaded to: SVG Repo, www.svgrepo.com, Generator: SVG Repo Mixer Tools -->

<svg
   fill="currentColor"
   height="100%"
   width="100%"
   version="1.1"
   id="delete"
   viewBox="0 0 380.598 380.598"
   xml:space="preserve"
   sodipodi:docname="delete.svg"
   inkscape:version="1.2.2 (b0a84865, 2022-12-01)"
   xmlns:inkscape="http://www.inkscape.org/namespaces/inkscape"
   xmlns:sodipodi="http://sodipodi.sourceforge.net/DTD/sodipodi-0.dtd"
   xmlns="http://www.w3.org/2000/svg"
   xmlns:svg="http://www.w3.org/2000/svg">
<g
   id="g367"
   transform="matrix(0.80470767,0,0,0.80470767,37.163935,37.163838)">
	<path
   d="m 322.383,90.222 h -2.84 l 0.436,-11.816 C 320.347,68.402 316.725,58.925 309.778,51.717 302.832,44.51 293.494,40.541 283.484,40.541 H 235.021 V 22.934 C 235.021,10.288 224.732,0 212.087,0 H 168.511 C 155.865,0 145.578,10.288 145.578,22.934 V 40.54 H 97.114 c -10.01,0 -19.348,3.97 -26.294,11.177 -6.947,7.207 -10.569,16.686 -10.2,26.688 l 0.436,11.816 h -2.841 c -8.284,0 -15,6.716 -15,15 0,8.284 6.716,15 15,15 h 3.948 l 8.309,225.202 c 0.728,19.724 16.758,35.174 36.494,35.174 h 166.667 c 19.736,0 35.766,-15.45 36.494,-35.174 l 8.309,-225.202 h 3.947 c 8.284,0 15,-6.716 15,-15 0,-8.284 -6.716,-14.999 -15,-14.999 z M 175.578,30 h 29.443 V 40.54 H 175.578 Z M 90.599,77.3 c -0.089,-2.41 1.103,-4.02 1.821,-4.765 0.718,-0.745 2.283,-1.995 4.694,-1.995 h 186.37 c 2.411,0 3.976,1.25 4.694,1.995 0.718,0.745 1.909,2.355 1.82,4.765 l -0.477,12.922 H 91.076 Z m 189.548,267.018 c -0.131,3.521 -2.992,6.279 -6.515,6.279 H 257.918 V 226.13 c 0,-8.284 -6.716,-15 -15,-15 -8.284,0 -15,6.716 -15,15 v 124.468 h -22.62 V 226.13 c 0,-8.284 -6.716,-15 -15,-15 -8.284,0 -15,6.716 -15,15 V 350.598 H 152.677 V 226.13 c 0,-8.284 -6.716,-15 -15,-15 -8.284,0 -15,6.716 -15,15 v 124.468 h -15.713 c -3.523,0 -6.385,-2.758 -6.515,-6.279 L 92.181,120.222 h 196.232 z"
   id="path365" />
</g>
</svg>
