<?xml version="1.0" encoding="UTF-8" standalone="no"?>
<!-- Svg Vector Icons : http://www.onlinewebfonts.com/icon -->

<svg
   version="1.1"
   x="0px"
   y="0px"
   viewBox="0 0 16 16"
   enable-background="new 0 0 256 256"
   xml:space="preserve"
   id="svg194"
   sodipodi:docname="dropper.svg"
   width="16"
   height="16"
   inkscape:version="1.2.2 (b0a84865, 2022-12-01)"
   xmlns:inkscape="http://www.inkscape.org/namespaces/inkscape"
   xmlns:sodipodi="http://sodipodi.sourceforge.net/DTD/sodipodi-0.dtd"
   xmlns="http://www.w3.org/2000/svg"
   xmlns:svg="http://www.w3.org/2000/svg"><defs
   id="defs198" /><sodipodi:namedview
   id="namedview196"
   pagecolor="#ffffff"
   bordercolor="#000000"
   borderopacity="0.25"
   inkscape:showpageshadow="2"
   inkscape:pageopacity="0.0"
   inkscape:pagecheckerboard="0"
   inkscape:deskcolor="#d1d1d1"
   showgrid="false"
   inkscape:zoom="14.078125"
   inkscape:cx="21.984462"
   inkscape:cy="-1.3851276"
   inkscape:window-width="1652"
   inkscape:window-height="1051"
   inkscape:window-x="0"
   inkscape:window-y="38"
   inkscape:window-maximized="0"
   inkscape:current-layer="svg194" />
<metadata
   id="metadata182"> Svg Vector Icons : http://www.onlinewebfonts.com/icon </metadata>
<path
   style="stroke-width:0.0677966;fill:#1a1a1a"
   d="m 14.311864,1.6686717 c 0.705085,0.7118644 1.091526,1.1254237 1.105085,1.1864407 0.01356,0.061017 0.01356,0.1491525 0,0.2033898 -0.01356,0.067797 -0.420339,0.5016949 -1.152542,1.2338983 l -1.125424,1.1389831 v 0.6644067 c 0,0.4881356 -0.01356,0.6983051 -0.05424,0.7864407 -0.02712,0.067797 -0.264407,0.3254237 -0.522034,0.5830509 -0.447458,0.4406779 -0.481356,0.4677966 -0.616949,0.4677966 -0.135594,0 -0.183051,-0.040678 -1.9932207,-1.8576271 C 8.1898305,4.3195192 8.0949152,4.2178242 8.0949152,4.0890107 c 0,-0.088136 0.033898,-0.1762712 0.1084746,-0.2711865 C 8.3525424,3.6144344 8.9762712,3.0246039 9.1118644,2.9500276 9.2067796,2.90257 9.3559322,2.8890107 9.918644,2.8890107 h 0.684746 l 1.152542,-1.1525424 1.152543,-1.15254235 h 0.162711 0.162712 z"
   id="path588" /><path
   style="stroke-width:0.0677966;fill:#1a1a1a"
   d="M 12.657627,0.06189205 C 12.522034,0.10934967 12.311864,0.29918018 11.416949,1.1940954 L 10.338983,2.2652819 9.7016949,2.2788412 C 9.0779661,2.2924005 9.0576271,2.2924005 8.8474576,2.3940954 8.5694915,2.5296887 7.7898305,3.2754514 7.6406779,3.5534175 7.5050847,3.7974853 7.4779661,4.1093497 7.5661017,4.4144344 c 0.061017,0.2169492 0.074576,0.2237288 1.9118644,2.0677966 1.2813559,1.2813559 1.8983049,1.8779661 2.0067799,1.9254237 0.223729,0.1084746 0.528813,0.1288136 0.79322,0.054237 0.20339,-0.061017 0.250848,-0.1016949 0.718644,-0.5559322 0.4,-0.4 0.528814,-0.5491525 0.623729,-0.738983 0.115254,-0.2305085 0.115254,-0.2440678 0.128814,-0.861017 L 13.762712,5.682231 14.80678,4.6178242 C 15.986441,3.4313836 16,3.4178242 16,2.9364683 16,2.4890107 15.952542,2.4279937 14.711864,1.2008751 13.755932,0.24494289 13.6,0.10934967 13.444068,0.05511239 13.220339,-0.01946388 12.874576,-0.01946388 12.657627,0.06189205 Z"
   id="path184" /><path
   fill="#000000"
   d="M 4.2915254,8.3127395 C 1.559322,11.051723 1.1932203,11.431384 1.1118644,11.614434 1.0372884,11.790706 1.0237284,11.885621 1.0033898,12.461892 L 0.9830508,13.10596 0.57627114,13.519519 C 0.04067797,14.055112 0,14.150028 0,14.712739 c 0,0.40678 0.00677966,0.427119 0.1220339,0.650848 0.14915254,0.271186 0.30508474,0.420339 0.5898305,0.549152 0.17627119,0.08136 0.25084746,0.09492 0.5830509,0.09492 0.5355932,0 0.6847457,-0.07458 1.2203389,-0.60339 l 0.4067797,-0.4 0.6372881,-0.01356 c 0.6169492,-0.01356 0.6440678,-0.01356 0.861017,-0.115255 0.1966101,-0.08813 0.5830508,-0.467796 3.3016949,-3.179661 L 10.8,8.6246039 10.576271,8.4144344 10.359322,8.1974852 7.3152542,11.234773 c -1.6677966,1.667797 -3.0915254,3.064407 -3.159322,3.091526 -0.094915,0.04746 -0.2508475,0.06102 -0.8067797,0.06102 H 2.6644068 L 2.2101695,14.848333 C 1.959322,15.09918 1.6881356,15.343248 1.6067797,15.383926 1.3423729,15.526299 0.97627118,15.458502 0.75932203,15.221214 0.66440678,15.119519 0.53559322,14.834773 0.52881356,14.733078 c 0,-0.244067 0.0813559,-0.366101 0.58983054,-0.874576 l 0.5084745,-0.515254 v -0.711864 c 0,-0.596611 0.013559,-0.725424 0.061017,-0.8 0.033898,-0.05424 1.4305085,-1.464407 3.0983051,-3.1322038 L 7.8237288,5.6551124 7.6067796,5.4381632 7.3898305,5.2212141 Z"
   id="path186"
   style="stroke-width:0.0677966" />
</svg>
