<?xml version="1.0" encoding="UTF-8" standalone="no"?>
<svg
   xmlns:dc="http://purl.org/dc/elements/1.1/"
   xmlns:cc="http://creativecommons.org/ns#"
   xmlns:rdf="http://www.w3.org/1999/02/22-rdf-syntax-ns#"
   xmlns:svg="http://www.w3.org/2000/svg"
   xmlns="http://www.w3.org/2000/svg"
   xmlns:sodipodi="http://sodipodi.sourceforge.net/DTD/sodipodi-0.dtd"
   xmlns:inkscape="http://www.inkscape.org/namespaces/inkscape"
   sodipodi:docname="eraser___.svg"
   inkscape:version="1.0 (4035a4f, 2020-05-01)"
   id="svg8"
   version="1.1"
   viewBox="0 0 31.749999 31.750001"
   height="120"
   width="120">
  <defs
     id="defs2" />
  <sodipodi:namedview
     inkscape:snap-global="false"
     inkscape:window-maximized="0"
     inkscape:window-y="25"
     inkscape:window-x="1940"
     inkscape:window-height="1027"
     inkscape:window-width="1663"
     borderlayer="true"
     inkscape:showpageshadow="false"
     units="px"
     showgrid="false"
     inkscape:document-rotation="0"
     inkscape:current-layer="layer1"
     inkscape:document-units="px"
     inkscape:cy="-105.9071"
     inkscape:cx="-120.75236"
     inkscape:zoom="0.48030883"
     inkscape:pageshadow="2"
     inkscape:pageopacity="0.0"
     borderopacity="1.0"
     bordercolor="#666666"
     pagecolor="#ffffff"
     id="base"
     inkscape:snap-bbox="true"
     inkscape:bbox-paths="true"
     inkscape:bbox-nodes="true"
     inkscape:snap-bbox-edge-midpoints="true"
     inkscape:snap-bbox-midpoints="true" />
  <metadata
     id="metadata5">
    <rdf:RDF>
      <cc:Work
         rdf:about="">
        <dc:format>image/svg+xml</dc:format>
        <dc:type
           rdf:resource="http://purl.org/dc/dcmitype/StillImage" />
        <dc:title></dc:title>
      </cc:Work>
    </rdf:RDF>
  </metadata>
  <g
     id="layer1"
     inkscape:groupmode="layer"
     inkscape:label="レイヤー 1">
    <path
       id="path844"
       style="color:#000000;font-style:normal;font-variant:normal;font-weight:normal;font-stretch:normal;font-size:medium;line-height:normal;font-family:sans-serif;font-variant-ligatures:normal;font-variant-position:normal;font-variant-caps:normal;font-variant-numeric:normal;font-variant-alternates:normal;font-variant-east-asian:normal;font-feature-settings:normal;font-variation-settings:normal;text-indent:0;text-align:start;text-decoration:none;text-decoration-line:none;text-decoration-style:solid;text-decoration-color:#000000;letter-spacing:normal;word-spacing:normal;text-transform:none;writing-mode:lr-tb;direction:ltr;text-orientation:mixed;dominant-baseline:auto;baseline-shift:baseline;text-anchor:start;white-space:normal;shape-padding:0;shape-margin:0;inline-size:0;clip-rule:nonzero;display:inline;overflow:visible;visibility:visible;isolation:auto;mix-blend-mode:normal;color-interpolation:sRGB;color-interpolation-filters:linearRGB;solid-color:#000000;solid-opacity:1;vector-effect:none;fill:#000000;fill-opacity:1;fill-rule:nonzero;stroke:none;stroke-width:1.82636;stroke-linecap:round;stroke-linejoin:round;stroke-miterlimit:4;stroke-dasharray:none;stroke-dashoffset:0;stroke-opacity:1;color-rendering:auto;image-rendering:auto;shape-rendering:auto;text-rendering:auto;enable-background:accumulate;stop-color:#000000"
       d="M 17.994706,2.8939236 C 17.1256,2.8936083 16.256319,3.2225772 15.597953,3.8809435 L 2.6385372,16.840359 c -1.3167326,1.316732 -1.3167321,3.47729 0,4.794022 l 5.7469359,5.746937 1.0784871,1.078486 0.9875368,0.987536 h 1.409216 17.185514 c 0.572206,0 1.032497,-0.460803 1.032497,-1.03301 0,-0.572206 -0.460378,-1.043064 -1.032497,-1.033012 H 15.33647 L 27.217398,15.500389 c 1.316733,-1.316733 1.315738,-3.476773 -10e-4,-4.793506 L 20.391458,3.8819769 C 19.733093,3.2236109 18.863811,2.8942389 17.994706,2.8939236 Z m 0,1.8112588 c 0.396667,3.152e-4 0.79355,0.156381 1.105358,0.4681884 l 6.824907,6.8249062 c 0.623617,0.623617 0.62461,1.586584 0.001,2.210201 l -6.480224,6.480225 -9.036141,-9.036141 6.479708,-6.4802246 c 0.311808,-0.3118083 0.708691,-0.4674701 1.105359,-0.467155 z" />
    <g
       transform="translate(-3.1161423,-9.3830423)"
       id="g2772">
      <rect
         ry="0.08534947"
         y="-4.3265905"
         x="-67.817924"
         height="31.75"
         width="31.75"
         id="rect2733"
         style="fill:none;stroke:none;stroke-width:0.532206;stroke-linecap:round;stroke-linejoin:round;stroke-miterlimit:4;stroke-dasharray:none;stroke-opacity:1" />
      <g
         id="g863"
         transform="matrix(0.94132319,0,0,0.94132319,-28.734739,-5.7816864)">
        <path
           d="m -33.008957,7.5760861 a 10.522453,10.522453 0 0 0 -1.339407,14.8205649 10.522453,10.522453 0 0 0 12.923016,2.601603 l 4.899003,5.872473 c 0.804033,0.963801 2.227301,1.092429 3.191102,0.288396 0.9638,-0.804032 1.092429,-2.227301 0.288396,-3.191103 L -17.94585,22.095547 A 10.522453,10.522453 0 0 0 -18.188392,8.915493 10.522453,10.522453 0 0 0 -33.008957,7.5760861 Z m 1.272897,1.5608655 a 8.5085858,8.5085858 0 0 1 0.01724,-0.014376 8.5085858,8.5085858 0 0 1 11.983945,1.0830474 8.5085858,8.5085858 0 0 1 -1.083047,11.983944 8.5085858,8.5085858 0 0 1 -11.984358,-1.082703 8.5085858,8.5085858 0 0 1 1.066226,-11.969912 z"
           style="fill:#000000;stroke-width:2.1887;stroke-linecap:round;stroke-linejoin:round"
           id="path836" />
        <rect
           ry="0.77885592"
           y="15.075162"
           x="-31.648293"
           height="1.5577118"
           width="10.663175"
           id="rect855"
           style="fill:#000000;stroke-width:2.22049;stroke-linecap:round;stroke-linejoin:round" />
      </g>
    </g>
    <g
       transform="translate(-2.7266235,-4.8271306)"
       id="g2766">
      <rect
         style="fill:none;stroke:none;stroke-width:0.532206;stroke-linecap:round;stroke-linejoin:round;stroke-miterlimit:4;stroke-dasharray:none;stroke-opacity:1"
         id="rect2731"
         width="31.75"
         height="31.75"
         x="-68.207443"
         y="-43.278336"
         ry="0.08534947" />
      <g
         id="g878"
         transform="matrix(0.93580766,0,0,0.93580766,-1.0366281,-44.245264)">
        <path
           id="path865"
           style="fill:#000000;stroke-width:2.1887;stroke-linecap:round;stroke-linejoin:round"
           d="m -63.168589,7.1629405 a 10.522453,10.522453 0 0 0 -1.339407,14.8205645 10.522453,10.522453 0 0 0 12.923016,2.601603 l 4.899003,5.872473 c 0.804033,0.963801 2.227301,1.092429 3.191102,0.288396 0.9638,-0.804032 1.092429,-2.227301 0.288396,-3.191103 l -4.899003,-5.872473 A 10.522453,10.522453 0 0 0 -48.348024,8.5023473 10.522453,10.522453 0 0 0 -63.168589,7.1629405 Z m 1.272897,1.5608654 a 8.5085858,8.5085858 0 0 1 0.01724,-0.014376 8.5085858,8.5085858 0 0 1 11.983945,1.0830474 8.5085858,8.5085858 0 0 1 -1.083047,11.9839437 8.5085858,8.5085858 0 0 1 -11.984358,-1.082703 8.5085858,8.5085858 0 0 1 1.066226,-11.9699117 z" />
        <rect
           style="fill:#000000;stroke-width:2.22049;stroke-linecap:round;stroke-linejoin:round"
           id="rect867"
           width="10.663175"
           height="1.5577118"
           x="-61.807926"
           y="14.662016"
           ry="0.77885592" />
        <rect
           transform="rotate(90)"
           ry="0.77885592"
           y="55.697483"
           x="10.109284"
           height="1.5577118"
           width="10.663175"
           id="rect873"
           style="fill:#000000;stroke-width:2.22049;stroke-linecap:round;stroke-linejoin:round" />
      </g>
    </g>
    <g
       transform="translate(137.88918,-3.5056571)"
       id="g955">
      <path
         id="path915"
         style="color:#000000;font-style:normal;font-variant:normal;font-weight:normal;font-stretch:normal;font-size:medium;line-height:normal;font-family:sans-serif;font-variant-ligatures:normal;font-variant-position:normal;font-variant-caps:normal;font-variant-numeric:normal;font-variant-alternates:normal;font-variant-east-asian:normal;font-feature-settings:normal;font-variation-settings:normal;text-indent:0;text-align:start;text-decoration:none;text-decoration-line:none;text-decoration-style:solid;text-decoration-color:#000000;letter-spacing:normal;word-spacing:normal;text-transform:none;writing-mode:lr-tb;direction:ltr;text-orientation:mixed;dominant-baseline:auto;baseline-shift:baseline;text-anchor:start;white-space:normal;shape-padding:0;shape-margin:0;inline-size:0;clip-rule:nonzero;display:inline;overflow:visible;visibility:visible;opacity:1;isolation:auto;mix-blend-mode:normal;color-interpolation:sRGB;color-interpolation-filters:linearRGB;solid-color:#000000;solid-opacity:1;vector-effect:none;fill:#000000;fill-opacity:1;fill-rule:nonzero;stroke:none;stroke-width:8.78899;stroke-linecap:round;stroke-linejoin:round;stroke-miterlimit:4;stroke-dasharray:none;stroke-dashoffset:0;stroke-opacity:1;color-rendering:auto;image-rendering:auto;shape-rendering:auto;text-rendering:auto;enable-background:accumulate;stop-color:#000000;stop-opacity:1"
         d="m -376.01758,76.34375 c -2.19775,-0.0044 -4.39648,1.273563 -4.39648,3.849609 v 34.384761 c 0,3.90555 3.2839,7.18946 7.18945,7.18946 h 73.31641 c 3.90556,0 7.18945,-3.2839 7.18945,-7.18946 V 80.193359 c 0,-5.152093 -8.79102,-5.117023 -8.79102,0 v 32.783201 h -70.11328 V 80.193359 c 0,-2.558511 -2.19677,-3.845225 -4.39453,-3.849609 z"
         transform="scale(0.26458333)" />
      <path
         id="path941"
         style="color:#000000;font-style:normal;font-variant:normal;font-weight:normal;font-stretch:normal;font-size:medium;line-height:normal;font-family:sans-serif;font-variant-ligatures:normal;font-variant-position:normal;font-variant-caps:normal;font-variant-numeric:normal;font-variant-alternates:normal;font-variant-east-asian:normal;font-feature-settings:normal;font-variation-settings:normal;text-indent:0;text-align:start;text-decoration:none;text-decoration-line:none;text-decoration-style:solid;text-decoration-color:#000000;letter-spacing:normal;word-spacing:normal;text-transform:none;writing-mode:lr-tb;direction:ltr;text-orientation:mixed;dominant-baseline:auto;baseline-shift:baseline;text-anchor:start;white-space:normal;shape-padding:0;shape-margin:0;inline-size:0;clip-rule:nonzero;display:inline;overflow:visible;visibility:visible;opacity:1;isolation:auto;mix-blend-mode:normal;color-interpolation:sRGB;color-interpolation-filters:linearRGB;solid-color:#000000;solid-opacity:1;vector-effect:none;fill:#000000;fill-opacity:1;fill-rule:nonzero;stroke:none;stroke-width:2.11852;stroke-linecap:round;stroke-linejoin:miter;stroke-miterlimit:4;stroke-dasharray:none;stroke-dashoffset:0;stroke-opacity:1;color-rendering:auto;image-rendering:auto;shape-rendering:auto;text-rendering:auto;enable-background:accumulate;stop-color:#000000;stop-opacity:1"
         d="m -89.049286,7.1266967 a 1.0592594,1.0592594 0 0 0 -1.0604,1.060917 V 22.593969 l -3.3538,-3.3538 c -0.344998,-0.343574 -0.863285,-0.331042 -1.251603,-0.0646 l -0.07855,-0.01757 -0.08165,0.08423 c -0.38731,0.388381 -0.389077,1.023167 -0.0021,1.4118 l 5.109247,5.109766 c 0.189143,0.188476 0.447799,0.290722 0.714687,0.288871 0.270304,0.0036 0.529992,-0.101492 0.720887,-0.293005 l 5.10718,-5.105632 c 0.38911,-0.388009 0.389729,-1.024457 0.0021,-1.413867 -0.19448,-0.19497 -0.450128,-0.293005 -0.706933,-0.293005 -0.256804,0 -0.514522,0.09804 -0.709001,0.293005 l -3.351734,3.351733 V 8.1876137 a 1.0592594,1.0592594 0 0 0 -1.058333,-1.060917 z" />
    </g>
    <g
       transform="translate(-3.1161423,-9.0281525)"
       id="g2799">
      <rect
         style="fill:none;stroke:none;stroke-width:0.532206;stroke-linecap:round;stroke-linejoin:round;stroke-miterlimit:4;stroke-dasharray:none;stroke-opacity:1"
         id="rect2739"
         width="31.75"
         height="31.75"
         x="-67.817924"
         y="98.50602"
         ry="0.08534947" />
      <g
         id="g977"
         transform="matrix(1.3222477,0,0,1.3222477,117.31232,82.699358)"
         style="stroke-width:1.60081;stroke-miterlimit:4;stroke-dasharray:none">
        <g
           id="g963"
           style="stroke-width:1.60081;stroke-miterlimit:4;stroke-dasharray:none">
          <path
             style="fill:none;stroke:#000000;stroke-width:1.60081;stroke-linecap:round;stroke-linejoin:miter;stroke-miterlimit:4;stroke-dasharray:none;stroke-opacity:1"
             d="m -136.20035,19.727703 c 6.57446,-3.584111 11.13963,-2.222267 15.35525,0"
             id="path957"
             sodipodi:nodetypes="cc" />
          <path
             style="fill:none;stroke:#000000;stroke-width:1.60081;stroke-linecap:round;stroke-linejoin:round;stroke-miterlimit:4;stroke-dasharray:none;stroke-opacity:1"
             d="m -124.14443,21.100072 h 4.33338 v -4.33338"
             id="path959" />
        </g>
        <g
           transform="rotate(180,-128.0057,23.960459)"
           id="g969"
           style="stroke-width:1.60081;stroke-miterlimit:4;stroke-dasharray:none">
          <path
             sodipodi:nodetypes="cc"
             id="path965"
             d="m -136.20035,19.727703 c 6.57446,-3.584111 11.13963,-2.222267 15.35525,0"
             style="fill:none;stroke:#000000;stroke-width:1.60081;stroke-linecap:round;stroke-linejoin:miter;stroke-miterlimit:4;stroke-dasharray:none;stroke-opacity:1" />
          <path
             id="path967"
             d="m -124.14443,21.100072 h 4.33338 v -4.33338"
             style="fill:none;stroke:#000000;stroke-width:1.60081;stroke-linecap:round;stroke-linejoin:round;stroke-miterlimit:4;stroke-dasharray:none;stroke-opacity:1" />
        </g>
      </g>
    </g>
    <g
       transform="translate(100.10598,49.468716)"
       id="g1227">
      <path
         id="path1066"
         style="color:#000000;font-style:normal;font-variant:normal;font-weight:normal;font-stretch:normal;font-size:medium;line-height:normal;font-family:sans-serif;font-variant-ligatures:normal;font-variant-position:normal;font-variant-caps:normal;font-variant-numeric:normal;font-variant-alternates:normal;font-variant-east-asian:normal;font-feature-settings:normal;font-variation-settings:normal;text-indent:0;text-align:start;text-decoration:none;text-decoration-line:none;text-decoration-style:solid;text-decoration-color:#000000;letter-spacing:normal;word-spacing:normal;text-transform:none;writing-mode:lr-tb;direction:ltr;text-orientation:mixed;dominant-baseline:auto;baseline-shift:baseline;text-anchor:start;white-space:normal;shape-padding:0;shape-margin:0;inline-size:0;clip-rule:nonzero;display:inline;overflow:visible;visibility:visible;isolation:auto;mix-blend-mode:normal;color-interpolation:sRGB;color-interpolation-filters:linearRGB;solid-color:#000000;solid-opacity:1;vector-effect:none;fill:#000000;fill-opacity:1;fill-rule:nonzero;stroke:none;stroke-width:1.97328;stroke-linecap:round;stroke-linejoin:round;stroke-miterlimit:4;stroke-dasharray:none;stroke-dashoffset:0;stroke-opacity:1;color-rendering:auto;image-rendering:auto;shape-rendering:auto;text-rendering:auto;enable-background:accumulate;stop-color:#000000"
         d="m 8.7209147,38.052975 c -0.9327724,0 -1.6546795,0.805823 -1.6546795,1.697053 v 9.056812 c 0,1.056587 1.9745565,1.082408 1.9745565,0 V 40.025462 H 20.796663 v 5.855457 c -2.91e-4,0.460761 0.373297,0.834356 0.834058,0.834059 h 4.85965 V 63.734611 H 9.0407917 v -4.393015 c 0,-1.039728 -1.9745565,-1.025933 -1.9745565,0 v 4.669999 c 0,0.891228 0.7219071,1.697572 1.6546795,1.697572 H 26.8087 c 0.93277,0 1.654161,-0.806342 1.654161,-1.697572 V 45.880919 c 5.8e-5,-0.234897 -0.08368,-0.462108 -0.236162,-0.640786 L 22.381063,38.39869 C 22.193551,38.179253 21.91936,38.052922 21.630721,38.052975 Z m 13.7438633,3.480925 3.000851,3.512962 h -3.000851 z"
         sodipodi:nodetypes="sssccccccccccssssccccscccc" />
      <path
         d="M 4.9206913,50.049133 H 21.246879 c 0.330215,0 0.596057,0.265842 0.596057,0.596057 v 6.858266 c 0,0.330216 -0.265842,0.596057 -0.596057,0.596057 H 4.9206913 c -0.3302155,0 -0.5960567,-0.265841 -0.5960567,-0.596057 V 50.64519 c 0,-0.330215 0.2658412,-0.596057 0.5960567,-0.596057 z"
         style="fill:#000000;stroke:#000000;stroke-width:0.318135;stroke-linecap:round;stroke-linejoin:round;stroke-miterlimit:4;stroke-dasharray:none;stroke-opacity:1"
         id="rect1033" />
      <g
         id="g1219"
         transform="translate(-0.20657335,0.086077)">
        <path
           d="m 7.2536431,51.227433 c -0.352589,0 -0.6541188,0.06022 -0.8629967,0.197403 -0.208878,0.137178 -0.3012731,0.336883 -0.3012731,0.568441 v 4.425569 c 0,0.09966 0.027686,0.192694 0.1183375,0.269235 0.090652,0.07654 0.2432209,0.115239 0.3855059,0.115239 0.1422876,0 0.2948596,-0.03869 0.3855058,-0.115239 0.090652,-0.07654 0.1183402,-0.169579 0.1183402,-0.269235 v -2.032434 h 0.901237 c 0.6296898,0 1.1899662,-0.153363 1.6386598,-0.448034 0.4067545,-0.267129 0.6004815,-0.654871 0.6004815,-1.131713 0,-0.476846 -0.193727,-0.863034 -0.6004815,-1.130165 -0.4486936,-0.294672 -1.00897,-0.449067 -1.6386598,-0.449067 z m 0.084233,0.661458 h 0.6604238 c 0.2898986,0 0.5817605,0.07959 0.8919342,0.262517 0.2199905,0.130024 0.3420983,0.335995 0.3420983,0.655257 0,0.319262 -0.1221131,0.52678 -0.3420983,0.656807 -0.3101737,0.182917 -0.6020356,0.263033 -0.8919342,0.263033 H 7.0970627 V 52.04702 c 0,-0.07614 0.025241,-0.108384 0.050644,-0.125056 0.025374,-0.01667 0.074231,-0.03307 0.1901693,-0.03307 z"
           style="color:#000000;font-style:normal;font-variant:normal;font-weight:normal;font-stretch:normal;font-size:8.57661px;line-height:1.25;font-family:'EPSON 丸ゴシック体Ｍ';-inkscape-font-specification:'EPSON 丸ゴシック体Ｍ, Normal';font-variant-ligatures:normal;font-variant-position:normal;font-variant-caps:normal;font-variant-numeric:normal;font-variant-alternates:normal;font-variant-east-asian:normal;font-feature-settings:normal;font-variation-settings:normal;text-indent:0;text-align:start;text-decoration:none;text-decoration-line:none;text-decoration-style:solid;text-decoration-color:#000000;letter-spacing:normal;word-spacing:normal;text-transform:none;writing-mode:lr-tb;direction:ltr;text-orientation:mixed;dominant-baseline:auto;baseline-shift:baseline;text-anchor:start;white-space:normal;shape-padding:0;shape-margin:0;inline-size:0;clip-rule:nonzero;display:inline;overflow:visible;visibility:visible;isolation:auto;mix-blend-mode:normal;color-interpolation:sRGB;color-interpolation-filters:linearRGB;solid-color:#000000;solid-opacity:1;vector-effect:none;fill:#ffffff;fill-opacity:1;fill-rule:nonzero;stroke:none;stroke-width:0.346604;stroke-linecap:butt;stroke-linejoin:miter;stroke-miterlimit:4;stroke-dasharray:none;stroke-dashoffset:0;stroke-opacity:1;color-rendering:auto;image-rendering:auto;shape-rendering:auto;text-rendering:auto;enable-background:accumulate;stop-color:#000000"
           id="path994" />
        <path
           d="m 11.470187,51.173172 c -0.211148,0 -0.393978,0.107794 -0.474906,0.237712 -0.08092,0.129919 -0.110588,0.29155 -0.110588,0.500227 v 4.507735 c 0,0.09966 0.02717,0.192694 0.117825,0.269235 0.09065,0.07654 0.243734,0.115239 0.386021,0.115239 0.142285,0 0.294857,-0.03869 0.385506,-0.115239 0.09065,-0.07654 0.117822,-0.169579 0.117822,-0.269235 v -3.578592 l 2.275313,3.632337 c 0.0572,0.09014 0.117301,0.162507 0.197406,0.221692 0.08011,0.05918 0.19617,0.109037 0.330211,0.109037 0.142086,0 0.297852,-0.05524 0.371554,-0.135908 0.0737,-0.08067 0.09147,-0.172442 0.09147,-0.276987 v -4.832263 c 0,-0.09966 -0.02769,-0.192693 -0.118337,-0.269235 -0.09065,-0.07654 -0.243218,-0.115755 -0.385506,-0.115755 -0.142288,0 -0.29486,0.03922 -0.385506,0.115755 -0.09065,0.07654 -0.11834,0.16958 -0.11834,0.269235 v 3.236495 l -2.067573,-3.234944 v -0.0016 c -0.06754,-0.108159 -0.141431,-0.196149 -0.236162,-0.264583 -0.09515,-0.06874 -0.229129,-0.120407 -0.376206,-0.120407 z"
           style="color:#000000;font-style:normal;font-variant:normal;font-weight:normal;font-stretch:normal;font-size:8.57661px;line-height:1.25;font-family:'EPSON 丸ゴシック体Ｍ';-inkscape-font-specification:'EPSON 丸ゴシック体Ｍ, Normal';font-variant-ligatures:normal;font-variant-position:normal;font-variant-caps:normal;font-variant-numeric:normal;font-variant-alternates:normal;font-variant-east-asian:normal;font-feature-settings:normal;font-variation-settings:normal;text-indent:0;text-align:start;text-decoration:none;text-decoration-line:none;text-decoration-style:solid;text-decoration-color:#000000;letter-spacing:normal;word-spacing:normal;text-transform:none;writing-mode:lr-tb;direction:ltr;text-orientation:mixed;dominant-baseline:auto;baseline-shift:baseline;text-anchor:start;white-space:normal;shape-padding:0;shape-margin:0;inline-size:0;clip-rule:nonzero;display:inline;overflow:visible;visibility:visible;isolation:auto;mix-blend-mode:normal;color-interpolation:sRGB;color-interpolation-filters:linearRGB;solid-color:#000000;solid-opacity:1;vector-effect:none;fill:#ffffff;fill-opacity:1;fill-rule:nonzero;stroke:none;stroke-width:0.346604;stroke-linecap:butt;stroke-linejoin:miter;stroke-miterlimit:4;stroke-dasharray:none;stroke-dashoffset:0;stroke-opacity:1;color-rendering:auto;image-rendering:auto;shape-rendering:auto;text-rendering:auto;enable-background:accumulate;stop-color:#000000"
           id="path1000" />
        <path
           d="m 18.334368,51.146301 c -0.735709,0 -1.335617,0.271105 -1.718757,0.754991 -0.385212,0.486503 -0.561205,1.183474 -0.561205,2.100649 0,0.939501 0.17118,1.62669 0.56379,2.077908 0.416983,0.480436 1.010835,0.750342 1.716172,0.750342 0.446741,0 0.799888,-0.227838 1.149284,-0.449585 v 0.03824 c 0,0.09965 0.02769,0.192694 0.11834,0.269235 0.09065,0.07654 0.243218,0.115239 0.385506,0.115239 0.142285,0 0.294857,-0.03871 0.385506,-0.115239 0.09065,-0.07654 0.11834,-0.169579 0.11834,-0.269235 v -1.98334 c 0,-0.213458 -0.08448,-0.397423 -0.27957,-0.52555 -0.195101,-0.128127 -0.477506,-0.183451 -0.802536,-0.183451 h -0.744657 c -0.151744,0 -0.293246,0.01643 -0.409795,0.07596 -0.116549,0.05953 -0.176215,0.159769 -0.176215,0.253214 0,0.09344 0.05967,0.193683 0.176215,0.253214 0.116549,0.05953 0.258051,0.07751 0.409795,0.07751 h 0.662493 c 0.08838,0 0.116036,0.01304 0.12764,0.02066 0.01159,0.0076 0.02894,0.02566 0.02894,0.08371 v 0.433564 c 0,0.486738 -0.159391,0.819653 -0.438216,1.018027 -0.224285,0.159239 -0.447895,0.226343 -0.711068,0.226343 -0.412927,0 -0.710089,-0.138806 -0.964282,-0.489376 -0.188153,-0.26258 -0.310576,-0.834684 -0.310576,-1.677416 0,-0.787892 0.115017,-1.364501 0.317812,-1.714108 0.199377,-0.343718 0.480682,-0.479558 0.957046,-0.479558 0.327117,0 0.554397,0.06817 0.744659,0.219626 0.137615,0.107759 0.25926,0.311697 0.325043,0.609782 v 0.0016 c 0.02109,0.08863 0.06342,0.169209 0.149863,0.234093 0.08645,0.06489 0.223091,0.101285 0.351917,0.101285 0.130204,0 0.274166,-0.03843 0.356566,-0.110586 0.0824,-0.07215 0.103354,-0.157059 0.103354,-0.247015 0,-0.340746 -0.18674,-0.664302 -0.542086,-0.956013 -0.401654,-0.332166 -0.91394,-0.514697 -1.489316,-0.514697 z"
           style="color:#000000;font-style:normal;font-variant:normal;font-weight:normal;font-stretch:normal;font-size:8.57661px;line-height:1.25;font-family:'EPSON 丸ゴシック体Ｍ';-inkscape-font-specification:'EPSON 丸ゴシック体Ｍ, Normal';font-variant-ligatures:normal;font-variant-position:normal;font-variant-caps:normal;font-variant-numeric:normal;font-variant-alternates:normal;font-variant-east-asian:normal;font-feature-settings:normal;font-variation-settings:normal;text-indent:0;text-align:start;text-decoration:none;text-decoration-line:none;text-decoration-style:solid;text-decoration-color:#000000;letter-spacing:normal;word-spacing:normal;text-transform:none;writing-mode:lr-tb;direction:ltr;text-orientation:mixed;dominant-baseline:auto;baseline-shift:baseline;text-anchor:start;white-space:normal;shape-padding:0;shape-margin:0;inline-size:0;clip-rule:nonzero;display:inline;overflow:visible;visibility:visible;isolation:auto;mix-blend-mode:normal;color-interpolation:sRGB;color-interpolation-filters:linearRGB;solid-color:#000000;solid-opacity:1;vector-effect:none;fill:#ffffff;fill-opacity:1;fill-rule:nonzero;stroke:none;stroke-width:0.346604;stroke-linecap:butt;stroke-linejoin:miter;stroke-miterlimit:4;stroke-dasharray:none;stroke-dashoffset:0;stroke-opacity:1;color-rendering:auto;image-rendering:auto;shape-rendering:auto;text-rendering:auto;enable-background:accumulate;stop-color:#000000"
           id="path1006" />
      </g>
    </g>
    <path
       id="path1106"
       style="color:#000000;font-style:normal;font-variant:normal;font-weight:normal;font-stretch:normal;font-size:medium;line-height:normal;font-family:sans-serif;font-variant-ligatures:normal;font-variant-position:normal;font-variant-caps:normal;font-variant-numeric:normal;font-variant-alternates:normal;font-variant-east-asian:normal;font-feature-settings:normal;font-variation-settings:normal;text-indent:0;text-align:start;text-decoration:none;text-decoration-line:none;text-decoration-style:solid;text-decoration-color:#000000;letter-spacing:normal;word-spacing:normal;text-transform:none;writing-mode:lr-tb;direction:ltr;text-orientation:mixed;dominant-baseline:auto;baseline-shift:baseline;text-anchor:start;white-space:normal;shape-padding:0;shape-margin:0;inline-size:0;clip-rule:nonzero;display:inline;overflow:visible;visibility:visible;isolation:auto;mix-blend-mode:normal;color-interpolation:sRGB;color-interpolation-filters:linearRGB;solid-color:#000000;solid-opacity:1;vector-effect:none;fill:#000000;fill-opacity:1;fill-rule:nonzero;stroke:none;stroke-width:1.97328;stroke-linecap:round;stroke-linejoin:round;stroke-miterlimit:4;stroke-dasharray:none;stroke-dashoffset:0;stroke-opacity:1;color-rendering:auto;image-rendering:auto;shape-rendering:auto;text-rendering:auto;enable-background:accumulate;stop-color:#000000"
       d="m 68.889488,84.905102 c -0.932773,0 -1.65468,0.805823 -1.65468,1.697053 v 9.056812 c 0,1.056587 1.974557,1.082408 1.974557,0 v -8.781378 h 11.755871 v 5.855457 c -2.91e-4,0.460761 0.373297,0.834355 0.834058,0.834059 h 4.85965 V 110.58674 H 69.209365 v -4.39302 c 0,-1.03972 -1.974557,-1.02593 -1.974557,0 v 4.67 c 0,0.89123 0.721907,1.69757 1.65468,1.69757 h 18.087785 c 0.93277,0 1.654161,-0.80634 1.654161,-1.69757 V 92.733046 c 5.8e-5,-0.234897 -0.08368,-0.462108 -0.236162,-0.640787 L 82.549636,85.250817 C 82.362124,85.03138 82.087933,84.905049 81.799294,84.905102 Z m 13.743863,3.480924 3.000851,3.512963 h -3.000851 z"
       sodipodi:nodetypes="sssccccccccccssssccccscccc" />
    <g
       transform="translate(100.10598,49.468716)"
       id="g1968">
      <path
         id="path1198"
         style="fill:#000000;stroke:#000000;stroke-width:1.2024;stroke-linecap:round;stroke-linejoin:round;stroke-miterlimit:4;stroke-dasharray:none;stroke-opacity:1"
         d="m -132.3457,179.27344 c -1.24806,0 -2.25391,1.00389 -2.25391,2.25195 v 25.92188 c 0,1.24806 1.00585,2.25195 2.25391,2.25195 h 29.42187 2.72852 33.554685 c 1.248057,0 2.251953,-1.00389 2.251953,-2.25195 v -25.92188 c 0,-1.24806 -1.003896,-2.25195 -2.251953,-2.25195 h -33.554685 -2.72852 z"
         transform="scale(0.26458333)" />
      <path
         id="path1149"
         style="color:#000000;font-style:normal;font-variant:normal;font-weight:normal;font-stretch:normal;font-size:7.51956px;line-height:1.25;font-family:'EPSON 丸ゴシック体Ｍ';-inkscape-font-specification:'EPSON 丸ゴシック体Ｍ, Normal';font-variant-ligatures:normal;font-variant-position:normal;font-variant-caps:normal;font-variant-numeric:normal;font-variant-alternates:normal;font-variant-east-asian:normal;font-feature-settings:normal;font-variation-settings:normal;text-indent:0;text-align:start;text-decoration:none;text-decoration-line:none;text-decoration-style:solid;text-decoration-color:#000000;letter-spacing:normal;word-spacing:normal;text-transform:none;writing-mode:lr-tb;direction:ltr;text-orientation:mixed;dominant-baseline:auto;baseline-shift:baseline;text-anchor:start;white-space:normal;shape-padding:0;shape-margin:0;inline-size:0;clip-rule:nonzero;display:inline;overflow:visible;visibility:visible;isolation:auto;mix-blend-mode:normal;color-interpolation:sRGB;color-interpolation-filters:linearRGB;solid-color:#000000;solid-opacity:1;vector-effect:none;fill:#ffffff;fill-opacity:1;fill-rule:nonzero;stroke:none;stroke-width:0.558535;stroke-linecap:butt;stroke-linejoin:miter;stroke-miterlimit:4;stroke-dasharray:none;stroke-dashoffset:0;stroke-opacity:1;color-rendering:auto;image-rendering:auto;shape-rendering:auto;text-rendering:auto;enable-background:accumulate;stop-color:#000000"
         d="m -28.339873,48.610751 c -0.494573,0 -0.943422,0.159911 -1.260906,0.451651 -0.317,0.287142 -0.47439,0.659702 -0.47439,1.076421 0,0.686908 0.532923,1.263049 1.454176,1.655196 h 0.0021 c 0.473173,0.199496 0.765726,0.391694 0.878499,0.522449 0.117282,0.13576 0.175699,0.289012 0.175699,0.486275 0,0.237828 -0.06029,0.392758 -0.14056,0.482658 v 0.0021 c -0.08164,0.0922 -0.230682,0.154514 -0.568957,0.154514 -0.253198,0 -0.422293,-0.0526 -0.57309,-0.164848 v -0.0021 c -0.06331,-0.04912 -0.195644,-0.287088 -0.237196,-0.701767 v -0.0016 -0.0016 c -0.01205,-0.10155 -0.04772,-0.207195 -0.147278,-0.297138 -0.09956,-0.08994 -0.25949,-0.137459 -0.395325,-0.137459 -0.136911,0 -0.30395,0.0409 -0.410826,0.137459 -0.106881,0.09656 -0.136427,0.215575 -0.136427,0.321427 0,0.534799 0.204499,0.995201 0.621667,1.324983 l 0.0026,0.0016 c 0.330079,0.255611 0.777296,0.383958 1.27589,0.383958 0.5226,0 0.98983,-0.141311 1.320334,-0.418581 0.32679,-0.274479 0.481108,-0.651624 0.481108,-1.083654 0,-0.348316 -0.132315,-0.68008 -0.384474,-0.974101 -0.271269,-0.321138 -0.685631,-0.573746 -1.219046,-0.765844 -0.658575,-0.240591 -0.907439,-0.518417 -0.907439,-0.923975 0,-0.267076 0.08058,-0.427078 0.208772,-0.531233 v -0.0021 c 0.113146,-0.09233 0.233693,-0.131776 0.435118,-0.131776 0.212804,0 0.328369,0.0449 0.445966,0.164849 0.10614,0.10705 0.182792,0.278445 0.197405,0.5364 v 0.0021 c 0.0072,0.113853 0.03207,0.223909 0.122989,0.326596 0.09092,0.102685 0.272145,0.170016 0.424265,0.170016 0.151868,0 0.335507,-0.06278 0.430464,-0.170016 0.09496,-0.107238 0.114204,-0.222975 0.114204,-0.338997 0,-0.438968 -0.170235,-0.830334 -0.509529,-1.130165 -0.308663,-0.275828 -0.744741,-0.423746 -1.225764,-0.423746 z m 4.162536,0 c -0.610203,0 -1.141222,0.2682 -1.489316,0.71882 -0.336513,0.432284 -0.443383,1.123077 -0.443383,2.141471 0,0.997013 0.108312,1.679784 0.441317,2.11305 0.348062,0.452032 0.88012,0.720886 1.491382,0.720886 0.611259,0 1.143836,-0.268854 1.491898,-0.720886 0.333007,-0.433266 0.441317,-1.116037 0.441317,-2.11305 0,-1.018394 -0.107384,-1.709187 -0.443902,-2.141471 -0.348091,-0.45062 -0.87911,-0.71882 -1.489313,-0.71882 z m -7.400581,0.02584 c -0.144394,0 -0.320839,0.05202 -0.421682,0.154511 -0.100841,0.102497 -0.122989,0.218128 -0.122989,0.328663 v 3.396692 c 0,0.404164 -0.09717,0.658114 -0.197922,0.760161 -0.10958,0.111778 -0.24438,0.165364 -0.511596,0.165364 -0.293497,0 -0.378563,-0.04753 -0.419613,-0.105936 -0.123743,-0.178181 -0.191201,-0.403363 -0.191201,-0.689364 0,-0.110538 -0.02421,-0.227716 -0.125058,-0.330213 -0.100841,-0.102497 -0.277289,-0.154512 -0.42168,-0.154512 -0.144391,0 -0.31877,0.05202 -0.419613,0.154512 -0.100841,0.102497 -0.125574,0.219675 -0.125574,0.330213 0,0.495742 0.129276,0.904753 0.435115,1.201476 0.308552,0.296944 0.762979,0.456821 1.267624,0.456821 0.537298,0 1.018469,-0.166325 1.359607,-0.477491 0.317219,-0.290663 0.441833,-0.708916 0.441833,-1.233 v -3.474723 c 0,-0.110535 -0.02473,-0.226166 -0.125574,-0.328663 -0.100841,-0.102497 -0.277289,-0.154511 -0.421677,-0.154511 z m 10.375077,0 c -0.227076,0 -0.436843,0.149238 -0.514181,0.298688 -0.07734,0.14945 -0.0987,0.316069 -0.0987,0.524518 v 4.334618 c 0,0.110535 0.02421,0.227198 0.125058,0.329695 0.100841,0.102497 0.27522,0.154514 0.419611,0.154514 0.144394,0 0.320836,-0.05202 0.42168,-0.154514 0.100843,-0.102497 0.125574,-0.21916 0.125574,-0.329695 V 50.92534 l 1.542026,2.964677 c 0.0494,0.09372 0.103738,0.174683 0.184483,0.246497 0.08074,0.07181 0.213379,0.14211 0.371038,0.14211 0.153321,0 0.336979,-0.07937 0.417545,-0.185521 0.08056,-0.106148 0.09457,-0.213158 0.09457,-0.325043 v -4.648295 c 0,-0.110535 -0.02421,-0.226166 -0.125055,-0.328663 -0.100841,-0.102497 -0.275222,-0.154511 -0.419614,-0.154511 -0.144391,0 -0.321352,0.05202 -0.422195,0.154511 -0.100843,0.102497 -0.125058,0.218128 -0.125058,0.328663 v 2.552298 l -1.377177,-2.594155 v -0.0021 c -0.05783,-0.111469 -0.122288,-0.20524 -0.21549,-0.286287 -0.09362,-0.08141 -0.238845,-0.152961 -0.404109,-0.152961 z m -2.974496,0.837157 c 0.285922,0 0.445209,0.08157 0.608748,0.3545 0.12355,0.204496 0.232545,0.781079 0.232545,1.642795 0,0.838727 -0.106035,1.403096 -0.232545,1.616437 -0.163539,0.272931 -0.322826,0.354502 -0.608748,0.354502 -0.285925,0 -0.444691,-0.08158 -0.608232,-0.354502 -0.126513,-0.213341 -0.233061,-0.77771 -0.233061,-1.616437 0,-0.861716 0.109511,-1.438299 0.233061,-1.642795 0.163541,-0.272929 0.322307,-0.3545 0.608232,-0.3545 z" />
    </g>
    <g
       transform="translate(-3.8951797,-9.6542613)"
       id="g2785">
      <rect
         style="fill:none;stroke:none;stroke-width:0.532206;stroke-linecap:round;stroke-linejoin:round;stroke-miterlimit:4;stroke-dasharray:none;stroke-opacity:1"
         id="rect2735"
         width="31.75"
         height="31.75"
         x="-67.038887"
         y="30.340462"
         ry="0.08534947" />
      <g
         id="g1348"
         style="opacity:1;fill:#000000"
         transform="matrix(0.05959789,0,0,0.05959789,-66.420947,30.958388)">
        <path
           id="path1330"
           style="fill:#000000"
           d="m 231.137,410.58 c -37.33,0 -71.105,-10.204 -96.871,-28.027 -25.832,-17.955 -43.85,-43.075 -50.826,-74.464 -2.002,-9.037 -2.971,-18.214 -2.971,-27.447 0,-30.676 10.785,-62.316 30.481,-90.672 -8.524,-6.136 -16.53,-13.754 -23.571,-22.729 -24.669,34.031 -39.136,73.36 -39.2,113.401 0,11.498 1.227,22.994 3.746,34.359 8.653,39.65 32.095,72.136 63.934,94.09 31.903,21.96 72.073,33.779 115.277,33.779 23.506,0 47.982,-3.488 72.588,-10.848 l -21.31,-27.643 c -17.501,4.201 -34.743,6.201 -51.277,6.201 z"
           class="st0" />
        <path
           id="path1332"
           style="fill:#000000"
           d="M 452.068,133.078 C 436.244,109.44 413.77,91.226 387.421,79.023 361.009,66.813 330.784,60.55 299.011,60.487 c -24.54,0 -50.05,3.746 -75.558,11.56 -10.788,3.292 -21.184,7.17 -31.193,11.686 0.129,0.196 0.258,0.328 0.388,0.517 6.328,8.912 11.431,18.34 15.048,27.838 8.072,-3.488 16.467,-6.528 25.12,-9.17 22.54,-6.849 44.885,-10.142 66.195,-10.142 27.576,0 53.216,5.487 74.785,15.565 21.698,10.009 39.265,24.476 51.406,42.684 4.585,6.849 6.329,12.79 6.329,17.312 -0.063,2.97 -0.646,5.424 -2.194,8.136 -1.164,2 -2.907,4.2 -5.62,6.395 -4.005,3.356 -10.204,6.906 -19.05,9.814 -8.785,2.908 -20.15,5.234 -34.163,6.458 -16.792,1.425 -30.805,7.555 -40.558,17.242 -9.75,9.561 -14.723,22.414 -14.723,34.939 0,13.755 5.812,27.384 16.533,37.329 10.655,10.009 26.091,16.013 43.914,15.95 1.097,0 2.194,0 3.358,-0.062 h 0.129 c 1.034,-0.064 2.132,-0.064 3.163,-0.064 6.587,0 11.431,0.839 14.855,2 5.102,1.747 7.105,3.746 8.46,5.682 1.29,1.936 2.066,4.522 2.066,7.624 0,2.384 -0.451,4.907 -1.227,6.969 -0.709,2.132 -1.744,3.746 -2.132,4.2 -10.525,12.204 -22.732,23.574 -36.424,33.647 l 17.889,26.866 c 16.082,-11.623 30.484,-24.993 43.012,-39.461 3.68,-4.326 6.266,-9.233 8.202,-14.594 1.807,-5.423 2.97,-11.302 2.97,-17.627 0,-5.493 -0.905,-11.371 -3.1,-17.116 -3.292,-8.652 -9.946,-16.984 -19.438,-22.344 -9.495,-5.487 -21.184,-8.136 -35.134,-8.136 -1.486,0 -3.034,0.063 -4.714,0.126 h -1.936 c -10.913,-0.062 -17.63,-3.355 -21.893,-7.296 -4.26,-4.006 -6.2,-8.975 -6.263,-13.692 0.063,-4.326 1.549,-8.394 5.165,-12.008 3.617,-3.557 9.817,-7.045 20.667,-8.01 28.349,-2.522 49.792,-8.848 65.483,-19.374 7.817,-5.297 14.146,-11.756 18.472,-19.311 4.39,-7.492 6.521,-15.95 6.521,-24.281 -0.001,-12.594 -4.586,-24.539 -11.753,-35.26 z"
           class="st0" />
        <path
           id="path1334"
           style="fill:#000000"
           d="m 393.485,176.72 c 5.291,-5.298 8.325,-12.607 8.325,-20.093 0,-7.486 -3.034,-14.802 -8.325,-20.1 -5.298,-5.285 -12.608,-8.318 -20.093,-8.318 -7.486,0 -14.802,3.033 -20.094,8.318 -5.291,5.298 -8.324,12.613 -8.324,20.1 0,7.486 3.033,14.795 8.324,20.093 5.292,5.291 12.608,8.324 20.094,8.324 7.485,10e-4 14.795,-3.032 20.093,-8.324 z"
           class="st0" />
        <path
           id="path1336"
           style="fill:#000000"
           d="m 159.79,245.262 c 4.27,-12.859 -2.699,-26.747 -15.565,-31.023 -12.859,-4.27 -26.747,2.692 -31.022,15.558 -4.27,12.859 2.699,26.747 15.565,31.029 12.852,4.264 26.746,-2.698 31.022,-15.564 z"
           class="st0" />
        <path
           id="path1338"
           style="fill:#000000"
           d="m 160.137,342.631 c 8.823,-9.327 8.413,-24.041 -0.908,-32.864 -9.328,-8.829 -24.041,-8.419 -32.864,0.909 -8.83,9.321 -8.426,24.035 0.902,32.864 9.32,8.822 24.04,8.412 32.87,-0.909 z"
           class="st0" />
        <path
           id="path1340"
           style="fill:#000000"
           d="m 281.932,162.915 c 14.877,-1.728 25.542,-15.193 23.808,-30.071 -1.728,-14.878 -15.193,-25.536 -30.071,-23.808 -14.884,1.728 -25.542,15.187 -23.808,30.071 1.728,14.878 15.187,25.542 30.071,23.808 z"
           class="st0" />
        <path
           id="path1342"
           style="fill:#000000"
           d="m 99.435,151.078 c 15.133,21.096 36.721,35.172 56.348,36.762 l 0.823,0.075 36.85,-26.438 0.195,-0.801 C 198.425,141.573 192.005,116.605 176.879,95.521 162.522,75.517 145.803,61.793 129.626,48.511 118.589,39.455 107.167,30.077 96.509,18.731 87.685,9.334 84.715,4.692 84.705,4.68 L 81.845,0 l -2.4,2.826 c -11.14,13.156 -15.593,36.869 -12.238,65.048 3.516,29.59 14.972,59.15 32.228,83.204 z m 8.214,-35.022 c 12.018,13.598 17.631,4.692 10.4,-9.17 -9.079,-17.388 0.097,-18.012 5.682,-12.601 5.566,5.392 12.541,17.476 18.548,14.014 3.61,-2.081 -0.268,-9.568 -5.38,-20.913 -2.933,-6.496 -0.4,-16.24 14.701,-3.236 5.515,5.544 10.747,11.523 15.619,18.309 10.563,14.707 15.564,32.428 13.121,46.329 l -31.55,22.642 c -13.963,-2.132 -29.121,-12.551 -39.697,-27.284 -4.049,-5.651 -7.761,-11.768 -11.078,-18.201 -0.356,-0.921 -0.763,-1.904 -1.236,-2.946 -5.269,-11.597 -1.147,-20.527 10.87,-6.943 z"
           class="st0" />
        <path
           id="path1344"
           style="fill:#000000"
           d="m 215.431,183.86 c -7.707,-3.147 -15.038,-2.794 -20.266,0.952 l -16.993,12.197 c -5.235,3.746 -7.909,10.589 -7.408,18.888 0.511,8.306 4.156,17.363 10.078,25.05 l 26.851,34.813 52.614,-37.746 -24.375,-36.579 c -5.381,-8.084 -12.795,-14.428 -20.501,-17.575 z"
           class="st0" />
        <path
           id="path1346"
           style="fill:#000000"
           d="m 268.971,251.026 -51.722,37.103 160.229,207.73 c 11.109,14.411 27.509,20.182 37.323,13.156 l 0.116,-0.101 c 9.807,-7.032 9.586,-24.42 -0.501,-39.562 z"
           class="st0" />
      </g>
    </g>
    <g
       transform="translate(-4.2846909,-10.078402)"
       id="g2805">
      <rect
         ry="0.08534947"
         y="133.9521"
         x="-66.649376"
         height="31.75"
         width="31.75"
         id="rect2741"
         style="fill:none;stroke:none;stroke-width:0.532206;stroke-linecap:round;stroke-linejoin:round;stroke-miterlimit:4;stroke-dasharray:none;stroke-opacity:1" />
      <g
         transform="translate(38.275484,130.15492)"
         id="g1964">
        <path
           id="path1960"
           style="color:#000000;font-style:normal;font-variant:normal;font-weight:normal;font-stretch:normal;font-size:medium;line-height:normal;font-family:sans-serif;font-variant-ligatures:normal;font-variant-position:normal;font-variant-caps:normal;font-variant-numeric:normal;font-variant-alternates:normal;font-variant-east-asian:normal;font-feature-settings:normal;font-variation-settings:normal;text-indent:0;text-align:start;text-decoration:none;text-decoration-line:none;text-decoration-style:solid;text-decoration-color:#000000;letter-spacing:normal;word-spacing:normal;text-transform:none;writing-mode:lr-tb;direction:ltr;text-orientation:mixed;dominant-baseline:auto;baseline-shift:baseline;text-anchor:start;white-space:normal;shape-padding:0;shape-margin:0;inline-size:0;clip-rule:nonzero;display:inline;overflow:visible;visibility:visible;opacity:1;isolation:auto;mix-blend-mode:normal;color-interpolation:sRGB;color-interpolation-filters:linearRGB;solid-color:#000000;solid-opacity:1;vector-effect:none;fill:#000000;fill-opacity:1;fill-rule:nonzero;stroke:none;stroke-width:8.78899;stroke-linecap:round;stroke-linejoin:round;stroke-miterlimit:4;stroke-dasharray:none;stroke-dashoffset:0;stroke-opacity:1;color-rendering:auto;image-rendering:auto;shape-rendering:auto;text-rendering:auto;enable-background:accumulate;stop-color:#000000;stop-opacity:1"
           d="m -376.01758,76.34375 c -2.19775,-0.0044 -4.39648,1.273563 -4.39648,3.849609 v 34.384761 c 0,3.90555 3.2839,7.18946 7.18945,7.18946 h 73.31641 c 3.90556,0 7.18945,-3.2839 7.18945,-7.18946 V 80.193359 c 0,-5.152093 -8.79102,-5.117023 -8.79102,0 v 32.783201 h -70.11328 V 80.193359 c 0,-2.558511 -2.19677,-3.845225 -4.39453,-3.849609 z"
           transform="scale(0.26458333)" />
        <path
           id="path1962"
           style="color:#000000;font-style:normal;font-variant:normal;font-weight:normal;font-stretch:normal;font-size:medium;line-height:normal;font-family:sans-serif;font-variant-ligatures:normal;font-variant-position:normal;font-variant-caps:normal;font-variant-numeric:normal;font-variant-alternates:normal;font-variant-east-asian:normal;font-feature-settings:normal;font-variation-settings:normal;text-indent:0;text-align:start;text-decoration:none;text-decoration-line:none;text-decoration-style:solid;text-decoration-color:#000000;letter-spacing:normal;word-spacing:normal;text-transform:none;writing-mode:lr-tb;direction:ltr;text-orientation:mixed;dominant-baseline:auto;baseline-shift:baseline;text-anchor:start;white-space:normal;shape-padding:0;shape-margin:0;inline-size:0;clip-rule:nonzero;display:inline;overflow:visible;visibility:visible;opacity:1;isolation:auto;mix-blend-mode:normal;color-interpolation:sRGB;color-interpolation-filters:linearRGB;solid-color:#000000;solid-opacity:1;vector-effect:none;fill:#000000;fill-opacity:1;fill-rule:nonzero;stroke:none;stroke-width:2.11852;stroke-linecap:round;stroke-linejoin:miter;stroke-miterlimit:4;stroke-dasharray:none;stroke-dashoffset:0;stroke-opacity:1;color-rendering:auto;image-rendering:auto;shape-rendering:auto;text-rendering:auto;enable-background:accumulate;stop-color:#000000;stop-opacity:1"
           d="m -89.049286,7.1266967 a 1.0592594,1.0592594 0 0 0 -1.0604,1.060917 V 22.593969 l -3.3538,-3.3538 c -0.344998,-0.343574 -0.863285,-0.331042 -1.251603,-0.0646 l -0.07855,-0.01757 -0.08165,0.08423 c -0.38731,0.388381 -0.389077,1.023167 -0.0021,1.4118 l 5.109247,5.109766 c 0.189143,0.188476 0.447799,0.290722 0.714687,0.288871 0.270304,0.0036 0.529992,-0.101492 0.720887,-0.293005 l 5.10718,-5.105632 c 0.38911,-0.388009 0.389729,-1.024457 0.0021,-1.413867 -0.19448,-0.19497 -0.450128,-0.293005 -0.706933,-0.293005 -0.256804,0 -0.514522,0.09804 -0.709001,0.293005 l -3.351734,3.351733 V 8.1876137 a 1.0592594,1.0592594 0 0 0 -1.058333,-1.060917 z" />
      </g>
    </g>
    <g
       transform="translate(101.54937,81.993423)"
       id="g2009">
      <path
         id="path2005"
         style="color:#000000;font-style:normal;font-variant:normal;font-weight:normal;font-stretch:normal;font-size:medium;line-height:normal;font-family:sans-serif;font-variant-ligatures:normal;font-variant-position:normal;font-variant-caps:normal;font-variant-numeric:normal;font-variant-alternates:normal;font-variant-east-asian:normal;font-feature-settings:normal;font-variation-settings:normal;text-indent:0;text-align:start;text-decoration:none;text-decoration-line:none;text-decoration-style:solid;text-decoration-color:#000000;letter-spacing:normal;word-spacing:normal;text-transform:none;writing-mode:lr-tb;direction:ltr;text-orientation:mixed;dominant-baseline:auto;baseline-shift:baseline;text-anchor:start;white-space:normal;shape-padding:0;shape-margin:0;inline-size:0;clip-rule:nonzero;display:inline;overflow:visible;visibility:visible;opacity:1;isolation:auto;mix-blend-mode:normal;color-interpolation:sRGB;color-interpolation-filters:linearRGB;solid-color:#000000;solid-opacity:1;vector-effect:none;fill:#000000;fill-opacity:1;fill-rule:nonzero;stroke:none;stroke-width:8.78899;stroke-linecap:round;stroke-linejoin:round;stroke-miterlimit:4;stroke-dasharray:none;stroke-dashoffset:0;stroke-opacity:1;color-rendering:auto;image-rendering:auto;shape-rendering:auto;text-rendering:auto;enable-background:accumulate;stop-color:#000000;stop-opacity:1"
         d="m -376.01758,76.34375 c -2.19775,-0.0044 -4.39648,1.273563 -4.39648,3.849609 v 34.384761 c 0,3.90555 3.2839,7.18946 7.18945,7.18946 h 73.31641 c 3.90556,0 7.18945,-3.2839 7.18945,-7.18946 V 80.193359 c 0,-5.152093 -8.79102,-5.117023 -8.79102,0 v 32.783201 h -70.11328 V 80.193359 c 0,-2.558511 -2.19677,-3.845225 -4.39453,-3.849609 z"
         transform="scale(0.26458333)" />
      <path
         id="path2007"
         style="color:#000000;font-style:normal;font-variant:normal;font-weight:normal;font-stretch:normal;font-size:medium;line-height:normal;font-family:sans-serif;font-variant-ligatures:normal;font-variant-position:normal;font-variant-caps:normal;font-variant-numeric:normal;font-variant-alternates:normal;font-variant-east-asian:normal;font-feature-settings:normal;font-variation-settings:normal;text-indent:0;text-align:start;text-decoration:none;text-decoration-line:none;text-decoration-style:solid;text-decoration-color:#000000;letter-spacing:normal;word-spacing:normal;text-transform:none;writing-mode:lr-tb;direction:ltr;text-orientation:mixed;dominant-baseline:auto;baseline-shift:baseline;text-anchor:start;white-space:normal;shape-padding:0;shape-margin:0;inline-size:0;clip-rule:nonzero;display:inline;overflow:visible;visibility:visible;opacity:1;isolation:auto;mix-blend-mode:normal;color-interpolation:sRGB;color-interpolation-filters:linearRGB;solid-color:#000000;solid-opacity:1;vector-effect:none;fill:#000000;fill-opacity:1;fill-rule:nonzero;stroke:none;stroke-width:2.11852;stroke-linecap:round;stroke-linejoin:miter;stroke-miterlimit:4;stroke-dasharray:none;stroke-dashoffset:0;stroke-opacity:1;color-rendering:auto;image-rendering:auto;shape-rendering:auto;text-rendering:auto;enable-background:accumulate;stop-color:#000000;stop-opacity:1"
         d="m -89.049286,7.1266967 a 1.0592594,1.0592594 0 0 0 -1.0604,1.060917 V 22.593969 l -3.3538,-3.3538 c -0.344998,-0.343574 -0.863285,-0.331042 -1.251603,-0.0646 l -0.07855,-0.01757 -0.08165,0.08423 c -0.38731,0.388381 -0.389077,1.023167 -0.0021,1.4118 l 5.109247,5.109766 c 0.189143,0.188476 0.447799,0.290722 0.714687,0.288871 0.270304,0.0036 0.529992,-0.101492 0.720887,-0.293005 l 5.10718,-5.105632 c 0.38911,-0.388009 0.389729,-1.024457 0.0021,-1.413867 -0.19448,-0.19497 -0.450128,-0.293005 -0.706933,-0.293005 -0.256804,0 -0.514522,0.09804 -0.709001,0.293005 l -3.351734,3.351733 V 8.1876137 a 1.0592594,1.0592594 0 0 0 -1.058333,-1.060917 z" />
    </g>
    <g
       transform="matrix(0.90122894,0,0,0.90122894,21.94621,40.433763)"
       id="g2003">
      <path
         id="path1978"
         style="fill:#000000;stroke:#000000;stroke-width:0.318135;stroke-linecap:round;stroke-linejoin:round;stroke-miterlimit:4;stroke-dasharray:none;stroke-opacity:1"
         d="m -18.645115,75.952043 h 16.326188 c 0.330215,0 0.596057,0.265842 0.596057,0.596057 v 6.858266 c 0,0.330216 -0.265842,0.596057 -0.596057,0.596057 h -16.326188 c -0.330215,0 -0.596056,-0.265841 -0.596056,-0.596057 V 76.5481 c 0,-0.330215 0.265841,-0.596057 0.596056,-0.596057 z" />
      <path
         d="m -16.518736,77.21642 c -0.352589,0 -0.654119,0.06022 -0.862997,0.197403 -0.208878,0.137178 -0.301273,0.336883 -0.301273,0.568441 v 4.425569 c 0,0.09966 0.02769,0.192694 0.118338,0.269235 0.09065,0.07654 0.243221,0.115239 0.385506,0.115239 0.142287,0 0.294859,-0.03869 0.385506,-0.115239 0.09065,-0.07654 0.11834,-0.169579 0.11834,-0.269235 v -2.032434 h 0.901237 c 0.629689,0 1.189966,-0.153363 1.638659,-0.448034 0.406755,-0.267129 0.600482,-0.654871 0.600482,-1.131713 0,-0.476846 -0.193727,-0.863034 -0.600482,-1.130165 -0.448693,-0.294672 -1.00897,-0.449067 -1.638659,-0.449067 z m 0.08423,0.661458 h 0.660424 c 0.289898,0 0.58176,0.07959 0.891934,0.262517 0.219991,0.130024 0.342098,0.335995 0.342098,0.655257 0,0.319262 -0.122113,0.52678 -0.342098,0.656807 -0.310174,0.182917 -0.602036,0.263033 -0.891934,0.263033 h -0.901237 v -1.679485 c 0,-0.07614 0.02524,-0.108384 0.05064,-0.125056 0.02537,-0.01667 0.07423,-0.03307 0.190169,-0.03307 z"
         style="color:#000000;font-style:normal;font-variant:normal;font-weight:normal;font-stretch:normal;font-size:8.57661px;line-height:1.25;font-family:'EPSON 丸ゴシック体Ｍ';-inkscape-font-specification:'EPSON 丸ゴシック体Ｍ, Normal';font-variant-ligatures:normal;font-variant-position:normal;font-variant-caps:normal;font-variant-numeric:normal;font-variant-alternates:normal;font-variant-east-asian:normal;font-feature-settings:normal;font-variation-settings:normal;text-indent:0;text-align:start;text-decoration:none;text-decoration-line:none;text-decoration-style:solid;text-decoration-color:#000000;letter-spacing:normal;word-spacing:normal;text-transform:none;writing-mode:lr-tb;direction:ltr;text-orientation:mixed;dominant-baseline:auto;baseline-shift:baseline;text-anchor:start;white-space:normal;shape-padding:0;shape-margin:0;inline-size:0;clip-rule:nonzero;display:inline;overflow:visible;visibility:visible;isolation:auto;mix-blend-mode:normal;color-interpolation:sRGB;color-interpolation-filters:linearRGB;solid-color:#000000;solid-opacity:1;vector-effect:none;fill:#ffffff;fill-opacity:1;fill-rule:nonzero;stroke:none;stroke-width:0.346604;stroke-linecap:butt;stroke-linejoin:miter;stroke-miterlimit:4;stroke-dasharray:none;stroke-dashoffset:0;stroke-opacity:1;color-rendering:auto;image-rendering:auto;shape-rendering:auto;text-rendering:auto;enable-background:accumulate;stop-color:#000000"
         id="path1980" />
      <path
         d="m -12.302192,77.162159 c -0.211148,0 -0.393978,0.107794 -0.474906,0.237712 -0.08092,0.129919 -0.110588,0.29155 -0.110588,0.500227 v 4.507735 c 0,0.09966 0.02717,0.192694 0.117825,0.269235 0.09065,0.07654 0.243734,0.115239 0.386021,0.115239 0.142285,0 0.294857,-0.03869 0.385506,-0.115239 0.09065,-0.07654 0.117822,-0.169579 0.117822,-0.269235 v -3.578592 l 2.275313,3.632337 c 0.0572,0.09014 0.117301,0.162507 0.197406,0.221692 0.08011,0.05918 0.19617,0.109037 0.330211,0.109037 0.142086,0 0.297852,-0.05524 0.371554,-0.135908 0.0737,-0.08067 0.09147,-0.172442 0.09147,-0.276987 v -4.832263 c 0,-0.09966 -0.02769,-0.192693 -0.118337,-0.269235 -0.09065,-0.07654 -0.243218,-0.115755 -0.385506,-0.115755 -0.142288,0 -0.29486,0.03922 -0.385506,0.115755 -0.09065,0.07654 -0.11834,0.16958 -0.11834,0.269235 v 3.236495 L -11.68982,77.5487 v -0.0016 c -0.06754,-0.108159 -0.141431,-0.196149 -0.236162,-0.264583 -0.09515,-0.06874 -0.229129,-0.120407 -0.376206,-0.120407 z"
         style="color:#000000;font-style:normal;font-variant:normal;font-weight:normal;font-stretch:normal;font-size:8.57661px;line-height:1.25;font-family:'EPSON 丸ゴシック体Ｍ';-inkscape-font-specification:'EPSON 丸ゴシック体Ｍ, Normal';font-variant-ligatures:normal;font-variant-position:normal;font-variant-caps:normal;font-variant-numeric:normal;font-variant-alternates:normal;font-variant-east-asian:normal;font-feature-settings:normal;font-variation-settings:normal;text-indent:0;text-align:start;text-decoration:none;text-decoration-line:none;text-decoration-style:solid;text-decoration-color:#000000;letter-spacing:normal;word-spacing:normal;text-transform:none;writing-mode:lr-tb;direction:ltr;text-orientation:mixed;dominant-baseline:auto;baseline-shift:baseline;text-anchor:start;white-space:normal;shape-padding:0;shape-margin:0;inline-size:0;clip-rule:nonzero;display:inline;overflow:visible;visibility:visible;isolation:auto;mix-blend-mode:normal;color-interpolation:sRGB;color-interpolation-filters:linearRGB;solid-color:#000000;solid-opacity:1;vector-effect:none;fill:#ffffff;fill-opacity:1;fill-rule:nonzero;stroke:none;stroke-width:0.346604;stroke-linecap:butt;stroke-linejoin:miter;stroke-miterlimit:4;stroke-dasharray:none;stroke-dashoffset:0;stroke-opacity:1;color-rendering:auto;image-rendering:auto;shape-rendering:auto;text-rendering:auto;enable-background:accumulate;stop-color:#000000"
         id="path1982" />
      <path
         d="m -5.438011,77.135288 c -0.735709,0 -1.335617,0.271105 -1.718757,0.754991 -0.385212,0.486503 -0.561205,1.183474 -0.561205,2.100649 0,0.939501 0.17118,1.62669 0.56379,2.077908 0.416983,0.480436 1.010835,0.750342 1.716172,0.750342 0.446741,0 0.799888,-0.227838 1.149284,-0.449585 v 0.03824 c 0,0.09965 0.02769,0.192694 0.11834,0.269235 0.09065,0.07654 0.243218,0.115239 0.385506,0.115239 0.142285,0 0.294857,-0.03871 0.385506,-0.115239 0.09065,-0.07654 0.11834,-0.169579 0.11834,-0.269235 v -1.98334 c 0,-0.213458 -0.08448,-0.397423 -0.27957,-0.52555 -0.195101,-0.128127 -0.477506,-0.183451 -0.802536,-0.183451 h -0.744657 c -0.151744,0 -0.293246,0.01643 -0.409795,0.07596 -0.116549,0.05953 -0.176215,0.159769 -0.176215,0.253214 0,0.09344 0.05967,0.193683 0.176215,0.253214 0.116549,0.05953 0.258051,0.07751 0.409795,0.07751 h 0.662493 c 0.08838,0 0.116036,0.01304 0.12764,0.02066 0.01159,0.0076 0.02894,0.02566 0.02894,0.08371 v 0.433564 c 0,0.486738 -0.159391,0.819653 -0.438216,1.018027 -0.224285,0.159239 -0.447895,0.226343 -0.711068,0.226343 -0.412927,0 -0.710089,-0.138806 -0.964282,-0.489376 -0.188153,-0.26258 -0.310576,-0.834684 -0.310576,-1.677416 0,-0.787892 0.115017,-1.364501 0.317812,-1.714108 0.199377,-0.343718 0.480682,-0.479558 0.957046,-0.479558 0.327117,0 0.554397,0.06817 0.744659,0.219626 0.137615,0.107759 0.25926,0.311697 0.325043,0.609782 v 0.0016 c 0.02109,0.08863 0.06342,0.169209 0.149863,0.234093 0.08645,0.06489 0.223091,0.101285 0.351917,0.101285 0.130204,0 0.274166,-0.03843 0.356566,-0.110586 0.0824,-0.07215 0.103354,-0.157059 0.103354,-0.247015 0,-0.340746 -0.18674,-0.664302 -0.542086,-0.956013 -0.401654,-0.332166 -0.91394,-0.514697 -1.489316,-0.514697 z"
         style="color:#000000;font-style:normal;font-variant:normal;font-weight:normal;font-stretch:normal;font-size:8.57661px;line-height:1.25;font-family:'EPSON 丸ゴシック体Ｍ';-inkscape-font-specification:'EPSON 丸ゴシック体Ｍ, Normal';font-variant-ligatures:normal;font-variant-position:normal;font-variant-caps:normal;font-variant-numeric:normal;font-variant-alternates:normal;font-variant-east-asian:normal;font-feature-settings:normal;font-variation-settings:normal;text-indent:0;text-align:start;text-decoration:none;text-decoration-line:none;text-decoration-style:solid;text-decoration-color:#000000;letter-spacing:normal;word-spacing:normal;text-transform:none;writing-mode:lr-tb;direction:ltr;text-orientation:mixed;dominant-baseline:auto;baseline-shift:baseline;text-anchor:start;white-space:normal;shape-padding:0;shape-margin:0;inline-size:0;clip-rule:nonzero;display:inline;overflow:visible;visibility:visible;isolation:auto;mix-blend-mode:normal;color-interpolation:sRGB;color-interpolation-filters:linearRGB;solid-color:#000000;solid-opacity:1;vector-effect:none;fill:#ffffff;fill-opacity:1;fill-rule:nonzero;stroke:none;stroke-width:0.346604;stroke-linecap:butt;stroke-linejoin:miter;stroke-miterlimit:4;stroke-dasharray:none;stroke-dashoffset:0;stroke-opacity:1;color-rendering:auto;image-rendering:auto;shape-rendering:auto;text-rendering:auto;enable-background:accumulate;stop-color:#000000"
         id="path1984" />
    </g>
    <g
       transform="matrix(0.90125923,0,0,0.90125923,63.021333,25.235349)"
       id="g1974">
      <path
         transform="scale(0.26458333)"
         d="m -132.3457,179.27344 c -1.24806,0 -2.25391,1.00389 -2.25391,2.25195 v 25.92188 c 0,1.24806 1.00585,2.25195 2.25391,2.25195 h 29.42187 2.72852 33.554685 c 1.248057,0 2.251953,-1.00389 2.251953,-2.25195 v -25.92188 c 0,-1.24806 -1.003896,-2.25195 -2.251953,-2.25195 h -33.554685 -2.72852 z"
         style="fill:#000000;stroke:#000000;stroke-width:1.2024;stroke-linecap:round;stroke-linejoin:round;stroke-miterlimit:4;stroke-dasharray:none;stroke-opacity:1"
         id="path1970" />
      <path
         d="m -28.339873,48.610751 c -0.494573,0 -0.943422,0.159911 -1.260906,0.451651 -0.317,0.287142 -0.47439,0.659702 -0.47439,1.076421 0,0.686908 0.532923,1.263049 1.454176,1.655196 h 0.0021 c 0.473173,0.199496 0.765726,0.391694 0.878499,0.522449 0.117282,0.13576 0.175699,0.289012 0.175699,0.486275 0,0.237828 -0.06029,0.392758 -0.14056,0.482658 v 0.0021 c -0.08164,0.0922 -0.230682,0.154514 -0.568957,0.154514 -0.253198,0 -0.422293,-0.0526 -0.57309,-0.164848 v -0.0021 c -0.06331,-0.04912 -0.195644,-0.287088 -0.237196,-0.701767 v -0.0016 -0.0016 c -0.01205,-0.10155 -0.04772,-0.207195 -0.147278,-0.297138 -0.09956,-0.08994 -0.25949,-0.137459 -0.395325,-0.137459 -0.136911,0 -0.30395,0.0409 -0.410826,0.137459 -0.106881,0.09656 -0.136427,0.215575 -0.136427,0.321427 0,0.534799 0.204499,0.995201 0.621667,1.324983 l 0.0026,0.0016 c 0.330079,0.255611 0.777296,0.383958 1.27589,0.383958 0.5226,0 0.98983,-0.141311 1.320334,-0.418581 0.32679,-0.274479 0.481108,-0.651624 0.481108,-1.083654 0,-0.348316 -0.132315,-0.68008 -0.384474,-0.974101 -0.271269,-0.321138 -0.685631,-0.573746 -1.219046,-0.765844 -0.658575,-0.240591 -0.907439,-0.518417 -0.907439,-0.923975 0,-0.267076 0.08058,-0.427078 0.208772,-0.531233 v -0.0021 c 0.113146,-0.09233 0.233693,-0.131776 0.435118,-0.131776 0.212804,0 0.328369,0.0449 0.445966,0.164849 0.10614,0.10705 0.182792,0.278445 0.197405,0.5364 v 0.0021 c 0.0072,0.113853 0.03207,0.223909 0.122989,0.326596 0.09092,0.102685 0.272145,0.170016 0.424265,0.170016 0.151868,0 0.335507,-0.06278 0.430464,-0.170016 0.09496,-0.107238 0.114204,-0.222975 0.114204,-0.338997 0,-0.438968 -0.170235,-0.830334 -0.509529,-1.130165 -0.308663,-0.275828 -0.744741,-0.423746 -1.225764,-0.423746 z m 4.162536,0 c -0.610203,0 -1.141222,0.2682 -1.489316,0.71882 -0.336513,0.432284 -0.443383,1.123077 -0.443383,2.141471 0,0.997013 0.108312,1.679784 0.441317,2.11305 0.348062,0.452032 0.88012,0.720886 1.491382,0.720886 0.611259,0 1.143836,-0.268854 1.491898,-0.720886 0.333007,-0.433266 0.441317,-1.116037 0.441317,-2.11305 0,-1.018394 -0.107384,-1.709187 -0.443902,-2.141471 -0.348091,-0.45062 -0.87911,-0.71882 -1.489313,-0.71882 z m -7.400581,0.02584 c -0.144394,0 -0.320839,0.05202 -0.421682,0.154511 -0.100841,0.102497 -0.122989,0.218128 -0.122989,0.328663 v 3.396692 c 0,0.404164 -0.09717,0.658114 -0.197922,0.760161 -0.10958,0.111778 -0.24438,0.165364 -0.511596,0.165364 -0.293497,0 -0.378563,-0.04753 -0.419613,-0.105936 -0.123743,-0.178181 -0.191201,-0.403363 -0.191201,-0.689364 0,-0.110538 -0.02421,-0.227716 -0.125058,-0.330213 -0.100841,-0.102497 -0.277289,-0.154512 -0.42168,-0.154512 -0.144391,0 -0.31877,0.05202 -0.419613,0.154512 -0.100841,0.102497 -0.125574,0.219675 -0.125574,0.330213 0,0.495742 0.129276,0.904753 0.435115,1.201476 0.308552,0.296944 0.762979,0.456821 1.267624,0.456821 0.537298,0 1.018469,-0.166325 1.359607,-0.477491 0.317219,-0.290663 0.441833,-0.708916 0.441833,-1.233 v -3.474723 c 0,-0.110535 -0.02473,-0.226166 -0.125574,-0.328663 -0.100841,-0.102497 -0.277289,-0.154511 -0.421677,-0.154511 z m 10.375077,0 c -0.227076,0 -0.436843,0.149238 -0.514181,0.298688 -0.07734,0.14945 -0.0987,0.316069 -0.0987,0.524518 v 4.334618 c 0,0.110535 0.02421,0.227198 0.125058,0.329695 0.100841,0.102497 0.27522,0.154514 0.419611,0.154514 0.144394,0 0.320836,-0.05202 0.42168,-0.154514 0.100843,-0.102497 0.125574,-0.21916 0.125574,-0.329695 V 50.92534 l 1.542026,2.964677 c 0.0494,0.09372 0.103738,0.174683 0.184483,0.246497 0.08074,0.07181 0.213379,0.14211 0.371038,0.14211 0.153321,0 0.336979,-0.07937 0.417545,-0.185521 0.08056,-0.106148 0.09457,-0.213158 0.09457,-0.325043 v -4.648295 c 0,-0.110535 -0.02421,-0.226166 -0.125055,-0.328663 -0.100841,-0.102497 -0.275222,-0.154511 -0.419614,-0.154511 -0.144391,0 -0.321352,0.05202 -0.422195,0.154511 -0.100843,0.102497 -0.125058,0.218128 -0.125058,0.328663 v 2.552298 l -1.377177,-2.594155 v -0.0021 c -0.05783,-0.111469 -0.122288,-0.20524 -0.21549,-0.286287 -0.09362,-0.08141 -0.238845,-0.152961 -0.404109,-0.152961 z m -2.974496,0.837157 c 0.285922,0 0.445209,0.08157 0.608748,0.3545 0.12355,0.204496 0.232545,0.781079 0.232545,1.642795 0,0.838727 -0.106035,1.403096 -0.232545,1.616437 -0.163539,0.272931 -0.322826,0.354502 -0.608748,0.354502 -0.285925,0 -0.444691,-0.08158 -0.608232,-0.354502 -0.126513,-0.213341 -0.233061,-0.77771 -0.233061,-1.616437 0,-0.861716 0.109511,-1.438299 0.233061,-1.642795 0.163541,-0.272929 0.322307,-0.3545 0.608232,-0.3545 z"
         style="color:#000000;font-style:normal;font-variant:normal;font-weight:normal;font-stretch:normal;font-size:7.51956px;line-height:1.25;font-family:'EPSON 丸ゴシック体Ｍ';-inkscape-font-specification:'EPSON 丸ゴシック体Ｍ, Normal';font-variant-ligatures:normal;font-variant-position:normal;font-variant-caps:normal;font-variant-numeric:normal;font-variant-alternates:normal;font-variant-east-asian:normal;font-feature-settings:normal;font-variation-settings:normal;text-indent:0;text-align:start;text-decoration:none;text-decoration-line:none;text-decoration-style:solid;text-decoration-color:#000000;letter-spacing:normal;word-spacing:normal;text-transform:none;writing-mode:lr-tb;direction:ltr;text-orientation:mixed;dominant-baseline:auto;baseline-shift:baseline;text-anchor:start;white-space:normal;shape-padding:0;shape-margin:0;inline-size:0;clip-rule:nonzero;display:inline;overflow:visible;visibility:visible;isolation:auto;mix-blend-mode:normal;color-interpolation:sRGB;color-interpolation-filters:linearRGB;solid-color:#000000;solid-opacity:1;vector-effect:none;fill:#ffffff;fill-opacity:1;fill-rule:nonzero;stroke:none;stroke-width:0.558535;stroke-linecap:butt;stroke-linejoin:miter;stroke-miterlimit:4;stroke-dasharray:none;stroke-dashoffset:0;stroke-opacity:1;color-rendering:auto;image-rendering:auto;shape-rendering:auto;text-rendering:auto;enable-background:accumulate;stop-color:#000000"
         id="path1972" />
    </g>
    <g
       id="g2751">
      <rect
         style="fill:none;stroke:none;stroke-width:0.532206;stroke-linecap:round;stroke-linejoin:round;stroke-miterlimit:4;stroke-dasharray:none;stroke-opacity:1"
         id="rect2727"
         width="31.75"
         height="31.75"
         x="-70.934067"
         y="-116.89713"
         ry="0.08534947" />
      <g
         id="g2723"
         transform="translate(-49.212954,-178.80611)">
        <path
           id="path1976"
           style="color:#000000;font-style:normal;font-variant:normal;font-weight:normal;font-stretch:normal;font-size:medium;line-height:normal;font-family:sans-serif;font-variant-ligatures:normal;font-variant-position:normal;font-variant-caps:normal;font-variant-numeric:normal;font-variant-alternates:normal;font-variant-east-asian:normal;font-feature-settings:normal;font-variation-settings:normal;text-indent:0;text-align:start;text-decoration:none;text-decoration-line:none;text-decoration-style:solid;text-decoration-color:#000000;letter-spacing:normal;word-spacing:normal;text-transform:none;writing-mode:lr-tb;direction:ltr;text-orientation:mixed;dominant-baseline:auto;baseline-shift:baseline;text-anchor:start;white-space:normal;shape-padding:0;shape-margin:0;inline-size:0;clip-rule:nonzero;display:inline;overflow:visible;visibility:visible;isolation:auto;mix-blend-mode:normal;color-interpolation:sRGB;color-interpolation-filters:linearRGB;solid-color:#000000;solid-opacity:1;vector-effect:none;fill:#000000;fill-opacity:1;fill-rule:nonzero;stroke:none;stroke-width:1.97328;stroke-linecap:round;stroke-linejoin:round;stroke-miterlimit:4;stroke-dasharray:none;stroke-dashoffset:0;stroke-opacity:1;color-rendering:auto;image-rendering:auto;shape-rendering:auto;text-rendering:auto;enable-background:accumulate;stop-color:#000000"
           d="m -14.844891,63.955885 c -0.932773,0 -1.65468,0.805823 -1.65468,1.697053 V 69.1271 c 0,1.056587 1.974557,1.082408 1.974557,0 v -3.198728 h 11.755871 v 5.855457 c -2.91e-4,0.460761 0.373297,0.834356 0.834058,0.834059 h 4.85965 V 89.637521 H -14.525014 V 75.825408 c 0,-1.039728 -1.974557,-1.025933 -1.974557,0 v 14.089097 c 0,0.891228 0.721907,1.697572 1.65468,1.697572 H 3.242894 c 0.93277,0 1.654161,-0.806342 1.654161,-1.697572 V 71.783829 c 5.8e-5,-0.234897 -0.08368,-0.462108 -0.236162,-0.640786 L -1.184743,64.3016 c -0.187512,-0.219437 -0.461703,-0.345768 -0.750342,-0.345715 z m 13.743863,3.480925 3.000851,3.512962 h -3.000851 z"
           sodipodi:nodetypes="sssccccccccccssssccccscccc" />
        <g
           transform="matrix(0.9009901,0,0,0.9009901,-2.9021769,0.6784415)"
           id="g2019">
          <rect
             style="fill:#000000;stroke:none;stroke-width:0.683782;stroke-linecap:round;stroke-linejoin:round;stroke-miterlimit:4;stroke-dasharray:none;stroke-opacity:1"
             id="rect2011"
             width="9.8353157"
             height="1.9670631"
             x="-15.19118"
             y="78.697128"
             ry="0.98353153" />
          <rect
             ry="0.98353153"
             y="9.2899904"
             x="74.763"
             height="1.9670631"
             width="9.8353157"
             id="rect2015"
             style="fill:#000000;stroke:none;stroke-width:0.683782;stroke-linecap:round;stroke-linejoin:round;stroke-miterlimit:4;stroke-dasharray:none;stroke-opacity:1"
             transform="rotate(90)" />
        </g>
        <text
           transform="scale(1.1210473,0.89202302)"
           id="text2023"
           y="94.724236"
           x="-5.3660717"
           style="font-size:8.90024px;line-height:1.25;font-family:sans-serif;text-align:center;text-anchor:middle;stroke:#000000;stroke-width:0.656321;stroke-miterlimit:4;stroke-dasharray:none;stroke-opacity:1"
           xml:space="preserve"><tspan
             style="font-style:normal;font-variant:normal;font-weight:normal;font-stretch:normal;font-size:8.90024px;font-family:'EPSON 丸ゴシック体Ｍ';-inkscape-font-specification:'EPSON 丸ゴシック体Ｍ, Normal';font-variant-ligatures:normal;font-variant-caps:normal;font-variant-numeric:normal;font-variant-east-asian:normal;stroke:#000000;stroke-width:0.656321;stroke-miterlimit:4;stroke-dasharray:none;stroke-opacity:1"
             y="94.724236"
             x="-5.3660717"
             id="tspan2021"
             sodipodi:role="line">NEW</tspan></text>
      </g>
    </g>
    <g
       transform="translate(-1.9475861,-2.2188059)"
       id="g2759">
      <rect
         ry="0.08534947"
         y="-80.282494"
         x="-68.986481"
         height="31.75"
         width="31.75"
         id="rect2729"
         style="fill:none;stroke:none;stroke-width:0.532206;stroke-linecap:round;stroke-linejoin:round;stroke-miterlimit:4;stroke-dasharray:none;stroke-opacity:1" />
      <g
         id="g2120"
         style="opacity:1;fill:#000000"
         transform="matrix(0.04524607,0,0,0.04524607,-64.694475,-75.990488)">
        <path
           id="path2112"
           style="fill:#000000"
           d="M 78.01,78.01 V 512 H 512 V 78.01 Z M 472.987,472.987 H 117.022 V 117.022 h 355.965 z"
           class="st0" />
        <path
           id="path2114"
           style="fill:#000000"
           d="m 142.17,404.714 h 305.67 c 3.055,0 5.859,-1.676 7.306,-4.366 1.448,-2.681 1.303,-5.95 -0.381,-8.494 L 359.911,248.138 c -3.84,-5.82 -10.346,-9.316 -17.324,-9.316 -6.971,0.015 -13.476,3.519 -17.308,9.355 L 258.46,349.863 221.581,308.062 c -4.281,-4.845 -10.574,-7.427 -17.019,-6.962 -6.452,0.457 -12.319,3.901 -15.861,9.301 l -53.464,81.469 c -1.676,2.552 -1.813,5.805 -0.365,8.487 1.447,2.688 4.251,4.357 7.298,4.357 z"
           class="st0" />
        <path
           id="path2116"
           style="fill:#000000"
           d="m 220.065,269.4 c 23.228,0 42.053,-18.824 42.053,-42.052 0,-23.228 -18.825,-42.052 -42.053,-42.052 -23.228,0 -42.06,18.824 -42.06,42.052 0,23.228 18.832,42.052 42.06,42.052 z"
           class="st0" />
        <polygon
           id="polygon2118"
           style="fill:#000000"
           points="0,0 0,433.99 39.013,433.99 39.013,394.978 39.013,39.013 394.978,39.013 433.99,39.013 433.99,0 "
           class="st0" />
      </g>
    </g>
    <g
       transform="translate(-3.1161423,-12.262586)"
       id="g2789">
      <rect
         ry="0.08534947"
         y="67.34462"
         x="-67.817924"
         height="31.75"
         width="31.75"
         id="rect2737"
         style="fill:none;stroke:none;stroke-width:0.532206;stroke-linecap:round;stroke-linejoin:round;stroke-miterlimit:4;stroke-dasharray:none;stroke-opacity:1" />
      <path
         id="path2725"
         style="color:#000000;font-style:normal;font-variant:normal;font-weight:normal;font-stretch:normal;font-size:medium;line-height:normal;font-family:sans-serif;font-variant-ligatures:normal;font-variant-position:normal;font-variant-caps:normal;font-variant-numeric:normal;font-variant-alternates:normal;font-variant-east-asian:normal;font-feature-settings:normal;font-variation-settings:normal;text-indent:0;text-align:start;text-decoration:none;text-decoration-line:none;text-decoration-style:solid;text-decoration-color:#000000;letter-spacing:normal;word-spacing:normal;text-transform:none;writing-mode:lr-tb;direction:ltr;text-orientation:mixed;dominant-baseline:auto;baseline-shift:baseline;text-anchor:start;white-space:normal;shape-padding:0;shape-margin:0;inline-size:0;clip-rule:nonzero;display:inline;overflow:visible;visibility:visible;isolation:auto;mix-blend-mode:normal;color-interpolation:sRGB;color-interpolation-filters:linearRGB;solid-color:#000000;solid-opacity:1;vector-effect:none;fill:#000000;fill-opacity:1;fill-rule:nonzero;stroke:none;stroke-width:1.62616;stroke-linecap:round;stroke-linejoin:round;stroke-miterlimit:4;stroke-dasharray:none;stroke-dashoffset:0;stroke-opacity:1;color-rendering:auto;image-rendering:auto;shape-rendering:auto;text-rendering:auto;enable-background:accumulate;stop-color:#000000"
         d="m -50.04654,71.398253 c -0.77383,-2.8e-4 -1.54782,0.292628 -2.13402,0.878827 l -11.53886,11.538854 c -1.1724,1.172397 -1.1724,3.096123 0,4.26852 l 5.11698,5.11698 0.96027,0.960266 0.87928,0.879286 h 1.25475 15.301694 c 0.509483,0 0.919318,-0.410291 0.919318,-0.919775 0,-0.509483 -0.409913,-0.928727 -0.919318,-0.919777 H -52.41338 l 10.578574,-10.578587 c 1.172398,-1.172398 1.171512,-3.095663 -8.9e-4,-4.268061 L -47.9125,72.277999 c -0.5862,-0.586198 -1.36019,-0.879466 -2.13404,-0.879746 z m 0,1.612716 c 0.35319,2.8e-4 0.70657,0.139239 0.9842,0.416867 l 6.076778,6.076787 c 0.555258,0.555258 0.556142,1.412668 8.9e-4,1.967927 l -5.769878,5.769888 -8.04564,-8.045634 5.76943,-5.769888 c 0.27763,-0.277629 0.63101,-0.416228 0.9842,-0.415947 z" />
    </g>
  </g>
</svg>
