<?xml version="1.0" encoding="UTF-8" standalone="no"?>
<svg
   xmlns:dc="http://purl.org/dc/elements/1.1/"
   xmlns:cc="http://creativecommons.org/ns#"
   xmlns:rdf="http://www.w3.org/1999/02/22-rdf-syntax-ns#"
   xmlns:svg="http://www.w3.org/2000/svg"
   xmlns="http://www.w3.org/2000/svg"
   xmlns:sodipodi="http://sodipodi.sourceforge.net/DTD/sodipodi-0.dtd"
   xmlns:inkscape="http://www.inkscape.org/namespaces/inkscape"
   width="26"
   height="26"
   viewBox="0 0 31.749999 31.750001"
   version="1.1"
   id="eraser"
   inkscape:version="1.0 (4035a4f, 2020-05-01)"
   sodipodi:docname="eraser_.svg">
  <g
     inkscape:label="レイヤー 1"
     inkscape:groupmode="layer"
     id="layer1">
    <path
       d="M 17.994706,2.8939236 C 17.1256,2.8936083 16.256319,3.2225772 15.597953,3.8809435 L 2.6385372,16.840359 c -1.3167326,1.316732 -1.3167321,3.47729 0,4.794022 l 5.7469359,5.746937 1.0784871,1.078486 0.9875368,0.987536 h 1.409216 17.185514 c 0.572206,0 1.032497,-0.460803 1.032497,-1.03301 0,-0.572206 -0.460378,-1.043064 -1.032497,-1.033012 H 15.33647 L 27.217398,15.500389 c 1.316733,-1.316733 1.315738,-3.476773 -10e-4,-4.793506 L 20.391458,3.8819769 C 19.733093,3.2236109 18.863811,2.8942389 17.994706,2.8939236 Z m 0,1.8112588 c 0.396667,3.152e-4 0.79355,0.156381 1.105358,0.4681884 l 6.824907,6.8249062 c 0.623617,0.623617 0.62461,1.586584 0.001,2.210201 l -6.480224,6.480225 -9.036141,-9.036141 6.479708,-6.4802246 c 0.311808,-0.3118083 0.708691,-0.4674701 1.105359,-0.467155 z"
       fill="currentColor"
       id="path844" />
  </g>
</svg>
