<?xml version="1.0" encoding="UTF-8" standalone="no"?>
<svg
   xmlns:dc="http://purl.org/dc/elements/1.1/"
   xmlns:cc="http://creativecommons.org/ns#"
   xmlns:rdf="http://www.w3.org/1999/02/22-rdf-syntax-ns#"
   xmlns:svg="http://www.w3.org/2000/svg"
   xmlns="http://www.w3.org/2000/svg"
   xmlns:sodipodi="http://sodipodi.sourceforge.net/DTD/sodipodi-0.dtd"
   xmlns:inkscape="http://www.inkscape.org/namespaces/inkscape"
   inkscape:version="1.0 (4035a4f, 2020-05-01)"
   sodipodi:docname="help.svg"
   version="1.1"
   viewBox="0 0 512 512"
   id="help"
   height="100%"
   width="100%">
  <g
     id="g865">
    <path
       fill="currentColor"
       d="M 255.99805 34.337891 C 166.397 34.337891 85.49803 88.394265 51.210938 171.17383 C 16.923903 253.95325 35.910968 349.37581 99.267578 412.73242 C 162.62419 476.08903 258.04675 495.07609 340.82617 460.78906 C 423.60574 426.50197 477.66211 345.603 477.66211 256.00195 C 477.66211 133.79989 378.20011 34.337891 255.99805 34.337891 z M 255.99805 71.28125 C 358.2342 71.28125 440.7168 153.7658 440.7168 256.00195 C 440.71679 330.76663 395.76129 398.04882 326.68945 426.6582 C 257.61778 455.26752 178.25763 439.47638 125.39062 386.60938 C 72.52362 333.74237 56.73248 254.38222 85.341797 185.31055 C 113.95118 116.23871 181.23337 71.28125 255.99805 71.28125 z "
       id="path861" />
    <path
       id="path856"
       fill="currentColor"
       d="M 258.49414 126.6875 C 257.6009 126.68295 256.70083 126.68759 255.79297 126.69922 L 255.77344 126.69922 L 255.75586 126.69922 C 239.75893 126.93917 220.36186 130.46762 203.80859 143.79883 C 203.80859 143.79883 203.80664 143.80078 203.80664 143.80078 C 203.80477 143.80229 203.80265 143.80318 203.80078 143.80469 C 177.60702 164.88532 175.20312 193.21875 175.20312 193.21875 A 16.162901 16.162901 0 0 0 190.57227 210.13672 A 16.162901 16.162901 0 0 0 207.49219 194.76758 C 207.49219 194.76758 207.02622 182.69948 224.07227 168.98438 L 224.07617 168.98047 L 224.08008 168.97852 C 233.17436 161.65233 244.52499 159.19883 256.22852 159.02148 C 266.93065 158.88809 276.7915 161.21694 279.67969 162.5918 L 279.68164 162.5918 C 284.52119 164.89542 291.19107 168.76623 296.12305 174.07812 C 301.05502 179.39002 304.48828 185.41693 304.48828 195.43555 C 304.48828 206.92127 301.47452 213.18343 295.74219 219.9082 C 290.00986 226.63298 280.77619 233.20547 269.66016 240.66016 C 243.92831 257.91656 234.06445 281.47065 234.06445 302.18164 A 16.162901 16.162901 0 0 0 250.22656 318.34375 A 16.162901 16.162901 0 0 0 266.38867 302.18164 C 266.38867 289.25073 268.67087 280.24511 287.66406 267.50781 C 298.91055 259.96564 310.67031 252.22482 320.3418 240.87891 C 330.01328 229.53299 336.81445 213.96663 336.81445 195.43555 C 336.81445 176.92666 329.00574 161.98346 319.8125 152.08203 C 310.61926 142.18061 300.2796 136.59606 293.57422 133.4043 C 283.64225 128.6764 271.89281 126.75569 258.49414 126.6875 z M 249.07227 339.125 A 23.089848 23.089848 0 0 0 225.98242 362.21484 A 23.089848 23.089848 0 0 0 249.07227 385.30469 A 23.089848 23.089848 0 0 0 272.16211 362.21484 A 23.089848 23.089848 0 0 0 249.07227 339.125 z " />
  </g>
</svg>
