<?xml version="1.0" encoding="UTF-8" standalone="no"?>
<!-- Created with Inkscape (http://www.inkscape.org/) -->

<svg
   width="290"
   height="28"
   viewBox="0 0 76.729167 7.4083333"
   version="1.1"
   id="svg5"
   inkscape:version="1.2.2 (b0a84865, 2022-12-01)"
   sodipodi:docname="ibe.svg"
   xmlns:inkscape="http://www.inkscape.org/namespaces/inkscape"
   xmlns:sodipodi="http://sodipodi.sourceforge.net/DTD/sodipodi-0.dtd"
   xmlns="http://www.w3.org/2000/svg"
   xmlns:svg="http://www.w3.org/2000/svg">
  <sodipodi:namedview
     id="namedview7"
     pagecolor="#ffffff"
     bordercolor="#000000"
     borderopacity="0.25"
     inkscape:showpageshadow="2"
     inkscape:pageopacity="0.0"
     inkscape:pagecheckerboard="0"
     inkscape:deskcolor="#d1d1d1"
     inkscape:document-units="mm"
     showgrid="false"
     inkscape:zoom="1.1351306"
     inkscape:cx="305.25123"
     inkscape:cy="101.75041"
     inkscape:window-width="1579"
     inkscape:window-height="1051"
     inkscape:window-x="0"
     inkscape:window-y="38"
     inkscape:window-maximized="0"
     inkscape:current-layer="layer1" />
  <defs
     id="defs2" />
  <g
     inkscape:label="Layer 1"
     inkscape:groupmode="layer"
     id="layer1">
    <g
       aria-label="IronBeadsEditor"
       id="text236"
       style="font-weight:800;font-size:16.1333px;font-family:'Hiragino Kaku Gothic StdN';-inkscape-font-specification:'Hiragino Kaku Gothic StdN, Ultra-Bold';fill:#d40000;stroke:#000000;stroke-width:0.516202"
       transform="matrix(0.58795793,0,0,0.58795793,-2.0762951,-1.2752044)">
      <path
         d="M 3.5313668,14.510845 H 8.694023 V 14.09138 C 7.3065592,14.04298 7.1613595,13.89778 7.1613595,12.413516 V 4.5404655 c 0,-1.4681304 0.1290664,-1.6294634 1.4681303,-1.6778633 V 2.4431364 H 3.5959 v 0.4194658 c 1.339064,0.0484 1.4681304,0.2097329 1.4681304,1.6778633 v 7.8730505 c 0,1.484264 -0.1290664,1.629464 -1.5326636,1.677864 z"
         style="font-weight:600;font-family:'Hiragino Mincho ProN';-inkscape-font-specification:'Hiragino Mincho ProN, Semi-Bold';fill:#000000;stroke:none"
         id="path1002" />
      <path
         d="m 9.7426868,6.0892623 v 0.3871992 c 1.0163982,0 1.1615972,0.1935997 1.1615972,1.5649302 v 4.4689243 c 0,1.435864 -0.112933,1.597197 -1.2261305,1.61333 v 0.387199 h 4.4850575 v -0.387199 c -1.193864,-0.0484 -1.290664,-0.161333 -1.290664,-1.61333 V 9.5256554 c 0,-0.7582651 0.129067,-1.3067974 0.387199,-1.7907964 0.274266,-0.4678657 0.596932,-0.7421318 0.903465,-0.7582651 0.01613,0 0.03227,0 0.03227,0 0.258133,0 0.338799,0.1129331 0.467865,0.5646655 0.112934,0.3710659 0.322667,0.5162656 0.758266,0.5162656 0.677598,0 1.161597,-0.4033325 1.161597,-0.9841313 0,-0.693732 -0.580799,-1.2261309 -1.37133,-1.2261309 -0.919598,0 -1.742397,0.6291987 -2.387729,1.823063 0,-0.2097329 0,-0.3710659 0,-0.483999 0,-0.322666 -0.01613,-0.693732 -0.0484,-1.3067974 z"
         style="font-weight:600;font-family:'Hiragino Mincho ProN';-inkscape-font-specification:'Hiragino Mincho ProN, Semi-Bold';fill:#000000;stroke:none"
         id="path1004" />
      <path
         d="m 17.276937,10.364587 c 0,1.242264 0.403332,2.387729 1.113198,3.17826 0.677598,0.758265 1.823063,1.226131 3.03306,1.226131 1.274531,0 2.452262,-0.483999 3.194394,-1.306797 0.661465,-0.742132 1.064798,-1.935996 1.064798,-3.194394 0,-2.6781277 -1.645597,-4.4205242 -4.178525,-4.4205242 -1.226131,0 -2.323196,0.4194658 -3.016928,1.1454644 -0.758265,0.806665 -1.209997,2.0489292 -1.209997,3.3718598 z m 2.177996,-0.08067 c 0,-1.4035976 0.161333,-2.4361289 0.516265,-3.1298608 0.274266,-0.5969321 0.838932,-0.9357315 1.500397,-0.9357315 1.403597,0 2.048929,1.2906641 2.048929,4.1139913 0,2.807195 -0.629198,4.065592 -2.032796,4.065592 -1.387463,0 -2.032795,-1.32293 -2.032795,-4.113991 z"
         style="font-weight:600;font-family:'Hiragino Mincho ProN';-inkscape-font-specification:'Hiragino Mincho ProN, Semi-Bold';fill:#000000;stroke:none"
         id="path1006" />
      <path
         d="m 29.989963,5.8795294 -3.145994,0.2097329 v 0.3871992 c 1.064798,0.016133 1.193864,0.1935997 1.193864,1.5649302 v 4.4689243 c 0,1.435864 -0.112933,1.597197 -1.226131,1.61333 v 0.387199 h 4.404391 v -0.387199 c -1.097064,-0.01613 -1.209997,-0.161333 -1.209997,-1.61333 V 9.2836559 c 0,-0.5323989 0.177466,-1.1938643 0.435599,-1.66173 0.403332,-0.6937319 0.984131,-1.0647978 1.66173,-1.0647978 1.000265,0 1.41973,0.7259985 1.41973,2.468395 v 3.4847929 c 0,1.419731 -0.129066,1.597197 -1.209997,1.61333 v 0.387199 h 4.388258 v -0.387199 c -1.113198,-0.01613 -1.226131,-0.177466 -1.226131,-1.61333 V 8.9287233 c 0,-0.9679981 -0.112933,-1.500397 -0.403333,-1.984396 -0.419466,-0.7421319 -1.145464,-1.0970645 -2.194129,-1.0970645 -1.290664,0 -2.177995,0.5001323 -2.871727,1.6294634 z"
         style="font-weight:600;font-family:'Hiragino Mincho ProN';-inkscape-font-specification:'Hiragino Mincho ProN, Semi-Bold';fill:#000000;stroke:none"
         id="path1008" />
      <path
         d="m 37.540315,14.510845 h 4.775457 c 3.791326,0 5.323989,-0.951864 5.323989,-3.27506 0,-1.9521291 -1.306797,-3.0007937 -3.888125,-3.1298601 V 7.9929918 c 2.468395,-0.2742661 3.46866,-1.0970644 3.46866,-2.8071943 0,-1.8875962 -1.435864,-2.7426611 -4.630258,-2.7426611 h -5.049723 v 0.4194658 c 1.290664,0.016133 1.451997,0.1935996 1.451997,1.6778633 v 7.8730505 c 0,1.484264 -0.145199,1.645597 -1.451997,1.677864 z M 41.073508,7.8155255 V 2.9110021 h 1.242264 c 1.774663,0 2.678128,0.7905317 2.678128,2.3715952 0,1.66173 -0.887331,2.5329282 -2.565195,2.5329282 z m 0,6.2274545 V 8.3317911 h 1.306797 c 0.790532,0 1.484264,0.161333 1.90373,0.4355992 0.677599,0.4517324 1.048664,1.3067977 1.048664,2.3877287 0,1.919863 -1.016398,2.887861 -3.03306,2.887861 z"
         style="font-weight:600;font-family:'Hiragino Mincho ProN';-inkscape-font-specification:'Hiragino Mincho ProN, Semi-Bold';fill:#000000;stroke:none"
         id="path1010" />
      <path
         d="M 56.803455,9.9612545 C 56.771188,8.9448566 56.690522,8.4608575 56.513056,7.9768585 55.980657,6.5893947 54.819059,5.8472628 53.173462,5.8472628 c -2.452261,0 -4.049458,1.7746631 -4.049458,4.4850572 0,2.694262 1.645596,4.420525 4.210791,4.420525 1.66173,0 2.742661,-0.677599 3.549326,-2.210262 L 56.480789,12.28445 c -0.596932,1.177731 -1.548797,1.839196 -2.661995,1.839196 -0.984131,0 -1.726263,-0.532399 -2.194129,-1.597197 C 51.334266,11.848851 51.221333,11.155119 51.2052,9.9612545 Z M 51.221333,9.4933888 c 0.06453,-0.8389316 0.161333,-1.3551973 0.338799,-1.8553296 0.3388,-0.9357314 0.871198,-1.4197305 1.56493,-1.4197305 0.629199,0 1.080932,0.4033326 1.387464,1.2583975 0.177467,0.5001323 0.242,1.0002646 0.274266,2.0166626 z"
         style="font-weight:600;font-family:'Hiragino Mincho ProN';-inkscape-font-specification:'Hiragino Mincho ProN, Semi-Bold';fill:#000000;stroke:none"
         id="path1012" />
      <path
         d="m 66.273695,14.075246 c -1.032531,-0.01613 -1.097064,-0.112933 -1.097064,-1.887596 0,-0.112933 0,-0.419466 0.01613,-0.871198 l 0.01613,-1.4035974 0.01613,-1.4035972 c 0,-1.0002646 -0.1936,-1.5810634 -0.629199,-2.0005293 -0.483999,-0.4517324 -1.274531,-0.6614653 -2.387728,-0.6614653 -1.097065,0 -1.968263,0.1935996 -2.645862,0.6130654 -0.629199,0.3871993 -1.000264,0.9357315 -1.000264,1.500397 0,0.483999 0.387199,0.7421319 1.129331,0.7421319 0.677598,0 0.951864,-0.209733 0.984131,-0.7905318 0.0484,-0.6130654 0.0968,-0.8711982 0.258133,-1.1454643 0.225866,-0.3871993 0.564665,-0.5485323 1.080931,-0.5485323 0.967998,0 1.258397,0.5001324 1.258397,2.2102622 v 1.0486646 c -1.000264,0.0484 -1.855329,0.161333 -2.645861,0.3065327 -1.726263,0.3387998 -2.581328,1.1938638 -2.581328,2.5813278 0,1.451997 0.951865,2.371596 2.484528,2.371596 1.048665,0 1.919863,-0.403333 2.758795,-1.306798 0.08067,0.984132 0.241999,1.226131 0.758265,1.226131 0.419466,0 1.274531,-0.08067 2.226395,-0.1936 z m -3.000794,-2.98466 c 0,0.919598 -0.08067,1.451997 -0.290399,1.871462 -0.306533,0.661466 -0.919598,1.064798 -1.56493,1.064798 -0.790532,0 -1.306798,-0.758265 -1.306798,-1.903729 0,-1.500397 0.822799,-2.097329 3.162127,-2.2747956 z"
         style="font-weight:600;font-family:'Hiragino Mincho ProN';-inkscape-font-specification:'Hiragino Mincho ProN, Semi-Bold';fill:#000000;stroke:none"
         id="path1014" />
      <path
         d="m 72.226862,2.4431364 v 0.3710659 c 1.129331,0.016133 1.226131,0.1290664 1.226131,1.6294633 V 6.766861 C 72.823794,6.1376622 72.113929,5.8472628 71.226597,5.8472628 c -2.258662,0 -3.710659,1.823063 -3.710659,4.6786572 0,1.387464 0.371066,2.516795 1.064798,3.258927 0.596932,0.613065 1.435864,0.967998 2.355462,0.967998 1.064798,0 1.85533,-0.387199 2.645861,-1.274531 l 0.06453,1.177731 2.839461,-0.1452 v -0.371066 c -0.532399,-0.01613 -0.613065,-0.03227 -0.758265,-0.129066 -0.241999,-0.1936 -0.306532,-0.629199 -0.306532,-1.935996 V 5.5568634 c 0,-1.2422642 0.03227,-2.0811958 0.0968,-3.2911934 z m 1.274531,7.7278506 c 0,2.565195 -0.742132,4.081726 -1.984396,4.081726 -0.451733,0 -0.855065,-0.209733 -1.113198,-0.580799 -0.483999,-0.677599 -0.742132,-1.90373 -0.742132,-3.42026 0,-2.5329283 0.693732,-3.9687921 1.919863,-3.9687921 1.242264,0 1.919863,1.3874639 1.919863,3.8881251 z"
         style="font-weight:600;font-family:'Hiragino Mincho ProN';-inkscape-font-specification:'Hiragino Mincho ProN, Semi-Bold';fill:#000000;stroke:none"
         id="path1016" />
      <path
         d="m 77.647646,14.623778 c 0.532399,-0.0968 0.580799,-0.0968 0.822799,-0.0968 0.193599,0 0.387199,0.01613 0.580798,0.0484 0.951865,0.161333 1.177731,0.193599 1.645597,0.193599 1.823063,0 2.903994,-1.016398 2.903994,-2.694261 0,-1.209998 -0.532399,-1.839196 -2.177995,-2.5974615 C 79.970842,8.8157902 79.970842,8.8157902 79.615909,8.541524 79.260976,8.2672579 79.115777,7.9768585 79.115777,7.5573927 c 0,-0.806665 0.564665,-1.339064 1.435863,-1.339064 1.161598,0 1.839197,0.8711983 1.95213,2.516795 h 0.596932 l 0.1452,-2.8233277 c -0.371066,0.1290664 -0.548533,0.161333 -0.774399,0.161333 -0.177466,0 -0.258133,-0.016133 -0.709865,-0.0968 -0.467866,-0.080667 -0.887332,-0.1290664 -1.145464,-0.1290664 -1.823063,0 -2.984661,1.0002647 -2.984661,2.5651948 0,0.5807989 0.177466,1.0486646 0.564666,1.4519971 0.387199,0.4194665 0.790531,0.6775985 1.742396,1.0970645 1.871463,0.871198 2.290929,1.226131 2.290929,2.016663 0,0.887331 -0.596932,1.403597 -1.581064,1.403597 -0.790532,0 -1.355197,-0.322666 -1.806929,-1.016398 -0.258133,-0.419466 -0.3872,-0.855065 -0.483999,-1.693997 h -0.580799 z"
         style="font-weight:600;font-family:'Hiragino Mincho ProN';-inkscape-font-specification:'Hiragino Mincho ProN, Semi-Bold';fill:#000000;stroke:none"
         id="path1018" />
      <path
         d="m 84.95601,14.510845 h 9.050782 l 0.338799,-3.759059 -0.532399,-0.06453 c -0.467865,2.516795 -1.37133,3.355727 -3.549326,3.355727 H 88.489203 V 8.4447242 h 1.161598 c 1.742396,0 2.145729,0.3226661 2.339328,1.8875958 h 0.516266 V 6.1215289 H 91.990129 C 91.812663,7.6380592 91.393197,7.9768585 89.650801,7.9768585 H 88.489203 V 2.9110021 h 1.581064 c 2.274795,0 3.12986,0.7421318 3.468659,2.9846606 l 0.564666,-0.016133 -0.2904,-3.436393 H 84.95601 v 0.4194658 c 1.290664,0.016133 1.451997,0.1935996 1.451997,1.6778633 v 7.8730502 c 0,1.484264 -0.145199,1.645597 -1.451997,1.677864 z"
         style="font-weight:600;font-family:'Hiragino Mincho ProN';-inkscape-font-specification:'Hiragino Mincho ProN, Semi-Bold';fill:#000000;stroke:none"
         id="path1020" />
      <path
         d="m 100.62145,2.4431364 v 0.3710659 c 1.12933,0.016133 1.22613,0.1290664 1.22613,1.6294633 V 6.766861 c -0.6292,-0.6291988 -1.33907,-0.9195982 -2.226398,-0.9195982 -2.258662,0 -3.710659,1.823063 -3.710659,4.6786572 0,1.387464 0.371066,2.516795 1.064798,3.258927 0.596932,0.613065 1.435863,0.967998 2.355462,0.967998 1.064797,0 1.855327,-0.387199 2.645857,-1.274531 l 0.0645,1.177731 2.83946,-0.1452 v -0.371066 c -0.5324,-0.01613 -0.61307,-0.03227 -0.75827,-0.129066 -0.242,-0.1936 -0.30653,-0.629199 -0.30653,-1.935996 V 5.5568634 c 0,-1.2422642 0.0323,-2.0811958 0.0968,-3.2911934 z m 1.27453,7.7278506 c 0,2.565195 -0.74213,4.081726 -1.984399,4.081726 -0.451732,0 -0.855065,-0.209733 -1.113197,-0.580799 -0.483999,-0.677599 -0.742132,-1.90373 -0.742132,-3.42026 0,-2.5329283 0.693732,-3.9687921 1.919863,-3.9687921 1.242265,0 1.919865,1.3874639 1.919865,3.8881251 z"
         style="font-weight:600;font-family:'Hiragino Mincho ProN';-inkscape-font-specification:'Hiragino Mincho ProN, Semi-Bold';fill:#000000;stroke:none"
         id="path1022" />
      <path
         d="m 105.71956,6.0892623 v 0.3871992 c 1.12933,0.016133 1.20999,0.1290665 1.20999,1.5649302 v 4.4689243 c 0,1.435864 -0.11293,1.597197 -1.25839,1.61333 v 0.387199 h 4.48506 v -0.387199 c -1.14547,-0.01613 -1.2584,-0.177466 -1.2584,-1.61333 V 9.0093898 c 0,-1.0325313 0.0323,-2.1618623 0.0968,-3.1298604 z m 1.04866,-2.7587944 c 0,0.645332 0.51627,1.1615977 1.1616,1.1615977 0.64533,0 1.1616,-0.5162657 1.1616,-1.1615977 0,-0.645332 -0.51627,-1.1615977 -1.1616,-1.1615977 -0.64533,0 -1.1616,0.5162657 -1.1616,1.1615977 z"
         style="font-weight:600;font-family:'Hiragino Mincho ProN';-inkscape-font-specification:'Hiragino Mincho ProN, Semi-Bold';fill:#000000;stroke:none"
         id="path1024" />
      <path
         d="m 114.12498,6.605528 h 1.95213 V 6.0892623 h -1.95213 c 0,-1.4681303 0.0161,-1.9682627 0.0484,-2.629728 l -0.80667,0.080666 c -0.1452,0.806665 -0.30653,1.2745308 -0.59693,1.7262632 -0.37107,0.5807988 -0.8228,0.8227983 -1.53266,0.8550649 V 6.605528 h 0.9196 v 5.03359 c 0,1.435864 0.0484,1.823063 0.24199,2.226395 0.30654,0.564666 0.95187,0.887332 1.82307,0.887332 0.83893,0 1.54879,-0.258133 2.21026,-0.806665 l -0.22587,-0.403333 c -0.40333,0.322666 -0.79053,0.500133 -1.12933,0.500133 -0.3388,0 -0.66146,-0.242 -0.79053,-0.596933 -0.11293,-0.322666 -0.16133,-0.742131 -0.16133,-1.451997 z"
         style="font-weight:600;font-family:'Hiragino Mincho ProN';-inkscape-font-specification:'Hiragino Mincho ProN, Semi-Bold';fill:#000000;stroke:none"
         id="path1026" />
      <path
         d="m 117.22254,10.364587 c 0,1.242264 0.40334,2.387729 1.1132,3.17826 0.6776,0.758265 1.82306,1.226131 3.03306,1.226131 1.27453,0 2.45226,-0.483999 3.1944,-1.306797 0.66146,-0.742132 1.06479,-1.935996 1.06479,-3.194394 0,-2.6781277 -1.64559,-4.4205242 -4.17852,-4.4205242 -1.22613,0 -2.3232,0.4194658 -3.01693,1.1454644 -0.75826,0.806665 -1.21,2.0489292 -1.21,3.3718598 z m 2.178,-0.08067 c 0,-1.4035976 0.16133,-2.4361289 0.51627,-3.1298608 0.27426,-0.5969321 0.83893,-0.9357315 1.50039,-0.9357315 1.4036,0 2.04893,1.2906641 2.04893,4.1139913 0,2.807195 -0.6292,4.065592 -2.03279,4.065592 -1.38747,0 -2.0328,-1.32293 -2.0328,-4.113991 z"
         style="font-weight:600;font-family:'Hiragino Mincho ProN';-inkscape-font-specification:'Hiragino Mincho ProN, Semi-Bold';fill:#000000;stroke:none"
         id="path1028" />
      <path
         d="m 126.80571,6.0892623 v 0.3871992 c 1.0164,0 1.1616,0.1935997 1.1616,1.5649302 v 4.4689243 c 0,1.435864 -0.11294,1.597197 -1.22613,1.61333 v 0.387199 h 4.48505 v -0.387199 c -1.19386,-0.0484 -1.29066,-0.161333 -1.29066,-1.61333 V 9.5256554 c 0,-0.7582651 0.12907,-1.3067974 0.3872,-1.7907964 0.27426,-0.4678657 0.59693,-0.7421318 0.90346,-0.7582651 0.0161,0 0.0323,0 0.0323,0 0.25813,0 0.3388,0.1129331 0.46787,0.5646655 0.11293,0.3710659 0.32266,0.5162656 0.75826,0.5162656 0.6776,0 1.1616,-0.4033325 1.1616,-0.9841313 0,-0.693732 -0.5808,-1.2261309 -1.37133,-1.2261309 -0.9196,0 -1.7424,0.6291987 -2.38773,1.823063 0,-0.2097329 0,-0.3710659 0,-0.483999 0,-0.322666 -0.0161,-0.693732 -0.0484,-1.3067974 z"
         style="font-weight:600;font-family:'Hiragino Mincho ProN';-inkscape-font-specification:'Hiragino Mincho ProN, Semi-Bold';fill:#000000;stroke:none"
         id="path1030" />
    </g>
  </g>
</svg>
