<?xml version="1.0" encoding="UTF-8" standalone="no"?>
<svg
   sodipodi:docname="img_remove.svg"
   inkscape:version="1.2.2 (b0a84865, 2022-12-01)"
   id="img_remove"
   version="1.1"
   viewBox="0 0 31.749999 31.750001"
   height="100%"
   width="100%"
   xmlns:inkscape="http://www.inkscape.org/namespaces/inkscape"
   xmlns:sodipodi="http://sodipodi.sourceforge.net/DTD/sodipodi-0.dtd"
   xmlns="http://www.w3.org/2000/svg"
   xmlns:svg="http://www.w3.org/2000/svg"
   xmlns:rdf="http://www.w3.org/1999/02/22-rdf-syntax-ns#"
   xmlns:cc="http://creativecommons.org/ns#"
   xmlns:dc="http://purl.org/dc/elements/1.1/">
  <g
     id="layer1"
     inkscape:groupmode="layer"
     inkscape:label="レイヤー 1">
    <rect
       ry="0.08534947"
       y="4.0869139e-07"
       x="2.8710937e-07"
       height="31.75"
       width="31.75"
       id="rect2729"
       style="fill:none;stroke:none;stroke-width:0.532206;stroke-linecap:round;stroke-linejoin:round;stroke-miterlimit:4;stroke-dasharray:none;stroke-opacity:1" />
    <path
       id="path2112"
       style="fill:currentColor;stroke-width:0.0452461"
       class="st0"
       d="M 7.8217448 7.8217448 L 7.8217448 27.457756 L 27.457756 27.457756 L 27.457756 16.367993 C 26.907968 16.699045 26.316651 16.967382 25.693005 17.16381 L 25.693005 25.693005 L 9.5870117 25.693005 L 9.5870117 9.5870117 L 14.986682 9.5870117 C 14.983606 9.4944626 14.981512 9.401774 14.981514 9.3084757 C 14.981542 8.8008878 15.027923 8.3039476 15.115873 7.8217448 L 7.8217448 7.8217448 z " />
    <path
       id="path2114"
       style="fill:currentColor;stroke-width:0.0452461"
       class="st0"
       d="M 18.607133 16.133382 L 15.986104 20.121769 L 14.317472 18.230412 C 14.123775 18.011195 13.839103 17.894662 13.547493 17.915702 C 13.255566 17.936382 12.990485 18.092021 12.830225 18.336348 L 10.410734 22.022428 C 10.334904 22.137896 10.328688 22.285034 10.394198 22.406384 C 10.459668 22.528005 10.586545 22.603788 10.72441 22.603788 L 24.55509 22.603788 C 24.693317 22.603788 24.820349 22.528098 24.885819 22.406384 C 24.951339 22.285079 24.944449 22.137018 24.86825 22.021912 L 21.835876 17.42736 C 20.65531 17.228128 19.560082 16.778185 18.607133 16.133382 z " />
    <path
       id="path2116"
       style="fill:currentColor;stroke-width:0.0452461"
       d="m 14.249082,16.481297 c 1.050976,0 1.902733,-0.851712 1.902733,-1.902687 0,-1.050976 -0.851757,-1.902688 -1.902733,-1.902688 -1.050975,0 -1.903049,0.851712 -1.903049,1.902688 0,1.050975 0.852074,1.902687 1.903049,1.902687 z"
       class="st0" />
    <path
       id="polygon2118"
       style="fill:currentColor"
       class="st0"
       d="M 0.0052704278 0.0052704278 L 0.0052704278 433.98795 L 39.008662 433.98795 L 39.008662 394.97314 L 39.008662 39.008662 L 251.00894 39.008662 C 257.03181 25.01334 264.75948 11.925455 273.93128 0.0052704278 L 0.0052704278 0.0052704278 z "
       transform="matrix(0.04524607,0,0,0.04524607,4.292006,4.292006)" />
    <path
       id="circle886"
       style="fill:currentColor;stroke:none;stroke-width:0.681764"
       d="M 23.21569,3.0711304 A 6.2376853,6.2376853 0 0 0 16.978101,9.3087203 6.2376853,6.2376853 0 0 0 23.21569,15.546311 6.2376853,6.2376853 0 0 0 29.454017,9.3087203 6.2376853,6.2376853 0 0 0 23.21569,3.0711304 Z m 0,1.8632527 A 4.6681936,4.3739141 0 0 1 27.884498,9.3087203 4.6681936,4.3739141 0 0 1 23.21569,13.682321 4.6681936,4.3739141 0 0 1 18.547621,9.3087203 4.6681936,4.3739141 0 0 1 23.21569,4.9343831 Z" />
    <path
       style="color:currentColor;fill:#ffffff;stroke-width:1.97921;-inkscape-stroke:none"
       d="m 20.324158,5.511456 6.144705,8.145898"
       id="path1526" />
    <rect
       style="fill:currentColor;stroke:none;stroke-width:1.38933"
       id="rect1229"
       width="6.8100162"
       height="1.6870115"
       x="19.81105"
       y="8.4652147" />
  </g>
</svg>
