<?xml version="1.0" encoding="UTF-8" standalone="no"?>
<svg
   xmlns:dc="http://purl.org/dc/elements/1.1/"
   xmlns:cc="http://creativecommons.org/ns#"
   xmlns:rdf="http://www.w3.org/1999/02/22-rdf-syntax-ns#"
   xmlns:svg="http://www.w3.org/2000/svg"
   xmlns="http://www.w3.org/2000/svg"
   xmlns:sodipodi="http://sodipodi.sourceforge.net/DTD/sodipodi-0.dtd"
   xmlns:inkscape="http://www.inkscape.org/namespaces/inkscape"
   width="120"
   height="120"
   viewBox="0 0 31.749999 31.750001"
   version="1.1"
   id="svg8"
   inkscape:version="1.0 (4035a4f, 2020-05-01)"
   sodipodi:docname="replace.svg">
  <defs
     id="defs2" />
  <sodipodi:namedview
     inkscape:snap-bbox-midpoints="true"
     inkscape:snap-bbox-edge-midpoints="true"
     inkscape:bbox-nodes="true"
     inkscape:bbox-paths="true"
     inkscape:snap-bbox="true"
     id="base"
     pagecolor="#ffffff"
     bordercolor="#666666"
     borderopacity="1.0"
     inkscape:pageopacity="0.0"
     inkscape:pageshadow="2"
     inkscape:zoom="1.3585185"
     inkscape:cx="96.913052"
     inkscape:cy="63.386011"
     inkscape:document-units="px"
     inkscape:current-layer="layer1"
     inkscape:document-rotation="0"
     showgrid="false"
     units="px"
     inkscape:showpageshadow="false"
     borderlayer="true"
     inkscape:window-width="1663"
     inkscape:window-height="1027"
     inkscape:window-x="1940"
     inkscape:window-y="25"
     inkscape:window-maximized="0"
     inkscape:snap-global="false" />
  <metadata
     id="metadata5">
    <rdf:RDF>
      <cc:Work
         rdf:about="">
        <dc:format>image/svg+xml</dc:format>
        <dc:type
           rdf:resource="http://purl.org/dc/dcmitype/StillImage" />
        <dc:title></dc:title>
      </cc:Work>
    </rdf:RDF>
  </metadata>
  <g
     inkscape:label="レイヤー 1"
     inkscape:groupmode="layer"
     id="layer1">
    <g
       id="g2785"
       transform="matrix(0.82824428,0,0,0.82824428,58.251197,-22.402692)">
      <rect
         ry="0.08534947"
         y="30.340462"
         x="-67.038887"
         height="31.75"
         width="31.75"
         id="rect2735"
         style="fill:none;stroke:none;stroke-width:0.532206;stroke-linecap:round;stroke-linejoin:round;stroke-miterlimit:4;stroke-dasharray:none;stroke-opacity:1" />
      <g
         transform="matrix(0.05959789,0,0,0.05959789,-66.420947,30.958388)"
         style="opacity:1;fill:#000000"
         id="g1348">
        <path
           class="st0"
           d="m 231.137,410.58 c -37.33,0 -71.105,-10.204 -96.871,-28.027 -25.832,-17.955 -43.85,-43.075 -50.826,-74.464 -2.002,-9.037 -2.971,-18.214 -2.971,-27.447 0,-30.676 10.785,-62.316 30.481,-90.672 -8.524,-6.136 -16.53,-13.754 -23.571,-22.729 -24.669,34.031 -39.136,73.36 -39.2,113.401 0,11.498 1.227,22.994 3.746,34.359 8.653,39.65 32.095,72.136 63.934,94.09 31.903,21.96 72.073,33.779 115.277,33.779 23.506,0 47.982,-3.488 72.588,-10.848 l -21.31,-27.643 c -17.501,4.201 -34.743,6.201 -51.277,6.201 z"
           style="fill:#000000"
           id="path1330" />
        <path
           class="st0"
           d="M 452.068,133.078 C 436.244,109.44 413.77,91.226 387.421,79.023 361.009,66.813 330.784,60.55 299.011,60.487 c -24.54,0 -50.05,3.746 -75.558,11.56 -10.788,3.292 -21.184,7.17 -31.193,11.686 0.129,0.196 0.258,0.328 0.388,0.517 6.328,8.912 11.431,18.34 15.048,27.838 8.072,-3.488 16.467,-6.528 25.12,-9.17 22.54,-6.849 44.885,-10.142 66.195,-10.142 27.576,0 53.216,5.487 74.785,15.565 21.698,10.009 39.265,24.476 51.406,42.684 4.585,6.849 6.329,12.79 6.329,17.312 -0.063,2.97 -0.646,5.424 -2.194,8.136 -1.164,2 -2.907,4.2 -5.62,6.395 -4.005,3.356 -10.204,6.906 -19.05,9.814 -8.785,2.908 -20.15,5.234 -34.163,6.458 -16.792,1.425 -30.805,7.555 -40.558,17.242 -9.75,9.561 -14.723,22.414 -14.723,34.939 0,13.755 5.812,27.384 16.533,37.329 10.655,10.009 26.091,16.013 43.914,15.95 1.097,0 2.194,0 3.358,-0.062 h 0.129 c 1.034,-0.064 2.132,-0.064 3.163,-0.064 6.587,0 11.431,0.839 14.855,2 5.102,1.747 7.105,3.746 8.46,5.682 1.29,1.936 2.066,4.522 2.066,7.624 0,2.384 -0.451,4.907 -1.227,6.969 -0.709,2.132 -1.744,3.746 -2.132,4.2 -10.525,12.204 -22.732,23.574 -36.424,33.647 l 17.889,26.866 c 16.082,-11.623 30.484,-24.993 43.012,-39.461 3.68,-4.326 6.266,-9.233 8.202,-14.594 1.807,-5.423 2.97,-11.302 2.97,-17.627 0,-5.493 -0.905,-11.371 -3.1,-17.116 -3.292,-8.652 -9.946,-16.984 -19.438,-22.344 -9.495,-5.487 -21.184,-8.136 -35.134,-8.136 -1.486,0 -3.034,0.063 -4.714,0.126 h -1.936 c -10.913,-0.062 -17.63,-3.355 -21.893,-7.296 -4.26,-4.006 -6.2,-8.975 -6.263,-13.692 0.063,-4.326 1.549,-8.394 5.165,-12.008 3.617,-3.557 9.817,-7.045 20.667,-8.01 28.349,-2.522 49.792,-8.848 65.483,-19.374 7.817,-5.297 14.146,-11.756 18.472,-19.311 4.39,-7.492 6.521,-15.95 6.521,-24.281 -0.001,-12.594 -4.586,-24.539 -11.753,-35.26 z"
           style="fill:#000000"
           id="path1332" />
        <path
           class="st0"
           d="m 393.485,176.72 c 5.291,-5.298 8.325,-12.607 8.325,-20.093 0,-7.486 -3.034,-14.802 -8.325,-20.1 -5.298,-5.285 -12.608,-8.318 -20.093,-8.318 -7.486,0 -14.802,3.033 -20.094,8.318 -5.291,5.298 -8.324,12.613 -8.324,20.1 0,7.486 3.033,14.795 8.324,20.093 5.292,5.291 12.608,8.324 20.094,8.324 7.485,10e-4 14.795,-3.032 20.093,-8.324 z"
           style="fill:#000000"
           id="path1334" />
        <path
           class="st0"
           d="m 159.79,245.262 c 4.27,-12.859 -2.699,-26.747 -15.565,-31.023 -12.859,-4.27 -26.747,2.692 -31.022,15.558 -4.27,12.859 2.699,26.747 15.565,31.029 12.852,4.264 26.746,-2.698 31.022,-15.564 z"
           style="fill:#000000"
           id="path1336" />
        <path
           class="st0"
           d="m 160.137,342.631 c 8.823,-9.327 8.413,-24.041 -0.908,-32.864 -9.328,-8.829 -24.041,-8.419 -32.864,0.909 -8.83,9.321 -8.426,24.035 0.902,32.864 9.32,8.822 24.04,8.412 32.87,-0.909 z"
           style="fill:#000000"
           id="path1338" />
        <path
           class="st0"
           d="m 281.932,162.915 c 14.877,-1.728 25.542,-15.193 23.808,-30.071 -1.728,-14.878 -15.193,-25.536 -30.071,-23.808 -14.884,1.728 -25.542,15.187 -23.808,30.071 1.728,14.878 15.187,25.542 30.071,23.808 z"
           style="fill:#000000"
           id="path1340" />
        <path
           class="st0"
           d="m 99.435,151.078 c 15.133,21.096 36.721,35.172 56.348,36.762 l 0.823,0.075 36.85,-26.438 0.195,-0.801 C 198.425,141.573 192.005,116.605 176.879,95.521 162.522,75.517 145.803,61.793 129.626,48.511 118.589,39.455 107.167,30.077 96.509,18.731 87.685,9.334 84.715,4.692 84.705,4.68 L 81.845,0 l -2.4,2.826 c -11.14,13.156 -15.593,36.869 -12.238,65.048 3.516,29.59 14.972,59.15 32.228,83.204 z m 8.214,-35.022 c 12.018,13.598 17.631,4.692 10.4,-9.17 -9.079,-17.388 0.097,-18.012 5.682,-12.601 5.566,5.392 12.541,17.476 18.548,14.014 3.61,-2.081 -0.268,-9.568 -5.38,-20.913 -2.933,-6.496 -0.4,-16.24 14.701,-3.236 5.515,5.544 10.747,11.523 15.619,18.309 10.563,14.707 15.564,32.428 13.121,46.329 l -31.55,22.642 c -13.963,-2.132 -29.121,-12.551 -39.697,-27.284 -4.049,-5.651 -7.761,-11.768 -11.078,-18.201 -0.356,-0.921 -0.763,-1.904 -1.236,-2.946 -5.269,-11.597 -1.147,-20.527 10.87,-6.943 z"
           style="fill:#000000"
           id="path1342" />
        <path
           class="st0"
           d="m 215.431,183.86 c -7.707,-3.147 -15.038,-2.794 -20.266,0.952 l -16.993,12.197 c -5.235,3.746 -7.909,10.589 -7.408,18.888 0.511,8.306 4.156,17.363 10.078,25.05 l 26.851,34.813 52.614,-37.746 -24.375,-36.579 c -5.381,-8.084 -12.795,-14.428 -20.501,-17.575 z"
           style="fill:#000000"
           id="path1344" />
        <path
           class="st0"
           d="m 268.971,251.026 -51.722,37.103 160.229,207.73 c 11.109,14.411 27.509,20.182 37.323,13.156 l 0.116,-0.101 c 9.807,-7.032 9.586,-24.42 -0.501,-39.562 z"
           style="fill:#000000"
           id="path1346" />
      </g>
    </g>
  </g>
</svg>
