<?xml version="1.0" encoding="UTF-8" standalone="no"?>
<svg
   xmlns:dc="http://purl.org/dc/elements/1.1/"
   xmlns:cc="http://creativecommons.org/ns#"
   xmlns:rdf="http://www.w3.org/1999/02/22-rdf-syntax-ns#"
   xmlns:svg="http://www.w3.org/2000/svg"
   xmlns="http://www.w3.org/2000/svg"
   xmlns:sodipodi="http://sodipodi.sourceforge.net/DTD/sodipodi-0.dtd"
   xmlns:inkscape="http://www.inkscape.org/namespaces/inkscape"
   width="26"
   height="26"
   viewBox="0 0 18 18"
   version="1.1"
   id="reverse"
   sodipodi:docname="reverse_.svg"
   inkscape:version="1.0 (4035a4f, 2020-05-01)">
  <g
     transform="matrix(0.78125091,0,0,0.78125091,1.9687419,1.9689327)"
     id="g838">
    <path
       style="fill:currentColor"
       id="path7"
       d="m 17.6,4.2 -4,-3 A 1,1 0 0 0 12.55,1.11 0.977,0.977 0 0 0 12,2 V 4 H 1 A 1,1 0 0 0 1,6 H 12 V 8 A 0.988,0.988 0 0 0 12.55,8.89 0.99,0.99 0 0 0 13.6,8.8 l 4,-3 a 1,1 0 0 0 0,-1.6 z"
       fill="#494c4e" />
    <path
       style="fill:currentColor"
       id="path9"
       d="m 0.4,12.2 4,-3 A 1,1 0 0 1 5.45,9.11 0.977,0.977 0 0 1 6,10 v 2 h 11 a 1,1 0 0 1 0,2 H 6 v 2 A 0.988,0.988 0 0 1 5.45,16.89 0.99,0.99 0 0 1 4.4,16.8 l -4,-3 a 1,1 0 0 1 0,-1.6 z"
       fill="#494c4e" />
  </g>
</svg>
