<?xml version="1.0" encoding="UTF-8" standalone="no"?>
<svg
   xmlns:dc="http://purl.org/dc/elements/1.1/"
   xmlns:cc="http://creativecommons.org/ns#"
   xmlns:rdf="http://www.w3.org/1999/02/22-rdf-syntax-ns#"
   xmlns:svg="http://www.w3.org/2000/svg"
   xmlns="http://www.w3.org/2000/svg"
   xmlns:sodipodi="http://sodipodi.sourceforge.net/DTD/sodipodi-0.dtd"
   xmlns:inkscape="http://www.inkscape.org/namespaces/inkscape"
   inkscape:version="1.0 (4035a4f, 2020-05-01)"
   sodipodi:docname="ruler-svgrepo-com.svg"
   xml:space="preserve"
   viewBox="0 0 490 490"
   id="ruler"
   version="1.1"
   width="26"
   height="26"
   >
<path
   fill="currentColor"
   d="M 439.47009,88.695701 362.97371,24.288383 c -4.2249,-3.557217 -10.53316,-3.015989 -14.09037,1.208906 L 46.168943,385.03031 c -3.55722,4.22489 -3.01599,10.53315 1.20891,14.09037 L 123.87424,463.528 c 4.22489,3.55721 10.53315,3.01599 14.09037,-1.20891 L 440.679,102.78607 c 3.55722,-4.224893 3.01599,-10.533152 -1.20891,-14.090369 z M 129.10606,441.78799 67.908953,390.26213 l 28.983291,-34.42337 30.598556,25.76293 12.88146,-15.29928 -30.59855,-25.76293 38.64439,-45.89783 30.59855,25.76293 12.88147,-15.29928 -30.59856,-25.76293 45.08513,-53.54747 30.59855,25.76293 12.88147,-15.29928 -30.59856,-25.76293 45.08512,-53.54747 30.59856,25.76293 12.88146,-15.29928 -30.59855,-25.76292 38.64439,-45.897836 30.59855,25.762926 12.88146,-15.29928 -30.59855,-25.762924 28.98329,-34.423374 61.19711,51.525855 z"
   id="path11" />
</svg>
