<?xml version="1.0" encoding="UTF-8" standalone="no"?>
<!-- Uploaded to: SVG Repo, www.svgrepo.com, Generator: SVG Repo Mixer Tools -->

<svg
   fill="currentColor"
   width="100%"
   height="100%"
   viewBox="0 0 32 32"
   version="1.1"
   id="sizeup"
   sodipodi:docname="sizeup.svg"
   inkscape:version="1.2.2 (b0a84865, 2022-12-01)"
   xmlns:inkscape="http://www.inkscape.org/namespaces/inkscape"
   xmlns:sodipodi="http://sodipodi.sourceforge.net/DTD/sodipodi-0.dtd"
   xmlns="http://www.w3.org/2000/svg"
   xmlns:svg="http://www.w3.org/2000/svg">
  <defs
     id="defs188" />
  <sodipodi:namedview
     id="namedview186"
     pagecolor="#ffffff"
     bordercolor="currentColor"
     borderopacity="0.25"
     inkscape:showpageshadow="2"
     inkscape:pageopacity="0.0"
     inkscape:pagecheckerboard="0"
     inkscape:deskcolor="#d1d1d1"
     showgrid="false"
     inkscape:zoom="0.39818951"
     inkscape:cx="7.534101"
     inkscape:cy="229.79008"
     inkscape:window-width="1652"
     inkscape:window-height="1051"
     inkscape:window-x="0"
     inkscape:window-y="38"
     inkscape:window-maximized="0"
     inkscape:current-layer="svg184" />
  <path
     style="stroke-width:0.774312;stroke:currentColor;stroke-opacity:1"
     d="m 25.70688,26.796363 -3.660172,0.0093 c -0.312822,-0.007 -0.603189,0.209065 -0.650422,0.576863 l 7.74e-4,0.397996 c 0.0077,0.312822 0.266363,0.572217 0.579185,0.579185 h 5.553366 c 0.0062,0 0.01007,0.0023 0.01549,0.0023 l 0.331406,0.007 c 0.155636,0.0046 0.297335,-0.105306 0.396447,-0.206741 0.101435,-0.100661 0.137828,-0.240811 0.134731,-0.397996 l -0.03097,-0.283399 c 0,-0.0062 0.02091,-0.0093 0.02091,-0.01471 l -0.01626,-5.589758 c -0.007,-0.312822 -0.265589,-0.498657 -0.579185,-0.5064 l -0.421226,-7.74e-4 c -0.312822,-0.007 -0.561376,0.265589 -0.553633,0.578411 l 0.02091,3.739153 -6.467053,-6.364845 c -0.301982,-0.302756 -0.792122,-0.302756 -1.094877,0 -0.302756,0.302756 -0.302756,0.792121 0,1.094877 z"
     id="path425" />
  <path
     style="stroke-width:0.774312;stroke:currentColor;stroke-opacity:1"
     d="m 3.7288869,28.191579 c 0.100661,0.101435 0.240811,0.162605 0.396448,0.158734 l 0.283398,-0.007 c 0.0054,0 0.0093,-0.0023 0.01549,-0.0023 l 5.554139,0.02478 c 0.3128221,-0.007 0.5714421,-0.265589 0.5791851,-0.578411 l 7.75e-4,-0.397996 c -0.04801,-0.368573 -0.3376,-0.584606 -0.6504231,-0.576863 l -3.660172,-0.0093 6.4190461,-6.378783 c 0.302756,-0.301981 0.302756,-0.792121 0,-1.094877 -0.302756,-0.302756 -0.792895,-0.301981 -1.094877,0 l -6.4430501,6.402012 0.02168,-3.777094 c 0.007,-0.312822 -0.241585,-0.58538 -0.554407,-0.578411 l -0.397222,7.74e-4 c -0.313597,0.0077 -0.572217,0.193578 -0.579186,0.5064 l -0.01626,5.589758 c 0,0.0054 0.02091,0.0085 0.02091,0.01471 l -0.03097,0.307402 c -0.0039,0.157185 0.0333,0.297336 0.13473,0.397997 z"
     id="path423" />
  <path
     style="stroke-width:0.774312;stroke:currentColor;stroke-opacity:1"
     d="m 28.270571,3.8055386 c -0.09989,-0.10066 -0.240811,-0.162605 -0.396448,-0.158734 l -0.283398,0.0062 c -0.0054,0 -0.0093,0.0015 -0.01549,0.0031 l -5.553366,-0.024 c -0.312822,0.007 -0.571442,0.266363 -0.578411,0.579185 l -7.74e-4,0.397222 c 0.04723,0.368572 0.3376,0.584605 0.650422,0.577637 l 3.655527,0.0093 -6.415175,6.3547784 c -0.302756,0.302756 -0.302756,0.792896 0,1.094878 0.302756,0.301981 0.792121,0.302756 1.094877,0 l 6.442276,-6.3811054 -0.02091,3.7561874 c -0.007,0.312822 0.240811,0.58538 0.553634,0.578411 l 0.397222,-7.74e-4 c 0.313596,-0.0077 0.572216,-0.193578 0.579185,-0.5064 l 0.01626,-5.5897584 c 0,-0.0054 -0.02091,-0.0093 -0.02091,-0.01549 l 0.03097,-0.283399 c 0.0039,-0.157185 -0.0333,-0.297335 -0.134731,-0.397996 z"
     id="path421" />
  <path
     style="stroke-width:0.774312;stroke:currentColor;stroke-opacity:1"
     d="m 3.6035819,4.5006209 0.01626,5.5897581 c 0.007,0.312822 0.266364,0.498656 0.579186,0.5064 l 0.397222,7.74e-4 c 0.313596,0.007 0.561376,-0.265589 0.554407,-0.578411 l -0.02168,-3.7561871 6.4430501,6.3818791 c 0.302756,0.302756 0.792895,0.302756 1.094877,0 0.301982,-0.302756 0.302756,-0.792896 0,-1.094877 l -6.4151741,-6.3547791 3.6555264,-0.0093 c 0.3128217,0.007 0.6031887,-0.209065 0.6504217,-0.577637 l -7.74e-4,-0.397222 c -0.0077,-0.313596 -0.266363,-0.572217 -0.5791853,-0.579185 l -5.5533648,0.024 c -0.0062,-7.74e-4 -0.01007,-0.0023 -0.01549,-0.0023 l -0.283398,-0.0062 c -0.155637,-0.0039 -0.296561,0.0573 -0.396448,0.158734 -0.102209,0.10066 -0.137827,0.240811 -0.135504,0.397996 l 0.03097,0.283398 c -7.74e-4,0.0054 -0.02091,0.0093 -0.02091,0.01471 z"
     id="path182" />
</svg>
