<?xml version="1.0" encoding="UTF-8" standalone="no"?>
<svg
   width="26"
   height="26"
   viewBox="0 0 512 512"
   version="1.1"
   id="undo"
   sodipodi:docname="undo.svg"
   inkscape:version="1.2.2 (b0a84865, 2022-12-01)"
   xmlns:inkscape="http://www.inkscape.org/namespaces/inkscape"
   xmlns:sodipodi="http://sodipodi.sourceforge.net/DTD/sodipodi-0.dtd"
   xmlns="http://www.w3.org/2000/svg"
   xmlns:svg="http://www.w3.org/2000/svg">
  <path

     d="m 453.20852,439.13 a 16,16 0 0 0 10.79,-15.13 c 0,-73.1 -14.68,-131.56 -43.65,-173.77 -35,-51 -90.21,-78.46 -164.35,-81.87 V 88 a 16,16 0 0 0 -27.05,-11.57 l -175.999995,168 a 16,16 0 0 0 0,23.14 l 175.999995,168 a 16,16 0 0 0 27.05,-11.57 v -79.77 c 45,1.36 79,8.65 106.07,22.64 29.25,15.12 50.46,37.71 73.32,67 a 16,16 0 0 0 17.82,5.28 z"
     fill="currentColor" />
</svg>
