<?xml version="1.0" encoding="UTF-8" standalone="no"?>
<svg
   xmlns:dc="http://purl.org/dc/elements/1.1/"
   xmlns:cc="http://creativecommons.org/ns#"
   xmlns:rdf="http://www.w3.org/1999/02/22-rdf-syntax-ns#"
   xmlns:svg="http://www.w3.org/2000/svg"
   xmlns="http://www.w3.org/2000/svg"
   xmlns:sodipodi="http://sodipodi.sourceforge.net/DTD/sodipodi-0.dtd"
   xmlns:inkscape="http://www.inkscape.org/namespaces/inkscape"
   sodipodi:docname="up_.svg"
   inkscape:version="1.0 (4035a4f, 2020-05-01)"
   id="up"
   version="1.1"
   viewBox="0 0 31.749999 31.750001"
   height="100%"
   width="100%">
  <g
     id="layer1"
     inkscape:groupmode="layer"
     inkscape:label="レイヤー 1">
    <g
       transform="translate(66.649376,-133.9521)"
       id="g2974">
      <rect
         ry="0.08534947"
         y="133.9521"
         x="-66.649376"
         height="31.75"
         width="31.75"
         id="rect2741"
         style="fill:none;stroke:none;stroke-width:0.532206;stroke-linecap:round;stroke-linejoin:round;stroke-miterlimit:4;stroke-dasharray:none;stroke-opacity:1" />
      <path
         d="m -50.774969,163.96011 a 1.0592594,1.0592594 0 0 0 1.0604,-1.06092 v -14.40636 l 3.3538,3.3538 c 0.344998,0.34358 0.863285,0.33105 1.251603,0.0646 l 0.07855,0.0176 0.08165,-0.0842 c 0.38731,-0.38838 0.389077,-1.02316 0.0021,-1.4118 l -5.109247,-5.10976 c -0.189143,-0.18848 -0.447799,-0.29072 -0.714687,-0.28887 -0.270304,-0.004 -0.529992,0.10149 -0.720887,0.293 l -5.10718,5.10563 c -0.38911,0.38801 -0.389729,1.02446 -0.0021,1.41387 0.19448,0.19497 0.450128,0.29301 0.706933,0.29301 0.256804,0 0.514522,-0.098 0.709001,-0.29301 l 3.351734,-3.35173 v 14.40428 a 1.0592594,1.0592594 0 0 0 1.058333,1.06092 z"
         fill="currentColor"
         id="path1962" />
      <path
         id="path2958"
         fill="currentColor"
         d="m -60.254211,135.71852 c -0.453229,0 -0.82493,0.37152 -0.82493,0.82493 v 7.47943 c 0,0.4534 0.371701,0.82493 0.82493,0.82493 h 8.490731 0.78678 9.684659 c 0.453227,0 0.822431,-0.37171 0.822431,-0.82493 v -7.47943 c 0,-0.45322 -0.369204,-0.82493 -0.822431,-0.82493 h -9.684659 -0.78678 z m 7.282415,1.45911 v 6.3e-4 c 0.524681,0 1.000473,0.16132 1.337151,0.46219 0.370091,0.32704 0.555376,0.75388 0.555376,1.2327 0,0.12655 -0.02089,0.25272 -0.124461,0.36963 -0.103574,0.11691 -0.303415,0.18575 -0.469065,0.18575 -0.165926,0 -0.363643,-0.0737 -0.462811,-0.18575 -0.09918,-0.11195 -0.126601,-0.23168 -0.134466,-0.35587 v -0.002 c -0.01594,-0.28136 -0.09938,-0.4686 -0.215146,-0.58539 -0.128269,-0.13081 -0.25446,-0.1795 -0.486578,-0.1795 -0.219706,0 -0.35128,0.0425 -0.474695,0.14323 v 0.002 c -0.139831,0.11364 -0.227654,0.28845 -0.227654,0.57976 0,0.44237 0.271693,0.74513 0.990044,1.00756 0.581829,0.20952 1.033757,0.48528 1.329646,0.83556 0.275046,0.3207 0.419031,0.68266 0.419031,1.06258 0,0.47125 -0.168276,0.88266 -0.524728,1.18206 -0.3605,0.30243 -0.869687,0.45656 -1.43972,0.45656 -0.543848,0 -1.032153,-0.14023 -1.392191,-0.41904 l -0.0025,-0.001 c -0.455031,-0.35972 -0.677958,-0.862 -0.677958,-1.44535 0,-0.11546 0.03227,-0.24495 0.148852,-0.35024 0.116573,-0.10529 0.298463,-0.1501 0.447801,-0.1501 0.148163,0 0.322943,0.0519 0.431541,0.1501 0.108598,0.0982 0.146963,0.21324 0.160109,0.32396 v 0.001 0.001 c 0.04532,0.45231 0.189865,0.7119 0.258923,0.76551 v 0.002 c 0.164486,0.12246 0.349244,0.1795 0.625424,0.1795 0.368978,0 0.531366,-0.0677 0.620418,-0.16824 v -0.002 c 0.08755,-0.098 0.153229,-0.26719 0.153229,-0.5266 0,-0.21517 -0.06345,-0.38229 -0.19138,-0.53036 -0.123008,-0.14263 -0.442653,-0.35215 -0.958771,-0.56976 h -0.0019 c -1.004871,-0.42773 -1.586071,-1.05633 -1.586071,-1.8056 0,-0.45453 0.171453,-0.86071 0.517225,-1.17392 0.346298,-0.31821 0.83584,-0.49283 1.375303,-0.49283 z m 4.540564,0 c 0.665585,0 1.244536,0.29276 1.62422,0.78429 0.367062,0.47152 0.484077,1.22511 0.484077,2.33594 0,1.0875 -0.117723,1.8321 -0.480949,2.30469 -0.379655,0.49306 -0.96061,0.78615 -1.627348,0.78615 -0.666744,0 -1.247072,-0.29309 -1.626723,-0.78615 -0.363227,-0.47259 -0.481576,-1.21719 -0.481576,-2.30469 0,-1.11083 0.116391,-1.86442 0.483452,-2.33594 0.379687,-0.49153 0.959259,-0.78429 1.624847,-0.78429 z m -8.072323,0.0282 c 0.157495,0 0.349698,0.057 0.459686,0.16886 0.110001,0.11182 0.136966,0.23782 0.136966,0.35837 v 3.79005 c 0,0.57166 -0.135563,1.02761 -0.481572,1.34467 -0.372101,0.33939 -0.897439,0.52097 -1.483501,0.52097 -0.550448,0 -1.045627,-0.17457 -1.382184,-0.49846 -0.333597,-0.32366 -0.474694,-0.76951 -0.474694,-1.31026 0,-0.12054 0.02698,-0.24842 0.136966,-0.36025 0.110001,-0.11183 0.300312,-0.16886 0.457809,-0.16886 0.157496,0 0.349696,0.057 0.459687,0.16886 0.110001,0.11183 0.136341,0.23971 0.136341,0.36025 0,0.31197 0.07391,0.5574 0.20889,0.75176 0.04478,0.0638 0.137049,0.1157 0.457185,0.1157 0.291467,0 0.438975,-0.0582 0.558502,-0.18013 0.109892,-0.11134 0.215767,-0.38847 0.215767,-0.82931 v -3.70499 c 0,-0.12055 0.02385,-0.24655 0.133841,-0.35837 0.110001,-0.11183 0.302812,-0.16886 0.460311,-0.16886 z m 11.316387,0 c 0.180262,0 0.338798,0.0782 0.440922,0.16698 0.101662,0.0884 0.17208,0.19051 0.235157,0.31209 v 0.002 l 1.502265,2.82941 v -2.78376 c 0,-0.12054 0.02633,-0.24654 0.136341,-0.35837 0.109989,-0.11183 0.302815,-0.16886 0.460311,-0.16886 0.157498,0 0.347822,0.057 0.457809,0.16886 0.110001,0.11183 0.136342,0.23783 0.136342,0.35837 v 5.0703 c 0,0.12203 -0.01531,0.23879 -0.103188,0.35461 -0.08788,0.11582 -0.288072,0.20202 -0.455307,0.20202 -0.171969,0 -0.316579,-0.0769 -0.404648,-0.15511 -0.08808,-0.0783 -0.147505,-0.16667 -0.201387,-0.26894 l -1.681759,-3.23342 v 3.12961 c 0,0.12054 -0.02696,0.24779 -0.136966,0.35962 -0.110001,0.11183 -0.302812,0.16824 -0.460311,0.16824 -0.157498,0 -0.347197,-0.0564 -0.457185,-0.16824 -0.110001,-0.11183 -0.136966,-0.23908 -0.136966,-0.35962 v -4.72819 c 0,-0.22736 0.02384,-0.40926 0.108198,-0.57227 0.08436,-0.16302 0.312691,-0.32584 0.560378,-0.32584 z m -3.244064,0.91311 c -0.311877,0 -0.485188,0.0888 -0.663574,0.38651 -0.13476,0.22306 -0.254547,0.85253 -0.254547,1.79246 0,0.91485 0.116549,1.53036 0.254547,1.76307 0.178386,0.29772 0.351697,0.38651 0.663574,0.38651 0.311871,0 0.485188,-0.0888 0.663571,-0.38651 0.137988,-0.23271 0.253921,-0.84822 0.253921,-1.76307 0,-0.93993 -0.119162,-1.5694 -0.253921,-1.79246 -0.178383,-0.29771 -0.3517,-0.38651 -0.663571,-0.38651 z" />
    </g>
  </g>
</svg>
