<?xml version="1.0" encoding="UTF-8" standalone="no"?>
<svg
   sodipodi:docname="upload.svg"
   inkscape:version="1.2.2 (b0a84865, 2022-12-01)"
   id="upload"
   version="1.1"
   viewBox="0 0 31.749999 31.750001"
   height="120"
   width="120"
   xmlns:inkscape="http://www.inkscape.org/namespaces/inkscape"
   xmlns:sodipodi="http://sodipodi.sourceforge.net/DTD/sodipodi-0.dtd"
   xmlns="http://www.w3.org/2000/svg"
   xmlns:svg="http://www.w3.org/2000/svg"
   xmlns:rdf="http://www.w3.org/1999/02/22-rdf-syntax-ns#"
   xmlns:cc="http://creativecommons.org/ns#"
   xmlns:dc="http://purl.org/dc/elements/1.1/">
  <defs
     id="defs2" />
  <sodipodi:namedview
     inkscape:snap-global="false"
     inkscape:window-maximized="0"
     inkscape:window-y="62"
     inkscape:window-x="12"
     inkscape:window-height="1027"
     inkscape:window-width="1663"
     borderlayer="true"
     inkscape:showpageshadow="false"
     units="px"
     showgrid="false"
     inkscape:document-rotation="0"
     inkscape:current-layer="layer1"
     inkscape:document-units="px"
     inkscape:cy="69.09617"
     inkscape:cx="8.3279752"
     inkscape:zoom="3.8424706"
     inkscape:pageshadow="2"
     inkscape:pageopacity="0.0"
     borderopacity="1.0"
     bordercolor="#666666"
     pagecolor="#ffffff"
     id="base"
     inkscape:snap-bbox="true"
     inkscape:bbox-paths="true"
     inkscape:bbox-nodes="true"
     inkscape:snap-bbox-edge-midpoints="true"
     inkscape:snap-bbox-midpoints="true"
     inkscape:pagecheckerboard="0"
     inkscape:deskcolor="#d1d1d1" />
  <metadata
     id="metadata5">
    <rdf:RDF>
      <cc:Work
         rdf:about="">
        <dc:format>image/svg+xml</dc:format>
        <dc:type
           rdf:resource="http://purl.org/dc/dcmitype/StillImage" />
      </cc:Work>
    </rdf:RDF>
  </metadata>
  <g
     id="layer1"
     inkscape:groupmode="layer"
     inkscape:label="レイヤー 1">
    <rect
       ry="0.08534947"
       y="-31.750002"
       x="-31.75"
       height="31.75"
       width="31.75"
       id="rect2741"
       style="fill:none;stroke:none;stroke-width:0.532206;stroke-linecap:round;stroke-linejoin:round;stroke-miterlimit:4;stroke-dasharray:none;stroke-opacity:1"
       transform="scale(-1)" />
    <path
       id="path1960"
       style="color:#000000;font-style:normal;font-variant:normal;font-weight:normal;font-stretch:normal;font-size:medium;line-height:normal;font-family:sans-serif;font-variant-ligatures:normal;font-variant-position:normal;font-variant-caps:normal;font-variant-numeric:normal;font-variant-alternates:normal;font-variant-east-asian:normal;font-feature-settings:normal;font-variation-settings:normal;text-indent:0;text-align:start;text-decoration:none;text-decoration-line:none;text-decoration-style:solid;text-decoration-color:#000000;letter-spacing:normal;word-spacing:normal;text-transform:none;writing-mode:lr-tb;direction:ltr;text-orientation:mixed;dominant-baseline:auto;baseline-shift:baseline;text-anchor:start;white-space:normal;shape-padding:0;shape-margin:0;inline-size:0;clip-rule:nonzero;display:inline;overflow:visible;visibility:visible;isolation:auto;mix-blend-mode:normal;color-interpolation:sRGB;color-interpolation-filters:linearRGB;solid-color:#000000;solid-opacity:1;vector-effect:none;fill:#000000;fill-opacity:1;fill-rule:nonzero;stroke:none;stroke-width:2.32542;stroke-linecap:round;stroke-linejoin:round;stroke-miterlimit:4;stroke-dasharray:none;stroke-dashoffset:0;stroke-opacity:1;color-rendering:auto;image-rendering:auto;shape-rendering:auto;text-rendering:auto;enable-background:accumulate;stop-color:#000000"
       d="m 26.313123,15.3479 c 0.581488,0.0012 1.163236,-0.336963 1.163236,-1.018542 V 5.2317235 c 0,-1.0333435 -0.868865,-1.9022113 -1.902209,-1.9022113 H 6.1758503 c -1.0333461,0 -1.9022087,0.8688652 -1.9022087,1.9022113 v 9.0976345 c 0,1.363158 2.3259574,1.353879 2.3259574,0 V 5.6554695 h 18.550805 v 8.6738885 c 0,0.676939 0.581229,1.017382 1.162719,1.018542 z" />
    <path
       id="path1962"
       style="color:#000000;font-style:normal;font-variant:normal;font-weight:normal;font-stretch:normal;font-size:medium;line-height:normal;font-family:sans-serif;font-variant-ligatures:normal;font-variant-position:normal;font-variant-caps:normal;font-variant-numeric:normal;font-variant-alternates:normal;font-variant-east-asian:normal;font-feature-settings:normal;font-variation-settings:normal;text-indent:0;text-align:start;text-decoration:none;text-decoration-line:none;text-decoration-style:solid;text-decoration-color:#000000;letter-spacing:normal;word-spacing:normal;text-transform:none;writing-mode:lr-tb;direction:ltr;text-orientation:mixed;dominant-baseline:auto;baseline-shift:baseline;text-anchor:start;white-space:normal;shape-padding:0;shape-margin:0;inline-size:0;clip-rule:nonzero;display:inline;overflow:visible;visibility:visible;isolation:auto;mix-blend-mode:normal;color-interpolation:sRGB;color-interpolation-filters:linearRGB;solid-color:#000000;solid-opacity:1;vector-effect:none;fill:#000000;fill-opacity:1;fill-rule:nonzero;stroke:none;stroke-width:2.11852;stroke-linecap:round;stroke-linejoin:miter;stroke-miterlimit:4;stroke-dasharray:none;stroke-dashoffset:0;stroke-opacity:1;color-rendering:auto;image-rendering:auto;shape-rendering:auto;text-rendering:auto;enable-background:accumulate;stop-color:#000000"
       d="m 15.874426,21.223786 c -0.586107,0 1.061318,-0.474812 1.0604,-1.060917 v -7.209654 l 3.3538,3.3538 c 0.344998,0.343574 0.863285,0.331042 1.251603,0.0646 l 0.07855,0.01757 0.08165,-0.08423 c 0.38731,-0.388381 0.389077,-1.023167 0.0021,-1.4118 L 16.593282,9.783389 C 16.404139,9.594913 16.145483,9.492667 15.878595,9.494518 15.608291,9.490918 15.348603,9.59601 15.157708,9.787523 l -5.10718,5.105632 c -0.38911,0.388009 -0.389729,1.024457 -0.0021,1.413867 0.19448,0.19497 0.450128,0.293005 0.706933,0.293005 0.256804,0 0.514522,-0.09804 0.709001,-0.293005 l 3.351734,-3.351733 v 7.20758 c -9.16e-4,0.585298 1.643632,1.060917 1.058333,1.060917 z"
       sodipodi:nodetypes="sccccccccccccscccss" />
    <path
       id="path2958"
       style="color:#000000;font-style:normal;font-variant:normal;font-weight:normal;font-stretch:normal;font-size:medium;line-height:normal;font-family:sans-serif;font-variant-ligatures:normal;font-variant-position:normal;font-variant-caps:normal;font-variant-numeric:normal;font-variant-alternates:normal;font-variant-east-asian:normal;font-feature-settings:normal;font-variation-settings:normal;text-indent:0;text-align:start;text-decoration:none;text-decoration-line:none;text-decoration-style:solid;text-decoration-color:#000000;letter-spacing:normal;word-spacing:normal;text-transform:none;writing-mode:lr-tb;direction:ltr;text-orientation:mixed;dominant-baseline:auto;baseline-shift:baseline;text-anchor:start;white-space:normal;shape-padding:0;shape-margin:0;inline-size:0;clip-rule:nonzero;display:inline;overflow:visible;visibility:visible;isolation:auto;mix-blend-mode:normal;color-interpolation:sRGB;color-interpolation-filters:linearRGB;solid-color:#000000;solid-opacity:1;vector-effect:none;fill:#000000;fill-opacity:1;fill-rule:nonzero;stroke:none;stroke-width:0.414331;stroke-linecap:round;stroke-linejoin:round;stroke-miterlimit:4;stroke-dasharray:none;stroke-dashoffset:0;stroke-opacity:1;color-rendering:auto;image-rendering:auto;shape-rendering:auto;text-rendering:auto;enable-background:accumulate;stop-color:#000000"
       d="m 4.4314593,18.890329 c -0.5471133,0 -0.9958105,0.438772 -0.9958105,0.974258 v 8.833356 c 0,0.535474 0.4486972,0.974258 0.9958105,0.974258 h 10.2495467 0.949758 11.690793 c 0.547111,0 0.992794,-0.438997 0.992794,-0.974258 v -8.833356 c 0,-0.535261 -0.445683,-0.974258 -0.992794,-0.974258 H 15.630764 14.681006 Z m 8.7909337,1.723238 v 7.44e-4 c 0.633366,0 1.207717,0.190522 1.614136,0.545855 0.446754,0.386241 0.67042,0.890347 0.67042,1.455843 0,0.149458 -0.02522,0.298468 -0.150243,0.436541 -0.125029,0.138073 -0.366266,0.219374 -0.56623,0.219374 -0.200296,0 -0.43897,-0.08704 -0.55868,-0.219374 -0.119725,-0.132215 -0.152826,-0.273619 -0.16232,-0.42029 v -0.0024 c -0.01924,-0.332292 -0.119966,-0.553426 -0.259712,-0.691357 -0.15484,-0.154489 -0.307171,-0.211993 -0.587371,-0.211993 -0.265217,0 -0.424046,0.05019 -0.573026,0.169157 v 0.0024 c -0.168796,0.134211 -0.274811,0.340666 -0.274811,0.684708 0,0.522448 0.327973,0.880014 1.195127,1.189949 0.702352,0.247447 1.247895,0.573125 1.605076,0.986813 0.332021,0.378753 0.505831,0.806235 0.505831,1.254928 0,0.556555 -0.203133,1.042439 -0.633423,1.396036 -0.435176,0.357176 -1.049838,0.539206 -1.737951,0.539206 -0.656504,0 -1.245959,-0.165614 -1.680577,-0.494894 l -0.003,-0.0012 c -0.549289,-0.424837 -0.818394,-1.018039 -0.818394,-1.706987 0,-0.136361 0.03896,-0.289291 0.179686,-0.41364 0.140721,-0.12435 0.360288,-0.177272 0.540561,-0.177272 0.178854,0 0.389839,0.0613 0.520933,0.177272 0.131093,0.115976 0.177405,0.25184 0.193275,0.382603 v 0.0012 0.0012 c 0.05471,0.534187 0.229194,0.840768 0.312557,0.904082 v 0.0024 c 0.198559,0.144628 0.421589,0.211993 0.754978,0.211993 0.44541,0 0.641436,-0.07995 0.748935,-0.198694 v -0.0024 c 0.105685,-0.11574 0.18497,-0.315557 0.18497,-0.621926 0,-0.25412 -0.07659,-0.451492 -0.231024,-0.626365 C 13.863628,25.21863 13.47777,24.971183 12.85474,24.714181 h -0.0023 c -1.213025,-0.505158 -1.914618,-1.247547 -1.914618,-2.13245 0,-0.536808 0.206969,-1.016515 0.624366,-1.386422 0.418032,-0.375813 1.00898,-0.582042 1.660191,-0.582042 z m 5.481122,0 c 0.803458,0 1.502336,0.345755 1.960669,0.926262 0.443098,0.556874 0.584352,1.446879 0.584352,2.758791 0,1.284359 -0.142109,2.163747 -0.580576,2.721885 -0.458298,0.582313 -1.159596,0.928458 -1.964445,0.928458 -0.804857,0 -1.505398,-0.346145 -1.963692,-0.928458 -0.438468,-0.558138 -0.581332,-1.437526 -0.581332,-2.721885 0,-1.311912 0.140501,-2.201917 0.583597,-2.758791 0.458337,-0.580507 1.157965,-0.926262 1.961427,-0.926262 z m -9.7444689,0.0333 c 0.1901194,0 0.4221364,0.06732 0.5549079,0.199427 0.1327872,0.132062 0.1653379,0.28087 0.1653379,0.423242 v 4.476125 c 0,0.675141 -0.1636443,1.213627 -0.5813275,1.588082 -0.4491793,0.400826 -1.0833387,0.615275 -1.7908008,0.615275 -0.6644708,0 -1.2622239,-0.20617 -1.6684972,-0.588691 -0.4027001,-0.382249 -0.5730248,-0.908806 -0.5730248,-1.547443 0,-0.14236 0.032569,-0.293389 0.1653379,-0.425462 0.1327873,-0.132074 0.3625203,-0.199427 0.5526421,-0.199427 0.1901206,0 0.422134,0.06732 0.5549091,0.199427 0.1327872,0.132073 0.1645834,0.283102 0.1645834,0.425462 0,0.368443 0.08922,0.658301 0.2521607,0.887844 0.054056,0.07535 0.1654381,0.136644 0.5518888,0.136644 0.3518431,0 0.5299067,-0.06874 0.6741932,-0.212737 0.1326556,-0.131495 0.2604621,-0.458791 0.2604621,-0.979432 v -4.375667 c 0,-0.142372 0.02879,-0.29118 0.1615656,-0.423242 0.1327872,-0.132073 0.3655381,-0.199427 0.5556616,-0.199427 z m 13.6605259,0 c 0.217602,0 0.408978,0.09236 0.532257,0.197207 0.122721,0.104402 0.207725,0.224996 0.283869,0.368584 v 0.0024 l 1.813452,3.341589 v -3.287676 c 0,-0.14236 0.03178,-0.291169 0.164583,-0.423242 0.132773,-0.132073 0.365542,-0.199427 0.555663,-0.199427 0.190123,0 0.419872,0.06732 0.552642,0.199427 0.132787,0.132073 0.164585,0.280882 0.164585,0.423242 v 5.988125 c 0,0.14412 -0.01848,0.282016 -0.124563,0.418801 -0.106084,0.136786 -0.347745,0.23859 -0.549622,0.23859 -0.207592,0 -0.382157,-0.09082 -0.488469,-0.183188 -0.106326,-0.09247 -0.17806,-0.196841 -0.243104,-0.317623 l -2.030127,-3.818734 v 3.696132 c 0,0.14236 -0.03254,0.292645 -0.165338,0.424718 -0.132788,0.132074 -0.365538,0.198695 -0.555663,0.198695 -0.190123,0 -0.419117,-0.06661 -0.551888,-0.198695 -0.132788,-0.132073 -0.165338,-0.282358 -0.165338,-0.424718 v -5.584086 c 0,-0.268517 0.02878,-0.483344 0.13061,-0.675862 0.101835,-0.19253 0.377464,-0.384824 0.676458,-0.384824 z m -3.916057,1.078401 c -0.376481,0 -0.585693,0.104875 -0.801031,0.456476 -0.162675,0.263439 -0.307275,1.006855 -0.307275,2.116931 0,1.080456 0.140692,1.807386 0.307275,2.082221 0.215338,0.351613 0.42455,0.456476 0.801031,0.456476 0.376473,0 0.585692,-0.104875 0.801026,-0.456476 0.166572,-0.274835 0.30652,-1.001765 0.30652,-2.082221 0,-1.110076 -0.143846,-1.853492 -0.30652,-2.116931 -0.215334,-0.351601 -0.424553,-0.456476 -0.801026,-0.456476 z" />
  </g>
</svg>
