<svg viewBox="0 0 31.75 31.75" height="26" width="26" xmlns="http://www.w3.org/2000/svg" id="upload"><rect ry=".085" y="-31.75" x="-31.75" height="31.75" width="31.75" style="fill:none;stroke:none;stroke-width:.532206;stroke-linecap:round;stroke-linejoin:round;stroke-miterlimit:4;stroke-dasharray:none;stroke-opacity:1" transform="scale(-1)"/><path style="color:currentColor;font-style:normal;font-variant:normal;font-weight:400;font-stretch:normal;font-size:medium;line-height:normal;font-family:sans-serif;font-variant-ligatures:normal;font-variant-position:normal;font-variant-caps:normal;font-variant-numeric:normal;font-variant-alternates:normal;font-variant-east-asian:normal;font-feature-settings:normal;font-variation-settings:normal;text-indent:0;text-align:start;text-decoration:none;text-decoration-line:none;text-decoration-style:solid;text-decoration-color:currentColor;letter-spacing:normal;word-spacing:normal;text-transform:none;writing-mode:lr-tb;direction:ltr;text-orientation:mixed;dominant-baseline:auto;baseline-shift:baseline;text-anchor:start;white-space:normal;shape-padding:0;shape-margin:0;inline-size:0;clip-rule:nonzero;display:inline;overflow:visible;visibility:visible;isolation:auto;mix-blend-mode:normal;color-interpolation:sRGB;color-interpolation-filters:linearRGB;solid-color:currentColor;solid-opacity:1;vector-effect:none;fill:currentColor;fill-opacity:1;fill-rule:nonzero;stroke:none;stroke-width:2.32542;stroke-linecap:round;stroke-linejoin:round;stroke-miterlimit:4;stroke-dasharray:none;stroke-dashoffset:0;stroke-opacity:1;color-rendering:auto;image-rendering:auto;shape-rendering:auto;text-rendering:auto;enable-background:accumulate;stop-color:currentColor" d="M26.313 15.348c.582.001 1.163-.337 1.163-1.019V5.232a1.925 1.925 0 0 0-1.902-1.902H6.176a1.925 1.925 0 0 0-1.902 1.902v9.097c0 1.364 2.326 1.354 2.326 0V5.655h18.55v8.674c0 .677.582 1.018 1.163 1.019z"/><path style="color:currentColor;font-style:normal;font-variant:normal;font-weight:400;font-stretch:normal;font-size:medium;line-height:normal;font-family:sans-serif;font-variant-ligatures:normal;font-variant-position:normal;font-variant-caps:normal;font-variant-numeric:normal;font-variant-alternates:normal;font-variant-east-asian:normal;font-feature-settings:normal;font-variation-settings:normal;text-indent:0;text-align:start;text-decoration:none;text-decoration-line:none;text-decoration-style:solid;text-decoration-color:currentColor;letter-spacing:normal;word-spacing:normal;text-transform:none;writing-mode:lr-tb;direction:ltr;text-orientation:mixed;dominant-baseline:auto;baseline-shift:baseline;text-anchor:start;white-space:normal;shape-padding:0;shape-margin:0;inline-size:0;clip-rule:nonzero;display:inline;overflow:visible;visibility:visible;isolation:auto;mix-blend-mode:normal;color-interpolation:sRGB;color-interpolation-filters:linearRGB;solid-color:currentColor;solid-opacity:1;vector-effect:none;fill:currentColor;fill-opacity:1;fill-rule:nonzero;stroke:none;stroke-width:2.11852;stroke-linecap:round;stroke-linejoin:miter;stroke-miterlimit:4;stroke-dasharray:none;stroke-dashoffset:0;stroke-opacity:1;color-rendering:auto;image-rendering:auto;shape-rendering:auto;text-rendering:auto;enable-background:accumulate;stop-color:currentColor" d="M15.874 21.224c-.586 0 1.062-.475 1.06-1.061v-7.21l3.355 3.354c.345.344.863.331 1.251.065l.079.017.081-.084c.388-.388.39-1.023.003-1.412l-5.11-5.11a1.002 1.002 0 0 0-.714-.288.998.998 0 0 0-.721.293l-5.107 5.105a1.004 1.004 0 0 0-.003 1.414 1 1 0 0 0 1.416 0l3.352-3.352v7.208c0 .585 1.644 1.06 1.058 1.06z"/><path style="color:currentColor;font-style:normal;font-variant:normal;font-weight:400;font-stretch:normal;font-size:medium;line-height:normal;font-family:sans-serif;font-variant-ligatures:normal;font-variant-position:normal;font-variant-caps:normal;font-variant-numeric:normal;font-variant-alternates:normal;font-variant-east-asian:normal;font-feature-settings:normal;font-variation-settings:normal;text-indent:0;text-align:start;text-decoration:none;text-decoration-line:none;text-decoration-style:solid;text-decoration-color:currentColor;letter-spacing:normal;word-spacing:normal;text-transform:none;writing-mode:lr-tb;direction:ltr;text-orientation:mixed;dominant-baseline:auto;baseline-shift:baseline;text-anchor:start;white-space:normal;shape-padding:0;shape-margin:0;inline-size:0;clip-rule:nonzero;display:inline;overflow:visible;visibility:visible;isolation:auto;mix-blend-mode:normal;color-interpolation:sRGB;color-interpolation-filters:linearRGB;solid-color:currentColor;solid-opacity:1;vector-effect:none;fill:currentColor;fill-opacity:1;fill-rule:nonzero;stroke:none;stroke-width:.414331;stroke-linecap:round;stroke-linejoin:round;stroke-miterlimit:4;stroke-dasharray:none;stroke-dashoffset:0;stroke-opacity:1;color-rendering:auto;image-rendering:auto;shape-rendering:auto;text-rendering:auto;enable-background:accumulate;stop-color:currentColor" d="M4.431 18.89a.989.989 0 0 0-.995.975v8.833c0 .535.448.974.995.974h22.89a.986.986 0 0 0 .993-.974v-8.833a.986.986 0 0 0-.992-.975H14.68Zm8.791 1.724c.634 0 1.208.19 1.615.546.446.386.67.89.67 1.456 0 .15-.025.298-.15.437-.125.138-.367.219-.567.219-.2 0-.438-.087-.558-.22a.645.645 0 0 1-.163-.42v-.002c-.019-.332-.12-.554-.26-.691-.154-.155-.306-.212-.587-.212-.265 0-.424.05-.573.169v.002c-.168.134-.274.34-.274.685 0 .522.328.88 1.195 1.19.702.247 1.248.573 1.605.987.332.378.506.806.506 1.254 0 .557-.204 1.043-.634 1.397-.435.357-1.05.539-1.738.539-.656 0-1.246-.166-1.68-.495l-.003-.001c-.55-.425-.819-1.018-.819-1.707 0-.137.04-.29.18-.414.14-.124.36-.177.54-.177a.83.83 0 0 1 .521.177.577.577 0 0 1 .194.383v.002c.054.534.229.84.312.904v.002c.199.145.422.212.755.212.446 0 .642-.08.75-.198v-.003c.105-.115.184-.315.184-.622a.894.894 0 0 0-.23-.626c-.15-.168-.535-.416-1.158-.673h-.003c-1.213-.505-1.914-1.247-1.914-2.132a1.8 1.8 0 0 1 .624-1.387c.418-.376 1.01-.582 1.66-.582zm5.482 0c.803 0 1.502.345 1.96.926.443.557.585 1.447.585 2.759 0 1.284-.143 2.163-.581 2.722-.458.582-1.16.928-1.964.928-.805 0-1.506-.346-1.964-.928-.439-.559-.582-1.438-.582-2.722 0-1.312.141-2.202.584-2.76.458-.58 1.158-.925 1.962-.925zm-9.745.033c.19 0 .422.067.555.2.133.131.165.28.165.423v4.476c0 .675-.163 1.213-.581 1.588-.45.4-1.083.615-1.79.615-.665 0-1.263-.206-1.67-.589-.402-.382-.572-.908-.572-1.547 0-.142.032-.294.165-.426s.362-.199.553-.199c.19 0 .422.067.555.2a.566.566 0 0 1 .164.425c0 .368.09.658.252.888.054.075.166.136.552.136.352 0 .53-.068.674-.212.133-.132.26-.46.26-.98V21.27c0-.143.03-.292.162-.424.133-.132.366-.2.556-.2zm13.66 0a.84.84 0 0 1 .533.197c.123.104.208.225.284.369v.002l1.813 3.342v-3.288c0-.142.032-.291.165-.423s.365-.2.555-.2c.19 0 .42.068.553.2.133.132.165.28.165.423v5.988a.632.632 0 0 1-.125.419c-.106.137-.348.238-.55.238a.76.76 0 0 1-.488-.183 1.076 1.076 0 0 1-.243-.317l-2.03-3.82v3.697a.565.565 0 0 1-.166.425c-.132.132-.365.198-.555.198-.19 0-.42-.066-.552-.198a.565.565 0 0 1-.165-.425v-5.584c0-.269.028-.483.13-.676.102-.192.378-.385.677-.385zm-3.915 1.078c-.377 0-.586.105-.802.457-.162.263-.307 1.007-.307 2.117 0 1.08.14 1.807.307 2.082.216.352.425.456.802.456.376 0 .585-.105.8-.456.167-.275.307-1.002.307-2.082 0-1.11-.144-1.854-.306-2.117-.216-.352-.425-.457-.801-.457z"/></svg>