<?xml version="1.0" encoding="UTF-8" standalone="no"?>
<svg
   xmlns:dc="http://purl.org/dc/elements/1.1/"
   xmlns:cc="http://creativecommons.org/ns#"
   xmlns:rdf="http://www.w3.org/1999/02/22-rdf-syntax-ns#"
   xmlns:svg="http://www.w3.org/2000/svg"
   xmlns="http://www.w3.org/2000/svg"
   xmlns:sodipodi="http://sodipodi.sourceforge.net/DTD/sodipodi-0.dtd"
   xmlns:inkscape="http://www.inkscape.org/namespaces/inkscape"
   sodipodi:docname="zoom_out_.svg"
   inkscape:version="1.0 (4035a4f, 2020-05-01)"
   id="zoom_out"
   version="1.1"
   viewBox="0 0 31.749999 31.750001"
   height="100%"
   width="100%">
  <g
     id="layer1"
     inkscape:groupmode="layer"
     inkscape:label="レイヤー 1">
    <g
       transform="translate(67.817924,4.3265905)"
       id="g2772">
      <rect
         ry="0.08534947"
         y="-4.3265905"
         x="-67.817924"
         height="31.75"
         width="31.75"
         id="rect2733"
         style="fill:none;stroke:none;stroke-width:0.532206;stroke-linecap:round;stroke-linejoin:round;stroke-miterlimit:4;stroke-dasharray:none;stroke-opacity:1" />
      <g
         id="g863"
         transform="matrix(0.94132319,0,0,0.94132319,-28.734739,-5.7816864)">
        <path
           d="m -33.008957,7.5760861 a 10.522453,10.522453 0 0 0 -1.339407,14.8205649 10.522453,10.522453 0 0 0 12.923016,2.601603 l 4.899003,5.872473 c 0.804033,0.963801 2.227301,1.092429 3.191102,0.288396 0.9638,-0.804032 1.092429,-2.227301 0.288396,-3.191103 L -17.94585,22.095547 A 10.522453,10.522453 0 0 0 -18.188392,8.915493 10.522453,10.522453 0 0 0 -33.008957,7.5760861 Z m 1.272897,1.5608655 a 8.5085858,8.5085858 0 0 1 0.01724,-0.014376 8.5085858,8.5085858 0 0 1 11.983945,1.0830474 8.5085858,8.5085858 0 0 1 -1.083047,11.983944 8.5085858,8.5085858 0 0 1 -11.984358,-1.082703 8.5085858,8.5085858 0 0 1 1.066226,-11.969912 z"
           style="fill:currentColor;stroke-width:2.1887;stroke-linecap:round;stroke-linejoin:round"
           id="path836" />
        <rect
           ry="0.77885592"
           y="15.075162"
           x="-31.648293"
           height="1.5577118"
           width="10.663175"
           id="rect855"
           style="fill:currentColor;stroke-width:2.22049;stroke-linecap:round;stroke-linejoin:round" />
      </g>
    </g>
  </g>
</svg>
